<svg width="215" height="114" viewBox="0 0 215 114" fill="none" xmlns="http://www.w3.org/2000/svg">
    <g filter="url(#filter0_d_2722_48880)">
        <path fill-rule="evenodd" clip-rule="evenodd" d="M164.663 18.6515C144.096 12.7524 122.949 10.0346 101.45 10.5145C91.6763 10.7326 81.8304 11.6094 71.9331 13.15C67.0135 13.9148 62.0213 14.8669 57.0666 18.1047C51.3354 21.8499 43.2592 32.2261 41.6444 44.867C39.6961 60.1391 48.895 65.2044 54.272 67.756C66.9124 73.7602 80.0033 77.6181 93.2158 80.6704L92.8985 92.4518C92.8703 93.4989 93.9951 94.1788 94.9219 93.6749L111.518 84.6522C132.716 88.8366 154.188 91.2382 176.167 89.6192C181.251 89.2464 186.415 88.6643 191.586 85.6518C198.142 81.8328 208.283 70.4929 208.573 54.8768C208.636 51.4377 208.015 48.3783 207.155 45.7889C204.274 37.1068 198.924 33.2791 193.689 30.333C184.317 25.0623 174.551 21.4876 164.663 18.6515Z" fill="white"/>
    </g>
    <mask id="path-2-outside-1_2722_48880" maskUnits="userSpaceOnUse" x="81" y="27" width="88" height="42" fill="black">
        <rect fill="white" x="81" y="27" width="88" height="42"/>
        <path d="M84.975 40.064C86.595 39.92 89.331 39.578 90.627 39.524C91.149 39.506 91.509 39.614 91.527 40.118C91.545 40.82 91.149 41.018 90.591 41.108C88.341 41.432 86.433 41.63 83.859 41.666C83.103 41.684 82.833 41.36 82.761 40.766C82.689 40.226 82.977 39.758 83.319 39.398C83.625 39.056 86.613 36.662 87.585 35.744C88.755 34.628 89.745 33.602 89.817 32.558C89.925 31.136 89.007 30.254 86.811 30.344C85.371 30.398 84.111 31.658 83.769 32.756C83.607 33.368 83.319 33.566 82.635 33.386C82.041 33.224 81.951 32.864 82.041 32.36C82.311 30.812 83.895 28.922 86.847 28.652C89.601 28.4 91.689 29.894 91.689 32.252C91.689 33.674 90.969 34.898 89.583 36.194C88.413 37.292 85.947 39.344 84.975 40.064ZM98.7526 41.738C95.8906 41.846 93.4066 39.578 93.4066 35.33C93.4066 31.496 95.4406 28.922 98.7526 28.67C101.993 28.418 104.117 31.028 104.117 35.33C104.117 39.38 101.651 41.63 98.7526 41.738ZM98.6806 40.082C100.661 40.01 102.227 38.426 102.227 35.186C102.227 31.802 100.625 30.182 98.7526 30.326C96.6826 30.47 95.2966 32.144 95.2966 35.294C95.2966 38.66 96.9166 40.154 98.6806 40.082ZM108.775 40.064C110.395 39.92 113.131 39.578 114.427 39.524C114.949 39.506 115.309 39.614 115.327 40.118C115.345 40.82 114.949 41.018 114.391 41.108C112.141 41.432 110.233 41.63 107.659 41.666C106.903 41.684 106.633 41.36 106.561 40.766C106.489 40.226 106.777 39.758 107.119 39.398C107.425 39.056 110.413 36.662 111.385 35.744C112.555 34.628 113.545 33.602 113.617 32.558C113.725 31.136 112.807 30.254 110.611 30.344C109.171 30.398 107.911 31.658 107.569 32.756C107.407 33.368 107.119 33.566 106.435 33.386C105.841 33.224 105.751 32.864 105.841 32.36C106.111 30.812 107.695 28.922 110.647 28.652C113.401 28.4 115.489 29.894 115.489 32.252C115.489 33.674 114.769 34.898 113.383 36.194C112.213 37.292 109.747 39.344 108.775 40.064ZM119.151 30.488L119.097 34.484C119.781 33.854 121.059 33.332 122.283 33.368C124.389 33.422 125.991 35.006 125.901 37.562C125.811 40.028 124.119 41.738 121.599 41.738C119.781 41.738 118.053 40.874 117.585 39.74C117.315 39.092 117.351 38.642 117.927 38.318C118.359 38.066 118.683 38.066 118.935 38.588C119.277 39.29 120.357 40.154 121.707 40.1C123.237 40.046 124.119 38.822 124.101 37.274C124.083 35.924 123.309 34.952 121.905 34.952C120.285 34.952 119.277 35.834 119.115 35.96C118.359 36.5 117.423 36.32 117.405 35.474C117.387 34.502 117.351 31.1 117.351 29.3C117.351 28.994 117.513 28.832 117.873 28.814C120.699 28.724 122.229 28.652 125.343 28.652C125.703 28.652 125.973 28.832 125.955 29.372C125.937 30.02 125.739 30.164 125.271 30.2C123.543 30.326 120.789 30.398 119.151 30.488ZM138.994 33.962C137.716 34.016 135.664 34.07 135.376 34.07C134.872 34.07 134.728 33.8 134.71 33.278C134.692 32.738 134.872 32.504 135.322 32.486C135.682 32.468 137.734 32.396 138.994 32.36C138.994 31.946 139.012 31.55 139.012 31.154C137.752 31.208 135.628 31.262 135.34 31.262C134.836 31.262 134.692 30.992 134.674 30.47C134.656 29.93 134.836 29.696 135.286 29.678C135.646 29.66 137.77 29.57 139.03 29.534C139.03 29.39 139.048 29.228 139.048 29.084C139.048 28.436 139.3 28.184 140.02 28.184C140.668 28.184 140.974 28.49 140.956 29.138C140.92 31.442 140.902 36.554 140.758 37.85C140.686 38.534 140.344 38.696 139.84 38.678C139.318 38.66 139.012 38.516 138.994 37.796C138.976 37.238 138.976 35.69 138.994 33.962ZM136.636 36.824C134.926 37.04 132.118 37.274 129.976 37.31C129.184 37.328 128.68 36.986 128.626 36.248C128.464 34.25 128.356 31.244 128.32 29.192C128.302 28.67 128.374 28.418 129.256 28.346C130.012 28.292 130.3 28.49 130.318 29.066C130.408 31.154 130.444 33.89 130.498 35.42C130.498 35.546 130.57 35.618 130.678 35.618C132.478 35.528 134.71 35.42 136.51 35.312C136.924 35.294 137.194 35.42 137.212 36.068C137.23 36.536 136.978 36.788 136.636 36.824ZM140.29 43.394C137.914 43.574 134.674 43.682 132.442 43.7C131.866 43.7 131.506 43.25 131.47 42.656C131.38 41.198 131.344 40.586 131.344 39.2C131.344 38.66 131.542 38.498 132.244 38.462C132.946 38.426 133.27 38.588 133.288 39.128C133.306 39.92 133.306 41.216 133.324 41.882C133.324 42.008 133.378 42.098 133.504 42.098C135.34 42.062 138.454 41.9 140.272 41.9C140.758 41.9 140.956 42.098 140.956 42.656C140.956 43.16 140.614 43.376 140.29 43.394ZM108.503 60.698L108.503 61.796C109.817 61.76 111.131 61.724 112.337 61.688C112.607 61.688 112.769 61.796 112.769 62.138C112.769 63.002 112.697 63.866 112.643 64.712C112.607 65.18 112.445 65.378 111.923 65.396C109.943 65.486 106.775 65.558 104.597 65.648C104.597 65.9 104.597 66.188 104.615 66.458C106.829 66.44 109.997 66.368 112.391 66.332C112.751 66.332 112.877 66.548 112.877 66.944C112.877 67.34 112.805 67.7 112.373 67.718C109.565 67.826 106.757 67.862 103.931 67.862C103.085 67.862 102.851 67.592 102.797 66.818C102.761 66.206 102.743 65.594 102.743 64.874C102.743 64.604 102.815 64.424 103.067 64.406C104.975 64.316 109.007 64.226 110.897 64.136C110.915 63.722 110.915 63.596 110.915 63.164C108.791 63.218 105.119 63.38 102.995 63.452C102.617 63.47 102.455 63.326 102.437 62.786C102.419 62.228 102.599 62.048 103.013 62.03C104.075 61.976 105.299 61.922 106.577 61.868L106.577 60.77C104.867 60.824 103.175 60.86 101.681 60.896C101.231 60.914 100.997 60.698 100.997 60.14C100.997 59.618 101.195 59.438 101.699 59.42C105.461 59.276 110.285 59.168 113.561 59.078C114.011 59.06 114.191 59.276 114.191 59.708C114.191 60.266 113.921 60.446 113.525 60.464C112.031 60.554 110.285 60.626 108.503 60.698ZM107.945 54.074L107.945 54.902C109.511 55.496 112.067 56.432 113.363 56.936C113.687 57.062 113.795 57.422 113.525 57.908C113.237 58.43 112.805 58.412 112.391 58.268C111.221 57.872 108.629 56.828 107.153 56.288C105.893 56.99 103.877 58.052 102.671 58.61C102.221 58.808 101.825 58.862 101.519 58.484C101.231 58.124 101.177 57.764 101.519 57.566C102.887 56.774 104.759 55.766 106.019 55.028C106.001 54.794 106.001 54.488 106.001 54.164C104.255 54.236 102.689 54.29 102.023 54.308C101.591 54.326 101.321 54.2 101.303 53.642C101.285 53.066 101.537 52.796 101.897 52.778C102.653 52.76 104.219 52.688 105.947 52.616C105.947 52.328 105.929 52.076 105.929 51.914C105.911 51.356 106.091 51.05 106.865 51.014C107.729 50.96 107.927 51.194 107.945 51.806L107.945 52.544C109.961 52.454 111.869 52.4 112.697 52.364C113.183 52.346 113.399 52.544 113.417 53.12C113.435 53.678 113.219 53.822 112.715 53.858C111.941 53.912 109.997 53.984 107.945 54.074ZM128.999 65.252C128.945 65.936 128.585 66.17 128.081 66.134C127.559 66.098 127.307 65.792 127.307 65.018C127.307 61.022 127.379 57.026 127.523 53.084C127.541 52.436 127.811 52.184 128.531 52.184C129.179 52.184 129.467 52.49 129.467 53.138C129.431 57.062 129.269 61.616 128.999 65.252ZM120.449 60.212C119.045 61.796 117.857 63.218 116.975 63.956C116.615 64.262 116.129 64.136 115.823 63.758C115.535 63.398 115.643 63.092 115.913 62.786C116.831 61.76 118.487 59.87 119.315 58.826C119.297 57.386 119.171 54.668 119.135 53.174C119.117 52.616 119.351 52.31 120.125 52.274C120.989 52.22 121.223 52.454 121.223 53.066C121.241 54.722 121.313 57.062 121.313 58.646C122.663 59.816 124.013 60.806 125.075 61.724C125.417 62.03 125.525 62.372 125.237 62.786C124.949 63.236 124.661 63.452 124.265 63.2C123.239 62.534 121.565 61.238 120.449 60.212ZM147.116 60.788C146.414 60.824 145.478 60.86 144.812 60.896C144.056 61.922 142.85 62.498 141.338 62.552C138.602 62.642 137.054 61.022 137.054 58.052C137.054 55.586 138.512 53.498 141.338 53.39C142.922 53.336 144.092 53.948 144.812 55.01C145.514 54.974 146.45 54.938 147.116 54.92C147.116 54.272 147.116 53.624 147.134 52.976C147.134 52.508 147.386 52.274 148.052 52.274C148.7 52.274 148.952 52.472 148.952 52.922C149.006 57.458 148.934 60.536 148.79 65.072C148.772 65.648 148.502 65.882 147.944 65.882C147.404 65.882 147.152 65.612 147.152 65.036C147.134 63.614 147.134 62.21 147.116 60.788ZM151.814 65.378C151.778 65.918 151.49 66.17 150.95 66.152C150.428 66.134 150.212 65.882 150.212 65.306C150.23 60.734 150.32 57.26 150.464 52.796C150.482 52.346 150.698 52.13 151.364 52.13C152.03 52.148 152.282 52.382 152.282 52.796C152.264 57.332 152.12 60.806 151.814 65.378ZM141.284 60.896C142.958 60.878 143.822 59.582 143.822 57.962C143.822 56.18 142.922 54.992 141.338 55.046C139.628 55.1 138.872 56.45 138.872 58.052C138.872 59.87 139.646 60.914 141.284 60.896ZM147.116 59.186L147.116 56.522C146.63 56.54 146.036 56.558 145.496 56.594C145.586 57.026 145.64 57.512 145.64 58.016C145.64 58.448 145.604 58.862 145.514 59.24C146.072 59.222 146.648 59.204 147.116 59.186ZM167.824 64.604C167.896 66.764 166.294 68.348 163.558 68.456C160.786 68.564 159.274 67.088 159.274 64.874C159.274 62.93 160.642 61.166 163.45 61.022C166.15 60.878 167.752 62.354 167.824 64.604ZM159.238 58.268C158.284 59.204 157.006 60.374 156.124 61.112C155.764 61.418 155.278 61.292 154.972 60.914C154.684 60.554 154.774 60.266 155.062 59.978C155.98 59.078 157.294 57.8 158.122 56.918C158.068 55.784 158.032 54.686 157.996 53.642C156.7 53.714 155.512 53.768 154.864 53.786C154.432 53.804 154.162 53.57 154.144 53.012C154.126 52.436 154.414 52.184 154.792 52.166C156.682 52.058 161.596 51.86 163.432 51.788C163.918 51.77 164.134 51.896 164.152 52.472C164.17 53.03 163.954 53.3 163.45 53.336C162.748 53.372 161.416 53.444 159.976 53.534C159.994 54.452 160.012 55.658 160.012 56.756C161.362 57.512 162.784 58.178 163.846 58.754C164.224 58.97 164.296 59.348 164.008 59.762C163.72 60.212 163.486 60.32 163.09 60.14C162.064 59.672 160.642 59.006 159.238 58.268ZM166.006 56.558C164.926 56.612 163.612 56.648 163.36 56.648C162.856 56.648 162.712 56.36 162.694 55.838C162.676 55.298 162.856 55.046 163.306 55.028C163.612 55.01 164.962 54.956 166.024 54.92C166.042 54.29 166.042 53.678 166.06 53.084C166.06 52.436 166.312 52.184 167.032 52.184C167.68 52.184 167.986 52.49 167.968 53.138C167.932 55.442 167.914 58.934 167.77 60.23C167.698 60.914 167.356 61.076 166.852 61.058C166.33 61.04 166.024 60.896 166.006 60.176C165.988 59.528 165.988 58.142 166.006 56.558ZM165.988 64.622C165.952 63.272 164.944 62.444 163.504 62.516C161.992 62.588 161.092 63.614 161.11 64.82C161.128 66.152 162.046 67.016 163.504 66.962C165.07 66.908 166.024 65.918 165.988 64.622Z"/>
    </mask>
    <path d="M84.975 40.064C86.595 39.92 89.331 39.578 90.627 39.524C91.149 39.506 91.509 39.614 91.527 40.118C91.545 40.82 91.149 41.018 90.591 41.108C88.341 41.432 86.433 41.63 83.859 41.666C83.103 41.684 82.833 41.36 82.761 40.766C82.689 40.226 82.977 39.758 83.319 39.398C83.625 39.056 86.613 36.662 87.585 35.744C88.755 34.628 89.745 33.602 89.817 32.558C89.925 31.136 89.007 30.254 86.811 30.344C85.371 30.398 84.111 31.658 83.769 32.756C83.607 33.368 83.319 33.566 82.635 33.386C82.041 33.224 81.951 32.864 82.041 32.36C82.311 30.812 83.895 28.922 86.847 28.652C89.601 28.4 91.689 29.894 91.689 32.252C91.689 33.674 90.969 34.898 89.583 36.194C88.413 37.292 85.947 39.344 84.975 40.064ZM98.7526 41.738C95.8906 41.846 93.4066 39.578 93.4066 35.33C93.4066 31.496 95.4406 28.922 98.7526 28.67C101.993 28.418 104.117 31.028 104.117 35.33C104.117 39.38 101.651 41.63 98.7526 41.738ZM98.6806 40.082C100.661 40.01 102.227 38.426 102.227 35.186C102.227 31.802 100.625 30.182 98.7526 30.326C96.6826 30.47 95.2966 32.144 95.2966 35.294C95.2966 38.66 96.9166 40.154 98.6806 40.082ZM108.775 40.064C110.395 39.92 113.131 39.578 114.427 39.524C114.949 39.506 115.309 39.614 115.327 40.118C115.345 40.82 114.949 41.018 114.391 41.108C112.141 41.432 110.233 41.63 107.659 41.666C106.903 41.684 106.633 41.36 106.561 40.766C106.489 40.226 106.777 39.758 107.119 39.398C107.425 39.056 110.413 36.662 111.385 35.744C112.555 34.628 113.545 33.602 113.617 32.558C113.725 31.136 112.807 30.254 110.611 30.344C109.171 30.398 107.911 31.658 107.569 32.756C107.407 33.368 107.119 33.566 106.435 33.386C105.841 33.224 105.751 32.864 105.841 32.36C106.111 30.812 107.695 28.922 110.647 28.652C113.401 28.4 115.489 29.894 115.489 32.252C115.489 33.674 114.769 34.898 113.383 36.194C112.213 37.292 109.747 39.344 108.775 40.064ZM119.151 30.488L119.097 34.484C119.781 33.854 121.059 33.332 122.283 33.368C124.389 33.422 125.991 35.006 125.901 37.562C125.811 40.028 124.119 41.738 121.599 41.738C119.781 41.738 118.053 40.874 117.585 39.74C117.315 39.092 117.351 38.642 117.927 38.318C118.359 38.066 118.683 38.066 118.935 38.588C119.277 39.29 120.357 40.154 121.707 40.1C123.237 40.046 124.119 38.822 124.101 37.274C124.083 35.924 123.309 34.952 121.905 34.952C120.285 34.952 119.277 35.834 119.115 35.96C118.359 36.5 117.423 36.32 117.405 35.474C117.387 34.502 117.351 31.1 117.351 29.3C117.351 28.994 117.513 28.832 117.873 28.814C120.699 28.724 122.229 28.652 125.343 28.652C125.703 28.652 125.973 28.832 125.955 29.372C125.937 30.02 125.739 30.164 125.271 30.2C123.543 30.326 120.789 30.398 119.151 30.488ZM138.994 33.962C137.716 34.016 135.664 34.07 135.376 34.07C134.872 34.07 134.728 33.8 134.71 33.278C134.692 32.738 134.872 32.504 135.322 32.486C135.682 32.468 137.734 32.396 138.994 32.36C138.994 31.946 139.012 31.55 139.012 31.154C137.752 31.208 135.628 31.262 135.34 31.262C134.836 31.262 134.692 30.992 134.674 30.47C134.656 29.93 134.836 29.696 135.286 29.678C135.646 29.66 137.77 29.57 139.03 29.534C139.03 29.39 139.048 29.228 139.048 29.084C139.048 28.436 139.3 28.184 140.02 28.184C140.668 28.184 140.974 28.49 140.956 29.138C140.92 31.442 140.902 36.554 140.758 37.85C140.686 38.534 140.344 38.696 139.84 38.678C139.318 38.66 139.012 38.516 138.994 37.796C138.976 37.238 138.976 35.69 138.994 33.962ZM136.636 36.824C134.926 37.04 132.118 37.274 129.976 37.31C129.184 37.328 128.68 36.986 128.626 36.248C128.464 34.25 128.356 31.244 128.32 29.192C128.302 28.67 128.374 28.418 129.256 28.346C130.012 28.292 130.3 28.49 130.318 29.066C130.408 31.154 130.444 33.89 130.498 35.42C130.498 35.546 130.57 35.618 130.678 35.618C132.478 35.528 134.71 35.42 136.51 35.312C136.924 35.294 137.194 35.42 137.212 36.068C137.23 36.536 136.978 36.788 136.636 36.824ZM140.29 43.394C137.914 43.574 134.674 43.682 132.442 43.7C131.866 43.7 131.506 43.25 131.47 42.656C131.38 41.198 131.344 40.586 131.344 39.2C131.344 38.66 131.542 38.498 132.244 38.462C132.946 38.426 133.27 38.588 133.288 39.128C133.306 39.92 133.306 41.216 133.324 41.882C133.324 42.008 133.378 42.098 133.504 42.098C135.34 42.062 138.454 41.9 140.272 41.9C140.758 41.9 140.956 42.098 140.956 42.656C140.956 43.16 140.614 43.376 140.29 43.394ZM108.503 60.698L108.503 61.796C109.817 61.76 111.131 61.724 112.337 61.688C112.607 61.688 112.769 61.796 112.769 62.138C112.769 63.002 112.697 63.866 112.643 64.712C112.607 65.18 112.445 65.378 111.923 65.396C109.943 65.486 106.775 65.558 104.597 65.648C104.597 65.9 104.597 66.188 104.615 66.458C106.829 66.44 109.997 66.368 112.391 66.332C112.751 66.332 112.877 66.548 112.877 66.944C112.877 67.34 112.805 67.7 112.373 67.718C109.565 67.826 106.757 67.862 103.931 67.862C103.085 67.862 102.851 67.592 102.797 66.818C102.761 66.206 102.743 65.594 102.743 64.874C102.743 64.604 102.815 64.424 103.067 64.406C104.975 64.316 109.007 64.226 110.897 64.136C110.915 63.722 110.915 63.596 110.915 63.164C108.791 63.218 105.119 63.38 102.995 63.452C102.617 63.47 102.455 63.326 102.437 62.786C102.419 62.228 102.599 62.048 103.013 62.03C104.075 61.976 105.299 61.922 106.577 61.868L106.577 60.77C104.867 60.824 103.175 60.86 101.681 60.896C101.231 60.914 100.997 60.698 100.997 60.14C100.997 59.618 101.195 59.438 101.699 59.42C105.461 59.276 110.285 59.168 113.561 59.078C114.011 59.06 114.191 59.276 114.191 59.708C114.191 60.266 113.921 60.446 113.525 60.464C112.031 60.554 110.285 60.626 108.503 60.698ZM107.945 54.074L107.945 54.902C109.511 55.496 112.067 56.432 113.363 56.936C113.687 57.062 113.795 57.422 113.525 57.908C113.237 58.43 112.805 58.412 112.391 58.268C111.221 57.872 108.629 56.828 107.153 56.288C105.893 56.99 103.877 58.052 102.671 58.61C102.221 58.808 101.825 58.862 101.519 58.484C101.231 58.124 101.177 57.764 101.519 57.566C102.887 56.774 104.759 55.766 106.019 55.028C106.001 54.794 106.001 54.488 106.001 54.164C104.255 54.236 102.689 54.29 102.023 54.308C101.591 54.326 101.321 54.2 101.303 53.642C101.285 53.066 101.537 52.796 101.897 52.778C102.653 52.76 104.219 52.688 105.947 52.616C105.947 52.328 105.929 52.076 105.929 51.914C105.911 51.356 106.091 51.05 106.865 51.014C107.729 50.96 107.927 51.194 107.945 51.806L107.945 52.544C109.961 52.454 111.869 52.4 112.697 52.364C113.183 52.346 113.399 52.544 113.417 53.12C113.435 53.678 113.219 53.822 112.715 53.858C111.941 53.912 109.997 53.984 107.945 54.074ZM128.999 65.252C128.945 65.936 128.585 66.17 128.081 66.134C127.559 66.098 127.307 65.792 127.307 65.018C127.307 61.022 127.379 57.026 127.523 53.084C127.541 52.436 127.811 52.184 128.531 52.184C129.179 52.184 129.467 52.49 129.467 53.138C129.431 57.062 129.269 61.616 128.999 65.252ZM120.449 60.212C119.045 61.796 117.857 63.218 116.975 63.956C116.615 64.262 116.129 64.136 115.823 63.758C115.535 63.398 115.643 63.092 115.913 62.786C116.831 61.76 118.487 59.87 119.315 58.826C119.297 57.386 119.171 54.668 119.135 53.174C119.117 52.616 119.351 52.31 120.125 52.274C120.989 52.22 121.223 52.454 121.223 53.066C121.241 54.722 121.313 57.062 121.313 58.646C122.663 59.816 124.013 60.806 125.075 61.724C125.417 62.03 125.525 62.372 125.237 62.786C124.949 63.236 124.661 63.452 124.265 63.2C123.239 62.534 121.565 61.238 120.449 60.212ZM147.116 60.788C146.414 60.824 145.478 60.86 144.812 60.896C144.056 61.922 142.85 62.498 141.338 62.552C138.602 62.642 137.054 61.022 137.054 58.052C137.054 55.586 138.512 53.498 141.338 53.39C142.922 53.336 144.092 53.948 144.812 55.01C145.514 54.974 146.45 54.938 147.116 54.92C147.116 54.272 147.116 53.624 147.134 52.976C147.134 52.508 147.386 52.274 148.052 52.274C148.7 52.274 148.952 52.472 148.952 52.922C149.006 57.458 148.934 60.536 148.79 65.072C148.772 65.648 148.502 65.882 147.944 65.882C147.404 65.882 147.152 65.612 147.152 65.036C147.134 63.614 147.134 62.21 147.116 60.788ZM151.814 65.378C151.778 65.918 151.49 66.17 150.95 66.152C150.428 66.134 150.212 65.882 150.212 65.306C150.23 60.734 150.32 57.26 150.464 52.796C150.482 52.346 150.698 52.13 151.364 52.13C152.03 52.148 152.282 52.382 152.282 52.796C152.264 57.332 152.12 60.806 151.814 65.378ZM141.284 60.896C142.958 60.878 143.822 59.582 143.822 57.962C143.822 56.18 142.922 54.992 141.338 55.046C139.628 55.1 138.872 56.45 138.872 58.052C138.872 59.87 139.646 60.914 141.284 60.896ZM147.116 59.186L147.116 56.522C146.63 56.54 146.036 56.558 145.496 56.594C145.586 57.026 145.64 57.512 145.64 58.016C145.64 58.448 145.604 58.862 145.514 59.24C146.072 59.222 146.648 59.204 147.116 59.186ZM167.824 64.604C167.896 66.764 166.294 68.348 163.558 68.456C160.786 68.564 159.274 67.088 159.274 64.874C159.274 62.93 160.642 61.166 163.45 61.022C166.15 60.878 167.752 62.354 167.824 64.604ZM159.238 58.268C158.284 59.204 157.006 60.374 156.124 61.112C155.764 61.418 155.278 61.292 154.972 60.914C154.684 60.554 154.774 60.266 155.062 59.978C155.98 59.078 157.294 57.8 158.122 56.918C158.068 55.784 158.032 54.686 157.996 53.642C156.7 53.714 155.512 53.768 154.864 53.786C154.432 53.804 154.162 53.57 154.144 53.012C154.126 52.436 154.414 52.184 154.792 52.166C156.682 52.058 161.596 51.86 163.432 51.788C163.918 51.77 164.134 51.896 164.152 52.472C164.17 53.03 163.954 53.3 163.45 53.336C162.748 53.372 161.416 53.444 159.976 53.534C159.994 54.452 160.012 55.658 160.012 56.756C161.362 57.512 162.784 58.178 163.846 58.754C164.224 58.97 164.296 59.348 164.008 59.762C163.72 60.212 163.486 60.32 163.09 60.14C162.064 59.672 160.642 59.006 159.238 58.268ZM166.006 56.558C164.926 56.612 163.612 56.648 163.36 56.648C162.856 56.648 162.712 56.36 162.694 55.838C162.676 55.298 162.856 55.046 163.306 55.028C163.612 55.01 164.962 54.956 166.024 54.92C166.042 54.29 166.042 53.678 166.06 53.084C166.06 52.436 166.312 52.184 167.032 52.184C167.68 52.184 167.986 52.49 167.968 53.138C167.932 55.442 167.914 58.934 167.77 60.23C167.698 60.914 167.356 61.076 166.852 61.058C166.33 61.04 166.024 60.896 166.006 60.176C165.988 59.528 165.988 58.142 166.006 56.558ZM165.988 64.622C165.952 63.272 164.944 62.444 163.504 62.516C161.992 62.588 161.092 63.614 161.11 64.82C161.128 66.152 162.046 67.016 163.504 66.962C165.07 66.908 166.024 65.918 165.988 64.622Z" fill="#4A4E53"/>
    <path d="M84.975 40.064L84.7369 39.7426L83.5953 40.5882L85.0104 40.4624L84.975 40.064ZM90.627 39.524L90.6132 39.1242L90.6103 39.1243L90.627 39.524ZM91.527 40.118L91.9269 40.1077L91.9267 40.1037L91.527 40.118ZM90.591 41.108L90.648 41.504L90.6547 41.5029L90.591 41.108ZM83.859 41.666L83.8534 41.266L83.8494 41.2661L83.859 41.666ZM82.761 40.766L83.1581 40.7179L83.1575 40.7131L82.761 40.766ZM83.319 39.398L83.6091 39.6736L83.6171 39.6647L83.319 39.398ZM87.585 35.744L87.8596 36.0348L87.8611 36.0334L87.585 35.744ZM89.817 32.558L89.4181 32.5277L89.4179 32.5305L89.817 32.558ZM86.811 30.344L86.826 30.7437L86.8273 30.7437L86.811 30.344ZM83.769 32.756L83.3871 32.637L83.3845 32.6453L83.3823 32.6536L83.769 32.756ZM82.635 33.386L82.5297 33.7719L82.5332 33.7728L82.635 33.386ZM82.041 32.36L82.4347 32.4303L82.435 32.4287L82.041 32.36ZM86.847 28.652L86.8834 29.0503L86.8834 29.0503L86.847 28.652ZM89.583 36.194L89.3098 35.9018L89.3092 35.9023L89.583 36.194ZM85.0104 40.4624C86.6629 40.3155 89.3572 39.9773 90.6436 39.9237L90.6103 39.1243C89.3047 39.1787 86.527 39.5245 84.9396 39.6656L85.0104 40.4624ZM90.6408 39.9238C90.8896 39.9152 91.0151 39.9434 91.0713 39.9747C91.0899 39.9851 91.0964 39.9932 91.1017 40.0029C91.109 40.0161 91.1244 40.0525 91.1272 40.1323L91.9267 40.1037C91.9138 39.741 91.764 39.4448 91.4606 39.2758C91.2018 39.1316 90.8863 39.1148 90.6132 39.1242L90.6408 39.9238ZM91.1271 40.1283C91.134 40.3982 91.0634 40.4952 91.0087 40.544C90.9316 40.6127 90.7903 40.6707 90.5273 40.7131L90.6547 41.5029C90.9497 41.4553 91.2853 41.3693 91.5412 41.141C91.8195 40.8928 91.9379 40.5398 91.9268 40.1077L91.1271 40.1283ZM90.534 40.7121C88.296 41.0343 86.4058 41.2303 83.8534 41.266L83.8646 42.066C86.4601 42.0297 88.3859 41.8297 90.648 41.5039L90.534 40.7121ZM83.8494 41.2661C83.5224 41.2739 83.3846 41.205 83.3202 41.1474C83.2541 41.0882 83.189 40.9731 83.1581 40.7179L82.3639 40.8141C82.4049 41.1529 82.5109 41.4968 82.7867 41.7436C83.0644 41.992 83.4395 42.0761 83.8685 42.0659L83.8494 41.2661ZM83.1575 40.7131C83.1095 40.3536 83.2964 40.0026 83.609 39.6735L83.029 39.1225C82.6576 39.5134 82.2684 40.0984 82.3645 40.8189L83.1575 40.7131ZM83.6171 39.6647C83.6703 39.6053 83.8864 39.4139 84.2366 39.117C84.5734 38.8315 85.0042 38.4729 85.4584 38.0942C86.3601 37.3424 87.3623 36.5045 87.8596 36.0348L87.3103 35.4532C86.8357 35.9015 85.8578 36.7196 84.9461 37.4798C84.4934 37.8571 84.0592 38.2185 83.7193 38.5068C83.3927 38.7836 83.1207 39.0197 83.0209 39.1313L83.6171 39.6647ZM87.8611 36.0334C88.4453 35.4762 89.0065 34.9213 89.4304 34.367C89.8524 33.8153 90.1721 33.2221 90.216 32.5855L89.4179 32.5305C89.3898 32.9379 89.1785 33.3797 88.795 33.881C88.4135 34.3797 87.8946 34.8958 87.3089 35.4546L87.8611 36.0334ZM90.2158 32.5883C90.2772 31.7798 90.0457 31.0592 89.4257 30.57C88.8274 30.0979 87.9356 29.8976 86.7946 29.9443L86.8273 30.7437C87.8823 30.7004 88.5476 30.8961 88.9302 31.198C89.2912 31.4828 89.4647 31.9142 89.4181 32.5277L90.2158 32.5883ZM86.796 29.9443C85.9642 29.9755 85.2061 30.3527 84.6185 30.8543C84.0326 31.3544 83.5839 32.0052 83.3871 32.637L84.1509 32.875C84.2961 32.4088 84.6483 31.8806 85.1379 31.4627C85.6258 31.0463 86.2177 30.7665 86.826 30.7437L86.796 29.9443ZM83.3823 32.6536C83.3091 32.9303 83.2332 33.0009 83.1964 33.0223C83.1587 33.0443 83.0475 33.081 82.7368 32.9992L82.5332 33.7728C82.9064 33.871 83.2812 33.8987 83.599 33.7137C83.9177 33.5281 84.0669 33.1937 84.1556 32.8584L83.3823 32.6536ZM82.7402 33.0001C82.5104 32.9374 82.458 32.8605 82.4402 32.8242C82.4124 32.7679 82.3942 32.6573 82.4347 32.4303L81.6472 32.2897C81.5977 32.5667 81.5796 32.8881 81.7228 33.1783C81.8759 33.4885 82.1655 33.6726 82.5297 33.7719L82.7402 33.0001ZM82.435 32.4287C82.6711 31.0752 84.0942 29.3054 86.8834 29.0503L86.8105 28.2537C83.6957 28.5386 81.9508 30.5488 81.6469 32.2913L82.435 32.4287ZM86.8834 29.0503C88.1828 28.9314 89.2909 29.2274 90.0638 29.7955C90.8292 30.3582 91.289 31.2024 91.289 32.252L92.089 32.252C92.089 30.9436 91.5047 29.8618 90.5376 29.151C89.578 28.4456 88.2651 28.1206 86.8105 28.2537L86.8834 29.0503ZM91.289 32.252C91.289 33.5159 90.6576 34.6416 89.3098 35.9018L89.8562 36.4862C91.2804 35.1544 92.089 33.8321 92.089 32.252L91.289 32.252ZM89.3092 35.9023C88.15 36.9902 85.6958 39.0322 84.7369 39.7426L85.2131 40.3854C86.1981 39.6558 88.6759 37.5938 89.8567 36.4857L89.3092 35.9023ZM98.7526 41.738L98.7377 41.3383L98.7375 41.3383L98.7526 41.738ZM98.7526 28.67L98.7829 29.0688L98.7836 29.0688L98.7526 28.67ZM98.6806 40.082L98.666 39.6823L98.6642 39.6823L98.6806 40.082ZM98.7526 30.326L98.7803 30.725L98.7832 30.7248L98.7526 30.326ZM98.7375 41.3383C97.4214 41.3879 96.2003 40.8935 95.3033 39.8995C94.4041 38.9032 93.8066 37.3767 93.8066 35.33L93.0066 35.33C93.0066 37.5313 93.651 39.2628 94.7094 40.4355C95.7698 41.6105 97.2217 42.1961 98.7676 42.1377L98.7375 41.3383ZM93.8066 35.33C93.8066 33.4815 94.2967 31.9742 95.15 30.9065C95.9988 29.8445 97.2303 29.187 98.7829 29.0688L98.7222 28.2712C96.9628 28.405 95.5213 29.1605 94.5251 30.407C93.5334 31.6478 93.0066 33.3445 93.0066 35.33L93.8066 35.33ZM98.7836 29.0688C100.277 28.9527 101.488 29.4908 102.338 30.5436C103.2 31.6098 103.717 33.2385 103.717 35.33L104.517 35.33C104.517 33.1195 103.971 31.2922 102.961 30.0409C101.939 28.7762 100.469 28.1353 98.7215 28.2712L98.7836 29.0688ZM103.717 35.33C103.717 37.2723 103.127 38.7466 102.225 39.7439C101.322 40.7415 100.085 41.2881 98.7377 41.3383L98.7675 42.1377C100.318 42.0799 101.763 41.4475 102.818 40.2805C103.874 39.1134 104.517 37.4377 104.517 35.33L103.717 35.33ZM98.6951 40.4817C99.7951 40.4417 100.794 39.9775 101.51 39.0697C102.22 38.1693 102.627 36.8667 102.627 35.186L101.827 35.186C101.827 36.7453 101.45 37.8547 100.882 38.5743C100.32 39.2865 99.5461 39.6503 98.666 39.6823L98.6951 40.4817ZM102.627 35.186C102.627 33.4367 102.213 32.0884 101.506 31.1863C100.791 30.2734 99.7943 29.8447 98.7219 29.9272L98.7832 30.7248C99.5829 30.6633 100.323 30.9726 100.877 31.6797C101.439 32.3976 101.827 33.5513 101.827 35.186L102.627 35.186ZM98.7248 29.927C97.579 30.0067 96.6039 30.5159 95.9251 31.4471C95.2542 32.3674 94.8966 33.6656 94.8966 35.294L95.6966 35.294C95.6966 33.7724 96.0319 32.6586 96.5715 31.9184C97.1032 31.1891 97.8561 30.7893 98.7803 30.725L98.7248 29.927ZM94.8966 35.294C94.8966 37.0365 95.3156 38.3494 96.0142 39.2265C96.7193 40.1117 97.6877 40.5229 98.6969 40.4817L98.6642 39.6823C97.9094 39.7131 97.1858 39.4133 96.6399 38.728C96.0876 38.0346 95.6966 36.9175 95.6966 35.294L94.8966 35.294ZM108.775 40.064L108.537 39.7426L107.395 40.5882L108.81 40.4624L108.775 40.064ZM114.427 39.524L114.413 39.1242L114.41 39.1243L114.427 39.524ZM115.327 40.118L115.727 40.1077L115.727 40.1037L115.327 40.118ZM114.391 41.108L114.448 41.504L114.455 41.5029L114.391 41.108ZM107.659 41.666L107.653 41.266L107.65 41.2661L107.659 41.666ZM106.561 40.766L106.958 40.7179L106.958 40.7131L106.561 40.766ZM107.119 39.398L107.409 39.6736L107.417 39.6647L107.119 39.398ZM111.385 35.744L111.66 36.0348L111.661 36.0334L111.385 35.744ZM113.617 32.558L113.218 32.5277L113.218 32.5305L113.617 32.558ZM110.611 30.344L110.626 30.7437L110.627 30.7437L110.611 30.344ZM107.569 32.756L107.187 32.637L107.185 32.6453L107.182 32.6536L107.569 32.756ZM106.435 33.386L106.33 33.7719L106.333 33.7728L106.435 33.386ZM105.841 32.36L106.235 32.4303L106.235 32.4287L105.841 32.36ZM110.647 28.652L110.683 29.0503L110.683 29.0503L110.647 28.652ZM113.383 36.194L113.11 35.9018L113.109 35.9023L113.383 36.194ZM108.81 40.4624C110.463 40.3155 113.157 39.9773 114.444 39.9237L114.41 39.1243C113.105 39.1787 110.327 39.5245 108.74 39.6656L108.81 40.4624ZM114.441 39.9238C114.69 39.9152 114.815 39.9434 114.871 39.9747C114.89 39.9851 114.896 39.9932 114.902 40.0029C114.909 40.0161 114.924 40.0525 114.927 40.1323L115.727 40.1037C115.714 39.741 115.564 39.4448 115.261 39.2758C115.002 39.1316 114.686 39.1148 114.413 39.1242L114.441 39.9238ZM114.927 40.1283C114.934 40.3982 114.863 40.4952 114.809 40.544C114.732 40.6127 114.59 40.6707 114.327 40.7131L114.455 41.5029C114.75 41.4553 115.085 41.3693 115.341 41.141C115.62 40.8928 115.738 40.5398 115.727 40.1077L114.927 40.1283ZM114.334 40.7121C112.096 41.0343 110.206 41.2303 107.653 41.266L107.665 42.066C110.26 42.0297 112.186 41.8297 114.448 41.5039L114.334 40.7121ZM107.65 41.2661C107.322 41.2739 107.185 41.205 107.12 41.1474C107.054 41.0882 106.989 40.9731 106.958 40.7179L106.164 40.8141C106.205 41.1529 106.311 41.4968 106.587 41.7436C106.864 41.992 107.24 42.0761 107.669 42.0659L107.65 41.2661ZM106.958 40.7131C106.91 40.3536 107.096 40.0026 107.409 39.6735L106.829 39.1225C106.458 39.5134 106.068 40.0984 106.165 40.8189L106.958 40.7131ZM107.417 39.6647C107.47 39.6053 107.687 39.4139 108.037 39.117C108.373 38.8315 108.804 38.4729 109.258 38.0942C110.16 37.3424 111.162 36.5045 111.66 36.0348L111.11 35.4532C110.636 35.9015 109.658 36.7196 108.746 37.4798C108.294 37.8571 107.859 38.2185 107.519 38.5068C107.193 38.7836 106.921 39.0197 106.821 39.1313L107.417 39.6647ZM111.661 36.0334C112.245 35.4762 112.807 34.9213 113.23 34.367C113.653 33.8153 113.972 33.2221 114.016 32.5855L113.218 32.5305C113.19 32.9379 112.979 33.3797 112.595 33.881C112.214 34.3797 111.695 34.8958 111.109 35.4546L111.661 36.0334ZM114.016 32.5883C114.077 31.7798 113.846 31.0592 113.226 30.57C112.627 30.0979 111.736 29.8976 110.595 29.9443L110.627 30.7437C111.682 30.7004 112.348 30.8961 112.73 31.198C113.091 31.4828 113.265 31.9142 113.218 32.5277L114.016 32.5883ZM110.596 29.9443C109.764 29.9755 109.006 30.3527 108.419 30.8543C107.833 31.3544 107.384 32.0052 107.187 32.637L107.951 32.875C108.096 32.4088 108.448 31.8806 108.938 31.4627C109.426 31.0463 110.018 30.7665 110.626 30.7437L110.596 29.9443ZM107.182 32.6536C107.109 32.9303 107.033 33.0009 106.997 33.0223C106.959 33.0443 106.848 33.081 106.537 32.9992L106.333 33.7728C106.706 33.871 107.081 33.8987 107.399 33.7137C107.718 33.5281 107.867 33.1937 107.956 32.8584L107.182 32.6536ZM106.54 33.0001C106.311 32.9374 106.258 32.8605 106.24 32.8242C106.212 32.7679 106.194 32.6573 106.235 32.4303L105.447 32.2897C105.398 32.5667 105.38 32.8881 105.523 33.1783C105.676 33.4885 105.966 33.6726 106.33 33.7719L106.54 33.0001ZM106.235 32.4287C106.471 31.0752 107.894 29.3054 110.683 29.0503L110.611 28.2537C107.496 28.5386 105.751 30.5488 105.447 32.2913L106.235 32.4287ZM110.683 29.0503C111.983 28.9314 113.091 29.2274 113.864 29.7955C114.629 30.3582 115.089 31.2024 115.089 32.252L115.889 32.252C115.889 30.9436 115.305 29.8618 114.338 29.151C113.378 28.4456 112.065 28.1206 110.611 28.2537L110.683 29.0503ZM115.089 32.252C115.089 33.5159 114.458 34.6416 113.11 35.9018L113.656 36.4862C115.08 35.1544 115.889 33.8321 115.889 32.252L115.089 32.252ZM113.109 35.9023C111.95 36.9902 109.496 39.0322 108.537 39.7426L109.013 40.3854C109.998 39.6558 112.476 37.5938 113.657 36.4857L113.109 35.9023ZM119.151 30.488L119.129 30.0886L118.756 30.1091L118.751 30.4826L119.151 30.488ZM119.097 34.484L118.697 34.4786L118.684 35.4078L119.368 34.7782L119.097 34.484ZM122.283 33.368L122.271 33.7678L122.272 33.7679L122.283 33.368ZM125.901 37.562L126.3 37.5766L126.3 37.5761L125.901 37.562ZM117.585 39.74L117.954 39.5874L117.954 39.5862L117.585 39.74ZM117.927 38.318L118.123 38.6667L118.128 38.6635L117.927 38.318ZM118.935 38.588L118.574 38.7619L118.575 38.7632L118.935 38.588ZM121.707 40.1L121.693 39.7002L121.691 39.7003L121.707 40.1ZM124.101 37.274L124.501 37.2693L124.501 37.2687L124.101 37.274ZM119.115 35.96L119.347 36.2855L119.354 36.2807L119.36 36.2757L119.115 35.96ZM117.405 35.474L117.005 35.4814L117.005 35.4825L117.405 35.474ZM117.873 28.814L117.86 28.4141L117.853 28.4145L117.873 28.814ZM125.955 29.372L125.555 29.3587L125.555 29.3609L125.955 29.372ZM125.271 30.2L125.3 30.5989L125.301 30.5988L125.271 30.2ZM118.751 30.4826L118.697 34.4786L119.497 34.4894L119.551 30.4934L118.751 30.4826ZM119.368 34.7782C119.972 34.2212 121.148 33.7348 122.271 33.7678L122.294 32.9682C120.969 32.9292 119.589 33.4868 118.826 34.1898L119.368 34.7782ZM122.272 33.7679C123.225 33.7923 124.045 34.1607 124.618 34.7949C125.191 35.4291 125.543 36.3581 125.501 37.5479L126.3 37.5761C126.348 36.2099 125.944 35.0689 125.212 34.2586C124.48 33.4483 123.446 32.9977 122.293 32.9681L122.272 33.7679ZM125.501 37.5474C125.459 38.691 125.048 39.6338 124.381 40.2893C123.714 40.944 122.765 41.338 121.599 41.338L121.599 42.138C122.952 42.138 124.109 41.677 124.941 40.8602C125.772 40.0442 126.252 38.899 126.3 37.5766L125.501 37.5474ZM121.599 41.338C120.75 41.338 119.925 41.1357 119.264 40.8063C118.595 40.473 118.138 40.0329 117.954 39.5874L117.215 39.8926C117.499 40.5811 118.14 41.14 118.907 41.5222C119.682 41.9083 120.629 42.138 121.599 42.138L121.599 41.338ZM117.954 39.5862C117.829 39.2859 117.807 39.1024 117.83 38.9867C117.848 38.8976 117.905 38.7891 118.123 38.6666L117.731 37.9694C117.372 38.1709 117.123 38.4494 117.046 38.8283C116.975 39.1806 117.07 39.5461 117.215 39.8938L117.954 39.5862ZM118.128 38.6635C118.325 38.5488 118.403 38.5516 118.419 38.5548C118.42 38.5551 118.431 38.5562 118.455 38.5791C118.483 38.6056 118.525 38.6593 118.574 38.7619L119.295 38.4141C119.144 38.1014 118.92 37.8402 118.578 37.7707C118.26 37.7064 117.96 37.8352 117.725 37.9725L118.128 38.6635ZM118.575 38.7632C118.983 39.5999 120.205 40.5604 121.723 40.4997L121.691 39.7003C120.508 39.7476 119.571 38.9801 119.294 38.4128L118.575 38.7632ZM121.721 40.4997C122.598 40.4688 123.311 40.0976 123.795 39.4988C124.274 38.9068 124.51 38.1178 124.501 37.2693L123.701 37.2786C123.709 37.9782 123.513 38.5752 123.173 38.9957C122.838 39.4094 122.345 39.6772 121.693 39.7002L121.721 40.4997ZM124.501 37.2687C124.491 36.5212 124.271 35.8392 123.819 35.3389C123.363 34.8325 122.705 34.552 121.905 34.552L121.905 35.352C122.508 35.352 122.939 35.5575 123.225 35.8746C123.517 36.1978 123.693 36.6768 123.701 37.2793L124.501 37.2687ZM121.905 34.552C120.136 34.552 119.032 35.5176 118.869 35.6443L119.36 36.2757C119.521 36.1504 120.433 35.352 121.905 35.352L121.905 34.552ZM118.882 35.6345C118.577 35.8523 118.273 35.8973 118.081 35.8488C117.988 35.8256 117.926 35.7833 117.885 35.7327C117.845 35.683 117.807 35.6013 117.805 35.4655L117.005 35.4825C117.011 35.7697 117.097 36.0278 117.261 36.2329C117.425 36.4371 117.647 36.5646 117.885 36.6247C118.354 36.7427 118.896 36.6077 119.347 36.2855L118.882 35.6345ZM117.805 35.4666C117.787 34.497 117.751 31.0975 117.751 29.3L116.951 29.3C116.951 31.1025 116.987 34.507 117.005 35.4814L117.805 35.4666ZM117.751 29.3C117.751 29.2577 117.756 29.2374 117.758 29.2316C117.76 29.2281 117.758 29.2334 117.752 29.2394C117.74 29.2503 117.761 29.2201 117.893 29.2135L117.853 28.4145C117.624 28.4259 117.384 28.4857 117.202 28.6586C117.011 28.8389 116.951 29.0773 116.951 29.3L117.751 29.3ZM117.885 29.2138C120.714 29.1237 122.237 29.052 125.343 29.052L125.343 28.252C122.221 28.252 120.683 28.3243 117.86 28.4142L117.885 29.2138ZM125.343 29.052C125.462 29.052 125.497 29.0819 125.505 29.0895C125.511 29.0959 125.562 29.1514 125.555 29.3587L126.354 29.3853C126.366 29.0526 126.29 28.7481 126.076 28.5295C125.863 28.3121 125.583 28.252 125.343 28.252L125.343 29.052ZM125.555 29.3609C125.546 29.6674 125.493 29.7378 125.485 29.7467C125.485 29.7468 125.457 29.7845 125.24 29.8012L125.301 30.5988C125.552 30.5795 125.857 30.5272 126.078 30.2843C126.29 30.0502 126.345 29.7246 126.354 29.3831L125.555 29.3609ZM125.242 29.8011C123.512 29.9272 120.793 29.9972 119.129 30.0886L119.173 30.8874C120.784 30.7988 123.573 30.7248 125.3 30.5989L125.242 29.8011ZM138.994 33.962L139.394 33.9662L139.398 33.5446L138.977 33.5624L138.994 33.962ZM134.71 33.278L134.31 33.2913L134.31 33.2918L134.71 33.278ZM135.322 32.486L135.338 32.8857L135.342 32.8855L135.322 32.486ZM138.994 32.36L139.005 32.7598L139.394 32.7487L139.394 32.36L138.994 32.36ZM139.012 31.154L139.412 31.154L139.412 30.7365L138.994 30.7544L139.012 31.154ZM134.674 30.47L134.274 30.4833L134.274 30.4838L134.674 30.47ZM135.286 29.678L135.302 30.0777L135.306 30.0775L135.286 29.678ZM139.03 29.534L139.041 29.9338L139.43 29.9227L139.43 29.534L139.03 29.534ZM140.956 29.138L140.556 29.1269L140.556 29.1317L140.956 29.138ZM140.758 37.85L140.36 37.8058L140.36 37.8081L140.758 37.85ZM139.84 38.678L139.854 38.2783L139.853 38.2782L139.84 38.678ZM138.994 37.796L139.393 37.786L139.393 37.7831L138.994 37.796ZM136.636 36.824L136.594 36.4261L136.585 36.4272L136.636 36.824ZM129.976 37.31L129.969 36.91L129.966 36.9101L129.976 37.31ZM128.626 36.248L129.024 36.2188L129.024 36.2157L128.626 36.248ZM128.32 29.192L128.72 29.185L128.719 29.1782L128.32 29.192ZM129.256 28.346L129.227 27.947L129.223 27.9473L129.256 28.346ZM130.318 29.066L129.918 29.0785L129.918 29.0832L130.318 29.066ZM130.498 35.42L130.898 35.42L130.897 35.4059L130.498 35.42ZM130.678 35.618L130.678 36.018L130.688 36.018L130.698 36.0175L130.678 35.618ZM136.51 35.312L136.492 34.9123L136.486 34.9127L136.51 35.312ZM137.212 36.068L136.812 36.0791L136.812 36.0834L137.212 36.068ZM140.29 43.394L140.267 42.9945L140.259 42.9951L140.29 43.394ZM132.442 43.7L132.442 44.1L132.445 44.1L132.442 43.7ZM131.47 42.656L131.869 42.6318L131.869 42.6314L131.47 42.656ZM132.244 38.462L132.264 38.8615L132.244 38.462ZM133.288 39.128L133.687 39.1189L133.687 39.1147L133.288 39.128ZM133.324 41.882L133.724 41.882L133.723 41.8712L133.324 41.882ZM133.504 42.098L133.504 42.4981L133.511 42.4979L133.504 42.098ZM138.977 33.5624C137.7 33.6163 135.655 33.67 135.376 33.67L135.376 34.47C135.672 34.47 137.731 34.4157 139.01 34.3616L138.977 33.5624ZM135.376 33.67C135.283 33.67 135.233 33.6573 135.208 33.6477C135.189 33.64 135.183 33.6335 135.178 33.6272C135.157 33.5995 135.118 33.5109 135.109 33.2642L134.31 33.2918C134.319 33.5671 134.361 33.8745 134.542 34.1123C134.747 34.3803 135.052 34.47 135.376 34.47L135.376 33.67ZM135.109 33.2647C135.101 33.0249 135.144 32.9475 135.157 32.9307C135.16 32.9263 135.166 32.9196 135.186 32.9112C135.21 32.9012 135.257 32.8889 135.338 32.8857L135.306 32.0863C135.017 32.0978 134.723 32.1836 134.523 32.4418C134.338 32.6815 134.3 32.9911 134.31 33.2913L135.109 33.2647ZM135.342 32.8855C135.697 32.8677 137.745 32.7958 139.005 32.7598L138.982 31.9602C137.722 31.9962 135.666 32.0683 135.302 32.0865L135.342 32.8855ZM139.394 32.36C139.394 32.1582 139.398 31.9601 139.402 31.7592C139.407 31.5599 139.412 31.3573 139.412 31.154L138.612 31.154C138.612 31.3467 138.607 31.5401 138.603 31.7413C138.598 31.9409 138.594 32.1478 138.594 32.36L139.394 32.36ZM138.994 30.7544C137.736 30.8083 135.619 30.862 135.34 30.862L135.34 31.662C135.636 31.662 137.767 31.6077 139.029 31.5536L138.994 30.7544ZM135.34 30.862C135.247 30.862 135.197 30.8493 135.172 30.8397C135.153 30.832 135.147 30.8255 135.142 30.8192C135.121 30.7915 135.082 30.7029 135.073 30.4562L134.274 30.4838C134.283 30.7591 134.325 31.0665 134.506 31.3043C134.711 31.5723 135.016 31.662 135.34 31.662L135.34 30.862ZM135.073 30.4567C135.065 30.2169 135.108 30.1395 135.121 30.1227C135.124 30.1183 135.13 30.1116 135.15 30.1033C135.174 30.0932 135.221 30.0809 135.302 30.0777L135.27 29.2783C134.981 29.2898 134.687 29.3756 134.487 29.6338C134.302 29.8735 134.264 30.1831 134.274 30.4833L135.073 30.4567ZM135.306 30.0775C135.663 30.0596 137.784 29.9697 139.041 29.9338L139.018 29.1342C137.755 29.1703 135.628 29.2604 135.266 29.2785L135.306 30.0775ZM139.43 29.534C139.43 29.4759 139.433 29.4115 139.438 29.3325C139.442 29.2585 139.448 29.1699 139.448 29.084L138.648 29.084C138.648 29.1421 138.644 29.2065 138.639 29.2855C138.635 29.3595 138.63 29.4481 138.63 29.534L139.43 29.534ZM139.448 29.084C139.448 28.7964 139.506 28.7117 139.538 28.6823C139.576 28.6463 139.687 28.584 140.02 28.584L140.02 27.784C139.632 27.784 139.257 27.8477 138.989 28.0997C138.715 28.3583 138.648 28.7236 138.648 29.084L139.448 29.084ZM140.02 28.584C140.289 28.584 140.402 28.6481 140.452 28.6988C140.501 28.7484 140.563 28.8603 140.556 29.1269L141.355 29.1491C141.366 28.7677 141.284 28.4026 141.022 28.1372C140.762 27.8729 140.398 27.784 140.02 27.784L140.02 28.584ZM140.556 29.1317C140.547 29.7089 140.539 30.4617 140.53 31.2846C140.521 32.1081 140.511 33.0028 140.497 33.8657C140.47 35.6029 140.429 37.1815 140.36 37.8058L141.155 37.8942C141.23 37.2225 141.27 35.5971 141.297 33.8782C141.31 33.0132 141.321 32.1169 141.33 31.2934C141.339 30.4693 141.347 29.7191 141.355 29.1442L140.556 29.1317ZM140.36 37.8081C140.33 38.094 140.252 38.1821 140.213 38.2127C140.167 38.2492 140.072 38.286 139.854 38.2783L139.825 39.0777C140.111 39.088 140.439 39.0527 140.708 38.8418C140.984 38.6249 141.113 38.29 141.155 37.8919L140.36 37.8081ZM139.853 38.2782C139.606 38.2697 139.525 38.2299 139.494 38.2015C139.472 38.1823 139.401 38.1032 139.393 37.786L138.594 37.806C138.604 38.2088 138.695 38.5617 138.961 38.799C139.218 39.0271 139.551 39.0683 139.826 39.0778L139.853 38.2782ZM139.393 37.7831C139.376 37.2351 139.375 35.6958 139.394 33.9662L138.594 33.9578C138.576 35.6842 138.575 37.2409 138.594 37.8089L139.393 37.7831ZM136.585 36.4272C134.887 36.6417 132.094 36.8743 129.969 36.9101L129.982 37.7099C132.141 37.6737 134.964 37.4383 136.686 37.2208L136.585 36.4272ZM129.966 36.9101C129.623 36.9179 129.4 36.8457 129.265 36.7436C129.142 36.6503 129.045 36.4959 129.024 36.2188L128.227 36.2772C128.26 36.7381 128.442 37.1237 128.782 37.3814C129.111 37.6303 129.536 37.7201 129.985 37.7099L129.966 36.9101ZM129.024 36.2157C128.863 34.2299 128.755 31.2334 128.719 29.185L127.92 29.199C127.956 31.2546 128.064 34.2701 128.227 36.2803L129.024 36.2157ZM128.719 29.1782C128.71 28.9022 128.742 28.8732 128.745 28.8708C128.757 28.8571 128.85 28.7804 129.288 28.7447L129.223 27.9473C128.779 27.9836 128.395 28.0689 128.155 28.3297C127.906 28.6018 127.911 28.9598 127.92 29.2058L128.719 29.1782ZM129.284 28.745C129.647 28.719 129.789 28.7667 129.838 28.8005C129.854 28.8114 129.911 28.8487 129.918 29.0785L130.717 29.0535C130.707 28.7073 130.61 28.3576 130.288 28.139C130 27.9433 129.62 27.919 129.227 27.947L129.284 28.745ZM129.918 29.0832C130.008 31.1782 130.043 33.8807 130.098 35.4341L130.897 35.4059C130.844 33.8993 130.807 31.1298 130.717 29.0488L129.918 29.0832ZM130.098 35.42C130.098 35.5581 130.138 35.7142 130.255 35.8392C130.374 35.9669 130.532 36.018 130.678 36.018L130.678 35.218C130.715 35.218 130.783 35.2331 130.839 35.2933C130.893 35.3508 130.898 35.4079 130.898 35.42L130.098 35.42ZM130.698 36.0175C132.496 35.9276 134.731 35.8194 136.533 35.7113L136.486 34.9127C134.688 35.0206 132.459 35.1284 130.658 35.2185L130.698 36.0175ZM136.527 35.7116C136.707 35.7038 136.74 35.7364 136.74 35.7365C136.741 35.7368 136.804 35.7934 136.812 36.0791L137.611 36.0569C137.601 35.6946 137.521 35.3642 137.278 35.144C137.035 34.9236 136.726 34.9022 136.492 34.9124L136.527 35.7116ZM136.812 36.0834C136.818 36.2429 136.777 36.32 136.749 36.3541C136.722 36.3872 136.676 36.4175 136.594 36.4262L136.677 37.2218C136.937 37.1945 137.188 37.0808 137.368 36.8619C137.547 36.644 137.623 36.3611 137.611 36.0526L136.812 36.0834ZM140.259 42.9951C137.895 43.1743 134.664 43.2821 132.438 43.3L132.445 44.1C134.683 44.0819 137.933 43.9737 140.32 43.7929L140.259 42.9951ZM132.442 43.3C132.267 43.3 132.142 43.2355 132.052 43.1346C131.956 43.0273 131.882 42.8573 131.869 42.6318L131.07 42.6802C131.093 43.0487 131.217 43.4007 131.454 43.6669C131.697 43.9395 132.04 44.1 132.442 44.1L132.442 43.3ZM131.869 42.6314C131.779 41.1761 131.744 40.5737 131.744 39.2L130.944 39.2C130.944 40.5983 130.98 41.2199 131.07 42.6806L131.869 42.6314ZM131.744 39.2C131.744 39.0852 131.755 39.0204 131.766 38.9846C131.775 38.9567 131.782 38.953 131.784 38.9514C131.791 38.9453 131.82 38.925 131.902 38.9051C131.984 38.885 132.1 38.8699 132.264 38.8615L132.223 38.0625C131.873 38.0805 131.525 38.1292 131.277 38.3326C130.996 38.5631 130.944 38.8975 130.944 39.2L131.744 39.2ZM132.264 38.8615C132.603 38.8441 132.753 38.884 132.815 38.9212C132.832 38.9318 132.882 38.9553 132.888 39.1413L133.687 39.1147C133.676 38.7607 133.554 38.4332 133.229 38.2368C132.949 38.067 132.586 38.0439 132.223 38.0625L132.264 38.8615ZM132.888 39.1371C132.897 39.5297 132.901 40.0484 132.906 40.5558C132.91 41.0606 132.915 41.5553 132.924 41.8928L133.723 41.8712C133.715 41.5427 133.71 41.0564 133.706 40.5487C133.701 40.0436 133.697 39.5183 133.687 39.1189L132.888 39.1371ZM132.924 41.882C132.924 41.9935 132.946 42.1464 133.049 42.2802C133.164 42.4314 133.335 42.498 133.504 42.498L133.504 41.698C133.52 41.698 133.551 41.701 133.588 41.7181C133.627 41.7358 133.66 41.763 133.684 41.7943C133.728 41.8516 133.724 41.8965 133.724 41.882L132.924 41.882ZM133.511 42.4979C135.378 42.4613 138.451 42.3 140.272 42.3L140.272 41.5C138.456 41.5 135.301 41.6627 133.496 41.6981L133.511 42.4979ZM140.272 42.3C140.369 42.3 140.428 42.3102 140.464 42.3213C140.495 42.331 140.501 42.3396 140.502 42.3403C140.507 42.346 140.556 42.4061 140.556 42.656L141.356 42.656C141.356 42.3479 141.305 42.03 141.089 41.7972C140.866 41.5556 140.555 41.5 140.272 41.5L140.272 42.3ZM140.556 42.656C140.556 42.8104 140.507 42.8811 140.469 42.9167C140.424 42.9595 140.353 42.9899 140.267 42.9946L140.312 43.7934C140.55 43.7801 140.812 43.6935 141.019 43.4978C141.233 43.2949 141.356 43.0056 141.356 42.656L140.556 42.656ZM108.503 60.698L108.487 60.2983L108.103 60.3138L108.103 60.698L108.503 60.698ZM108.503 61.796L108.103 61.796L108.103 62.2071L108.514 62.1959L108.503 61.796ZM112.337 61.688L112.337 61.2878L112.325 61.2882L112.337 61.688ZM112.643 64.712L113.042 64.7427L113.042 64.7375L112.643 64.712ZM111.923 65.396L111.909 64.9962L111.905 64.9964L111.923 65.396ZM104.597 65.648L104.58 65.2483L104.197 65.2642L104.197 65.648L104.597 65.648ZM104.615 66.458L104.216 66.4846L104.241 66.8611L104.618 66.858L104.615 66.458ZM112.391 66.332L112.391 65.932L112.385 65.932L112.391 66.332ZM112.373 67.718L112.388 68.1177L112.39 68.1177L112.373 67.718ZM102.797 66.818L102.398 66.8415L102.398 66.8458L102.797 66.818ZM103.067 64.406L103.048 64.0063L103.038 64.007L103.067 64.406ZM110.897 64.136L110.916 64.5355L111.281 64.5182L111.296 64.1534L110.897 64.136ZM110.915 63.164L111.315 63.164L111.315 62.7537L110.905 62.7641L110.915 63.164ZM102.995 63.452L102.981 63.0522L102.976 63.0525L102.995 63.452ZM102.437 62.786L102.037 62.7989L102.037 62.7993L102.437 62.786ZM103.013 62.03L103.03 62.4296L103.033 62.4295L103.013 62.03ZM106.577 61.868L106.594 62.2676L106.977 62.2515L106.977 61.868L106.577 61.868ZM106.577 60.77L106.977 60.77L106.977 60.3572L106.564 60.3702L106.577 60.77ZM101.681 60.896L101.671 60.4961L101.665 60.4963L101.681 60.896ZM101.699 59.42L101.713 59.8197L101.714 59.8197L101.699 59.42ZM113.561 59.078L113.572 59.4779L113.577 59.4777L113.561 59.078ZM113.525 60.464L113.507 60.0644L113.501 60.0647L113.525 60.464ZM107.945 54.074L107.927 53.6744L107.545 53.6912L107.545 54.074L107.945 54.074ZM107.945 54.902L107.545 54.902L107.545 55.1781L107.803 55.276L107.945 54.902ZM113.525 57.908L113.175 57.7137L113.175 57.7148L113.525 57.908ZM112.391 58.268L112.522 57.8902L112.519 57.8891L112.391 58.268ZM107.153 56.288L107.29 55.9123L107.118 55.8494L106.958 55.9386L107.153 56.288ZM102.671 58.61L102.832 58.9762L102.839 58.973L102.671 58.61ZM101.519 58.484L101.207 58.7339L101.208 58.7357L101.519 58.484ZM101.519 57.566L101.318 57.2198L101.519 57.566ZM106.019 55.028L106.221 55.3732L106.437 55.2467L106.418 54.9973L106.019 55.028ZM106.001 54.164L106.401 54.164L106.401 53.7472L105.984 53.7643L106.001 54.164ZM102.023 54.308L102.012 53.9081L102.006 53.9083L102.023 54.308ZM101.303 53.642L100.903 53.6545L100.903 53.6549L101.303 53.642ZM101.897 52.778L101.887 52.378L101.877 52.3785L101.897 52.778ZM105.947 52.616L105.964 53.0157L106.347 52.9997L106.347 52.616L105.947 52.616ZM105.929 51.914L106.329 51.914L106.329 51.9011L105.929 51.914ZM106.865 51.014L106.883 51.4136L106.89 51.4132L106.865 51.014ZM107.945 51.806L108.345 51.806L108.345 51.7942L107.945 51.806ZM107.945 52.544L107.545 52.544L107.545 52.9623L107.963 52.9436L107.945 52.544ZM112.697 52.364L112.682 51.9643L112.679 51.9644L112.697 52.364ZM113.417 53.12L113.017 53.1325L113.017 53.1329L113.417 53.12ZM112.715 53.858L112.743 54.257L112.743 54.257L112.715 53.858ZM108.103 60.698L108.103 61.796L108.903 61.796L108.903 60.698L108.103 60.698ZM108.514 62.1959C109.828 62.1599 111.142 62.1238 112.349 62.0878L112.325 61.2882C111.12 61.3242 109.806 61.3601 108.492 61.3961L108.514 62.1959ZM112.337 62.088C112.38 62.088 112.4 62.0925 112.406 62.0943C112.41 62.0954 112.397 62.0919 112.38 62.0763C112.373 62.069 112.367 62.0617 112.363 62.0557C112.36 62.0499 112.359 62.0473 112.36 62.0499C112.362 62.0564 112.369 62.0823 112.369 62.138L113.169 62.138C113.169 61.9118 113.116 61.6695 112.928 61.4932C112.745 61.3213 112.513 61.288 112.337 61.288L112.337 62.088ZM112.369 62.138C112.369 62.9853 112.298 63.8298 112.244 64.6865L113.042 64.7375C113.095 63.9022 113.169 63.0187 113.169 62.138L112.369 62.138ZM112.244 64.6813C112.228 64.8897 112.188 64.934 112.182 64.9399C112.179 64.9427 112.134 64.9885 111.909 64.9962L111.937 65.7958C112.233 65.7855 112.53 65.7233 112.748 65.5056C112.963 65.291 113.022 65.0023 113.042 64.7427L112.244 64.6813ZM111.905 64.9964C109.912 65.087 106.785 65.1573 104.58 65.2483L104.613 66.0477C106.765 65.9587 109.974 65.885 111.941 65.7956L111.905 64.9964ZM104.197 65.648C104.197 65.8976 104.197 66.199 104.216 66.4846L105.014 66.4314C104.997 66.177 104.997 65.9024 104.997 65.648L104.197 65.648ZM104.618 66.858C106.833 66.84 110.009 66.7679 112.397 66.732L112.385 65.932C109.985 65.9681 106.824 66.04 104.612 66.058L104.618 66.858ZM112.391 66.732C112.442 66.732 112.462 66.7399 112.463 66.7403C112.463 66.7403 112.46 66.739 112.456 66.7357C112.451 66.7324 112.449 66.7291 112.447 66.7273C112.445 66.724 112.453 66.7337 112.462 66.7708C112.47 66.8085 112.477 66.8644 112.477 66.944L113.277 66.944C113.277 66.7196 113.244 66.4599 113.091 66.2517C112.917 66.0163 112.655 65.932 112.391 65.932L112.391 66.732ZM112.477 66.944C112.477 67.0325 112.473 67.1074 112.463 67.17C112.454 67.2332 112.441 67.271 112.43 67.2916C112.425 67.301 112.422 67.3051 112.421 67.3062C112.421 67.3068 112.42 67.3069 112.421 67.3068C112.421 67.3066 112.421 67.3065 112.421 67.3066C112.421 67.3066 112.42 67.3071 112.418 67.3079C112.417 67.3086 112.414 67.3098 112.409 67.3111C112.4 67.3138 112.383 67.3172 112.356 67.3183L112.39 68.1177C112.553 68.1108 112.71 68.0701 112.847 67.9837C112.985 67.8968 113.08 67.7786 113.143 67.6539C113.261 67.4217 113.277 67.1497 113.277 66.944L112.477 66.944ZM112.357 67.3183C109.556 67.426 106.754 67.462 103.931 67.462L103.931 68.262C106.76 68.262 109.574 68.226 112.388 68.1177L112.357 67.3183ZM103.931 67.462C103.529 67.462 103.397 67.3926 103.344 67.3418C103.289 67.2887 103.222 67.1639 103.196 66.7902L102.398 66.8458C102.426 67.2461 102.503 67.6433 102.79 67.9187C103.079 68.1964 103.487 68.262 103.931 68.262L103.931 67.462ZM103.196 66.7945C103.161 66.191 103.143 65.5868 103.143 64.874L102.343 64.874C102.343 65.6012 102.361 66.221 102.398 66.8415L103.196 66.7945ZM103.143 64.874C103.143 64.8228 103.146 64.788 103.151 64.7656C103.155 64.7433 103.158 64.7432 103.152 64.7541C103.148 64.76 103.142 64.7681 103.133 64.7767C103.125 64.7853 103.115 64.7924 103.105 64.7978C103.086 64.8086 103.078 64.8062 103.095 64.805L103.038 64.007C102.806 64.0236 102.597 64.1277 102.469 64.3369C102.361 64.5141 102.343 64.7179 102.343 64.874L103.143 64.874ZM103.086 64.8056C104.036 64.7608 105.516 64.7159 107.001 64.6708C108.482 64.6259 109.967 64.5808 110.916 64.5355L110.878 63.7365C109.937 63.7812 108.461 63.8261 106.976 63.8712C105.495 63.9161 104.006 63.9612 103.048 64.0064L103.086 64.8056ZM111.296 64.1534C111.315 63.7311 111.315 63.5986 111.315 63.164L110.515 63.164C110.515 63.5934 110.515 63.7129 110.497 64.1186L111.296 64.1534ZM110.905 62.7641C108.78 62.8181 105.096 62.9805 102.981 63.0522L103.008 63.8518C105.141 63.7795 108.802 63.6179 110.925 63.5639L110.905 62.7641ZM102.976 63.0525C102.826 63.0596 102.848 63.0263 102.88 63.0625C102.888 63.0718 102.878 63.0662 102.865 63.0179C102.852 62.9686 102.841 62.891 102.837 62.7727L102.037 62.7993C102.047 63.0828 102.092 63.3804 102.282 63.594C102.494 63.8327 102.786 63.8624 103.014 63.8515L102.976 63.0525ZM102.837 62.7731C102.828 62.5188 102.873 62.4581 102.874 62.4568C102.874 62.4568 102.874 62.4569 102.874 62.4571C102.874 62.4572 102.874 62.4574 102.873 62.4576C102.873 62.458 102.873 62.4582 102.873 62.4581C102.873 62.4579 102.877 62.4553 102.886 62.4517C102.908 62.4435 102.952 62.433 103.03 62.4296L102.995 61.6304C102.744 61.6413 102.453 61.7047 102.252 61.9542C102.064 62.1869 102.027 62.4952 102.037 62.7989L102.837 62.7731ZM103.033 62.4295C104.093 62.3756 105.316 62.3216 106.594 62.2676L106.56 61.4684C105.282 61.5224 104.056 61.5764 102.993 61.6305L103.033 62.4295ZM106.977 61.868L106.977 60.77L106.177 60.77L106.177 61.868L106.977 61.868ZM106.564 60.3702C104.856 60.4241 103.167 60.4601 101.671 60.4961L101.69 61.2959C103.183 61.2599 104.878 61.2239 106.589 61.1698L106.564 60.3702ZM101.665 60.4963C101.5 60.5029 101.465 60.4636 101.461 60.4594C101.448 60.4461 101.397 60.3758 101.397 60.14L100.597 60.14C100.597 60.4622 100.662 60.7789 100.879 61.0086C101.105 61.2474 101.411 61.3071 101.697 61.2957L101.665 60.4963ZM101.397 60.14C101.397 60.0321 101.407 59.9638 101.42 59.9219C101.431 59.8837 101.441 59.8744 101.442 59.8738C101.444 59.8716 101.489 59.8277 101.713 59.8197L101.685 59.0203C101.404 59.0303 101.099 59.0854 100.876 59.3082C100.65 59.5341 100.597 59.8437 100.597 60.14L101.397 60.14ZM101.714 59.8197C105.473 59.6758 110.292 59.5679 113.572 59.4778L113.55 58.6781C110.277 58.7681 105.448 58.8762 101.684 59.0203L101.714 59.8197ZM113.577 59.4777C113.658 59.4744 113.707 59.4828 113.732 59.4907C113.745 59.4944 113.751 59.4977 113.753 59.4992C113.755 59.4999 113.755 59.5004 113.755 59.5006C113.756 59.5007 113.756 59.5008 113.756 59.5009C113.756 59.501 113.756 59.5014 113.757 59.5023C113.757 59.5032 113.759 59.5048 113.76 59.5074C113.763 59.5126 113.767 59.5223 113.772 59.5384C113.782 59.5718 113.791 59.6259 113.791 59.708L114.591 59.708C114.591 59.4491 114.539 59.1622 114.334 58.9476C114.121 58.7258 113.829 58.667 113.545 58.6783L113.577 59.4777ZM113.791 59.708C113.791 59.9277 113.738 59.9913 113.724 60.0057C113.706 60.0227 113.656 60.0576 113.507 60.0644L113.543 60.8636C113.79 60.8524 114.072 60.7883 114.289 60.5713C114.509 60.3517 114.591 60.0463 114.591 59.708L113.791 59.708ZM113.501 60.0647C112.011 60.1544 110.269 60.2263 108.487 60.2983L108.519 61.0977C110.3 61.0257 112.05 60.9536 113.549 60.8633L113.501 60.0647ZM107.545 54.074L107.545 54.902L108.345 54.902L108.345 54.074L107.545 54.074ZM107.803 55.276C109.379 55.8739 111.922 56.8048 113.218 57.3088L113.508 56.5632C112.212 56.0592 109.643 55.1181 108.087 54.528L107.803 55.276ZM113.218 57.3088C113.263 57.3262 113.27 57.3433 113.275 57.3665C113.283 57.408 113.282 57.5207 113.175 57.7137L113.875 58.1023C114.037 57.8093 114.118 57.499 114.059 57.2075C113.996 56.8977 113.787 56.6718 113.508 56.5632L113.218 57.3088ZM113.175 57.7148C113.077 57.8909 112.986 57.9325 112.92 57.947C112.83 57.9665 112.703 57.9529 112.522 57.8902L112.259 58.6458C112.493 58.7271 112.788 58.7945 113.09 58.7285C113.416 58.6575 113.684 58.4471 113.875 58.1012L113.175 57.7148ZM112.519 57.8891C111.349 57.493 108.797 56.4635 107.29 55.9123L107.015 56.6637C108.461 57.1925 111.093 58.251 112.263 58.6469L112.519 57.8891ZM106.958 55.9386C105.702 56.6384 103.696 57.695 102.503 58.247L102.839 58.973C104.058 58.409 106.084 57.3416 107.348 56.6374L106.958 55.9386ZM102.51 58.2439C102.303 58.335 102.16 58.3681 102.059 58.3634C101.985 58.36 101.914 58.3363 101.83 58.2323L101.208 58.7357C101.43 59.0097 101.71 59.148 102.022 59.1626C102.309 59.1759 102.589 59.083 102.832 58.9761L102.51 58.2439ZM101.831 58.2341C101.712 58.0853 101.684 57.986 101.682 57.9474C101.682 57.9347 101.684 57.9361 101.681 57.9413C101.679 57.9453 101.684 57.9327 101.719 57.9122L101.318 57.2198C101.029 57.3875 100.869 57.6613 100.883 57.9811C100.895 58.262 101.038 58.5227 101.207 58.7339L101.831 58.2341ZM101.719 57.9122C102.4 57.5183 103.206 57.0701 104.004 56.6263C104.799 56.1836 105.586 55.7448 106.221 55.3732L105.817 54.6828C105.191 55.0492 104.412 55.4834 103.615 55.9272C102.819 56.3699 102.006 56.8217 101.318 57.2198L101.719 57.9122ZM106.418 54.9973C106.401 54.7821 106.401 54.4937 106.401 54.164L105.601 54.164C105.601 54.4823 105.601 54.8059 105.62 55.0587L106.418 54.9973ZM105.984 53.7643C104.239 53.8363 102.675 53.8902 102.012 53.9081L102.034 54.7079C102.702 54.6898 104.27 54.6357 106.017 54.5637L105.984 53.7643ZM102.006 53.9083C101.814 53.9163 101.764 53.8838 101.757 53.8787C101.756 53.8776 101.754 53.8758 101.751 53.8716C101.748 53.867 101.742 53.8576 101.736 53.8405C101.722 53.8045 101.706 53.7392 101.703 53.6291L100.903 53.6549C100.914 53.9879 101.003 54.2994 101.258 54.5033C101.499 54.6962 101.799 54.7177 102.04 54.7077L102.006 53.9083ZM101.703 53.6295C101.695 53.3957 101.745 53.2846 101.779 53.2399C101.804 53.2065 101.839 53.1814 101.917 53.1775L101.877 52.3785C101.595 52.3926 101.324 52.5115 101.137 52.7616C100.959 53.0004 100.892 53.3123 100.903 53.6545L101.703 53.6295ZM101.906 53.1779C102.667 53.1598 104.24 53.0875 105.964 53.0157L105.93 52.2163C104.197 52.2885 102.639 52.3602 101.887 52.3781L101.906 53.1779ZM106.347 52.616C106.347 52.4641 106.342 52.3229 106.338 52.2027C106.333 52.0779 106.329 51.9852 106.329 51.914L105.529 51.914C105.529 52.0048 105.534 52.119 105.538 52.2328C105.543 52.3511 105.547 52.4799 105.547 52.616L106.347 52.616ZM106.329 51.9011C106.321 51.6507 106.364 51.5713 106.393 51.5399C106.425 51.5061 106.53 51.43 106.883 51.4136L106.846 50.6144C106.425 50.634 106.054 50.7289 105.806 50.9966C105.556 51.2667 105.519 51.6193 105.529 51.9269L106.329 51.9011ZM106.89 51.4132C107.315 51.3866 107.44 51.4468 107.472 51.4722C107.483 51.4812 107.536 51.5271 107.545 51.8178L108.345 51.7942C108.335 51.4729 108.281 51.0958 107.973 50.8483C107.685 50.6172 107.279 50.5874 106.84 50.6148L106.89 51.4132ZM107.545 51.806L107.545 52.544L108.345 52.544L108.345 51.806L107.545 51.806ZM107.963 52.9436C108.969 52.8987 109.948 52.8627 110.78 52.8335C111.611 52.8043 112.298 52.7817 112.714 52.7636L112.679 51.9644C112.268 51.9823 111.587 52.0047 110.752 52.034C109.919 52.0633 108.937 52.0993 107.927 52.1444L107.963 52.9436ZM112.712 52.7637C112.91 52.7564 112.946 52.7987 112.947 52.7994C112.957 52.8094 113.009 52.8756 113.017 53.1325L113.817 53.1075C113.807 52.7884 113.742 52.4676 113.518 52.2391C113.285 52.0013 112.97 51.9536 112.682 51.9643L112.712 52.7637ZM113.017 53.1329C113.021 53.2492 113.011 53.319 113 53.359C112.995 53.3777 112.99 53.3875 112.988 53.3916C112.986 53.3952 112.985 53.3961 112.984 53.3963C112.98 53.4009 112.929 53.4417 112.686 53.459L112.743 54.257C113.005 54.2383 113.314 54.1891 113.539 53.9732C113.778 53.7435 113.827 53.4225 113.817 53.1071L113.017 53.1329ZM112.687 53.459C111.92 53.5125 109.987 53.584 107.927 53.6744L107.962 54.4736C110.006 54.384 111.962 54.3115 112.743 54.257L112.687 53.459ZM128.999 65.252L129.398 65.2835L129.398 65.2816L128.999 65.252ZM128.081 66.134L128.109 65.735L128.108 65.7349L128.081 66.134ZM127.523 53.084L127.923 53.0986L127.923 53.0951L127.523 53.084ZM129.467 53.138L129.867 53.1417L129.867 53.138L129.467 53.138ZM120.449 60.212L120.72 59.9175L120.42 59.6418L120.149 59.9467L120.449 60.212ZM116.975 63.956L116.718 63.6492L116.716 63.6512L116.975 63.956ZM115.823 63.758L115.51 64.0079L115.512 64.0097L115.823 63.758ZM115.913 62.786L115.615 62.5193L115.613 62.5214L115.913 62.786ZM119.315 58.826L119.628 59.0746L119.717 58.9632L119.715 58.821L119.315 58.826ZM119.135 53.174L119.535 53.1644L119.535 53.1611L119.135 53.174ZM120.125 52.274L120.143 52.6736L120.15 52.6732L120.125 52.274ZM121.223 53.066L120.823 53.066L120.823 53.0703L121.223 53.066ZM121.313 58.646L120.913 58.646L120.913 58.8287L121.051 58.9483L121.313 58.646ZM125.075 61.724L125.342 61.4259L125.336 61.4214L125.075 61.724ZM125.237 62.786L124.908 62.5576L124.904 62.5639L124.9 62.5704L125.237 62.786ZM124.265 63.2L124.047 63.5355L124.05 63.5375L124.265 63.2ZM128.6 65.2205C128.578 65.5015 128.499 65.615 128.445 65.6617C128.393 65.7075 128.297 65.7484 128.109 65.735L128.052 66.533C128.369 66.5556 128.705 66.4975 128.972 66.2643C129.238 66.032 129.366 65.6865 129.398 65.2835L128.6 65.2205ZM128.108 65.7349C127.924 65.7223 127.86 65.6708 127.822 65.6187C127.768 65.543 127.707 65.3757 127.707 65.018L126.907 65.018C126.907 65.4342 126.972 65.807 127.174 66.0868C127.393 66.3902 127.715 66.5097 128.053 66.5331L128.108 65.7349ZM127.707 65.018C127.707 61.0268 127.779 57.0356 127.923 53.0986L127.123 53.0694C126.979 57.0164 126.907 61.0172 126.907 65.018L127.707 65.018ZM127.923 53.0951C127.93 52.8129 127.992 52.7234 128.031 52.6881C128.079 52.6454 128.2 52.584 128.531 52.584L128.531 51.784C128.141 51.784 127.768 51.8486 127.496 52.0939C127.215 52.3466 127.133 52.7071 127.123 53.0729L127.923 53.0951ZM128.531 52.584C128.799 52.584 128.907 52.6476 128.955 52.6967C129.005 52.7482 129.067 52.8641 129.067 53.138L129.867 53.138C129.867 52.7639 129.785 52.4028 129.529 52.1393C129.27 51.8734 128.911 51.784 128.531 51.784L128.531 52.584ZM129.067 53.1343C129.031 57.0519 128.869 61.597 128.6 65.2224L129.398 65.2816C129.668 61.635 129.831 57.0721 129.867 53.1417L129.067 53.1343ZM120.149 59.9467C118.725 61.5535 117.57 62.9366 116.718 63.6492L117.231 64.2628C118.144 63.4994 119.364 62.0385 120.748 60.4773L120.149 59.9467ZM116.716 63.6512C116.633 63.7218 116.546 63.739 116.456 63.7211C116.357 63.7015 116.237 63.6343 116.134 63.5063L115.512 64.0097C115.714 64.2597 115.991 64.4445 116.301 64.5059C116.62 64.569 116.957 64.4962 117.234 64.2608L116.716 63.6512ZM116.135 63.5081C116.046 63.3961 116.05 63.3395 116.054 63.313C116.061 63.2646 116.097 63.1815 116.213 63.0506L115.613 62.5214C115.458 62.6965 115.305 62.9194 115.263 63.1905C115.218 63.4835 115.312 63.7599 115.51 64.0079L116.135 63.5081ZM116.211 63.0527C117.129 62.027 118.792 60.1289 119.628 59.0746L119.001 58.5774C118.182 59.6111 116.533 61.493 115.615 62.5193L116.211 63.0527ZM119.715 58.821C119.697 57.385 119.57 54.6349 119.535 53.1644L118.735 53.1836C118.771 54.7011 118.897 57.387 118.915 58.831L119.715 58.821ZM119.535 53.1611C119.527 52.9319 119.575 52.8508 119.614 52.8132C119.662 52.7657 119.792 52.6899 120.143 52.6736L120.106 51.8744C119.683 51.8941 119.31 51.9893 119.052 52.2433C118.784 52.5072 118.724 52.8581 118.735 53.1869L119.535 53.1611ZM120.15 52.6732C120.573 52.6468 120.713 52.7057 120.754 52.7371C120.766 52.7468 120.823 52.791 120.823 53.066L121.623 53.066C121.623 52.729 121.562 52.3502 121.242 52.1034C120.95 51.8783 120.541 51.8472 120.1 51.8748L120.15 52.6732ZM120.823 53.0703C120.841 54.744 120.913 57.0604 120.913 58.646L121.713 58.646C121.713 57.0636 121.641 54.7 121.623 53.0617L120.823 53.0703ZM121.051 58.9483C121.733 59.5394 122.414 60.084 123.053 60.5925C123.694 61.103 124.29 61.5742 124.813 62.0266L125.336 61.4214C124.798 60.9558 124.187 60.473 123.551 59.9665C122.912 59.458 122.243 58.9226 121.575 58.3437L121.051 58.9483ZM124.808 62.0221C124.945 62.1443 124.988 62.2338 124.999 62.29C125.008 62.3337 125.008 62.4147 124.908 62.5576L125.565 63.0144C125.754 62.7433 125.844 62.4463 125.785 62.139C125.728 61.8442 125.547 61.6097 125.342 61.4259L124.808 62.0221ZM124.9 62.5704C124.763 62.7842 124.668 62.8708 124.612 62.8985C124.594 62.9076 124.587 62.9072 124.581 62.9066C124.571 62.9057 124.539 62.9002 124.48 62.8625L124.05 63.5375C124.344 63.7247 124.665 63.7666 124.97 63.614C125.23 63.4842 125.423 63.2378 125.574 63.0016L124.9 62.5704ZM124.483 62.8645C123.477 62.2115 121.82 60.9295 120.72 59.9175L120.178 60.5065C121.309 61.5465 123.001 62.8565 124.047 63.5355L124.483 62.8645ZM147.116 60.788L147.516 60.7829L147.511 60.3672L147.096 60.3885L147.116 60.788ZM144.812 60.896L144.791 60.4966L144.602 60.5068L144.49 60.6587L144.812 60.896ZM141.338 62.552L141.352 62.9518L141.353 62.9517L141.338 62.552ZM141.338 53.39L141.325 52.9902L141.323 52.9903L141.338 53.39ZM144.812 55.01L144.481 55.2345L144.608 55.421L144.833 55.4095L144.812 55.01ZM147.116 54.92L147.127 55.3199L147.516 55.3093L147.516 54.92L147.116 54.92ZM147.134 52.976L147.534 52.9871L147.534 52.976L147.134 52.976ZM148.952 52.922L148.552 52.922L148.552 52.9268L148.952 52.922ZM148.79 65.072L148.391 65.0593L148.391 65.0595L148.79 65.072ZM147.152 65.036L147.552 65.036L147.552 65.0309L147.152 65.036ZM151.814 65.378L151.415 65.3513L151.415 65.3514L151.814 65.378ZM150.95 66.152L150.937 66.5518L150.937 66.5518L150.95 66.152ZM150.212 65.306L149.812 65.3044L149.812 65.306L150.212 65.306ZM150.464 52.796L150.065 52.78L150.065 52.7831L150.464 52.796ZM151.364 52.13L151.375 51.73L151.364 51.73L151.364 52.13ZM152.282 52.796L152.682 52.7976L152.682 52.796L152.282 52.796ZM141.284 60.896L141.28 60.496L141.28 60.496L141.284 60.896ZM141.338 55.046L141.351 55.4458L141.352 55.4458L141.338 55.046ZM147.116 59.186L147.132 59.5857L147.516 59.5709L147.516 59.186L147.116 59.186ZM147.116 56.522L147.516 56.522L147.516 56.1069L147.102 56.1223L147.116 56.522ZM145.496 56.594L145.47 56.1949L145.011 56.2255L145.105 56.6756L145.496 56.594ZM145.514 59.24L145.125 59.1473L145.004 59.6567L145.527 59.6398L145.514 59.24ZM147.096 60.3885C146.411 60.4237 145.449 60.461 144.791 60.4966L144.834 61.2954C145.508 61.259 146.418 61.2243 147.137 61.1875L147.096 60.3885ZM144.49 60.6587C143.82 61.5678 142.739 62.1017 141.324 62.1523L141.353 62.9517C142.962 62.8943 144.292 62.2761 145.134 61.1333L144.49 60.6587ZM141.325 62.1522C140.039 62.1945 139.091 61.8356 138.46 61.1736C137.824 60.5065 137.454 59.4721 137.454 58.052L136.654 58.052C136.654 59.6019 137.058 60.8625 137.881 61.7254C138.708 62.5934 139.901 62.9995 141.352 62.9518L141.325 62.1522ZM137.454 58.052C137.454 56.8952 137.796 55.8542 138.441 55.0959C139.081 54.344 140.044 53.8398 141.354 53.7897L141.323 52.9903C139.807 53.0482 138.628 53.642 137.832 54.5776C137.042 55.5068 136.654 56.7428 136.654 58.052L137.454 58.052ZM141.352 53.7898C142.813 53.74 143.846 54.2973 144.481 55.2345L145.143 54.7855C144.339 53.5987 143.032 52.932 141.325 52.9902L141.352 53.7898ZM144.833 55.4095C145.531 55.3736 146.464 55.3378 147.127 55.3199L147.106 54.5201C146.436 54.5382 145.497 54.5744 144.792 54.6105L144.833 55.4095ZM147.516 54.92C147.516 54.2711 147.516 53.6286 147.534 52.9871L146.735 52.9649C146.716 53.6194 146.716 54.2729 146.716 54.92L147.516 54.92ZM147.534 52.976C147.534 52.8136 147.575 52.7765 147.593 52.7618C147.633 52.73 147.751 52.674 148.052 52.674L148.052 51.874C147.688 51.874 147.346 51.935 147.094 52.1372C146.819 52.3565 146.734 52.6704 146.734 52.976L147.534 52.976ZM148.052 52.674C148.354 52.674 148.471 52.7238 148.509 52.7517C148.516 52.7567 148.552 52.7745 148.552 52.922L149.352 52.922C149.352 52.6195 149.263 52.3133 148.982 52.1068C148.732 51.9232 148.399 51.874 148.052 51.874L148.052 52.674ZM148.552 52.9268C148.606 57.4544 148.534 60.5259 148.391 65.0593L149.19 65.0847C149.334 60.5461 149.406 57.4616 149.352 52.9172L148.552 52.9268ZM148.391 65.0595C148.383 65.2943 148.327 65.3727 148.297 65.4009C148.264 65.4318 148.177 65.482 147.944 65.482L147.944 66.282C148.269 66.282 148.597 66.2152 148.843 65.9851C149.092 65.7523 149.18 65.4257 149.19 65.0845L148.391 65.0595ZM147.944 65.482C147.736 65.482 147.665 65.4305 147.638 65.4017C147.606 65.3674 147.552 65.2751 147.552 65.036L146.752 65.036C146.752 65.3729 146.825 65.7036 147.054 65.9483C147.288 66.1985 147.613 66.282 147.944 66.282L147.944 65.482ZM147.552 65.0309C147.543 64.3214 147.539 63.6162 147.534 62.9094C147.53 62.2032 147.525 61.4954 147.516 60.7829L146.716 60.7931C146.725 61.5026 146.73 62.2078 146.734 62.9145C146.739 63.6208 146.743 64.3286 146.752 65.0411L147.552 65.0309ZM151.415 65.3514C151.401 65.5588 151.344 65.6408 151.305 65.6755C151.265 65.7114 151.174 65.7592 150.964 65.7522L150.937 66.5518C151.267 66.5628 151.59 66.4936 151.837 66.273C152.086 66.0512 152.191 65.7372 152.213 65.4046L151.415 65.3514ZM150.964 65.7522C150.759 65.7452 150.705 65.6954 150.688 65.6759C150.662 65.6464 150.612 65.5572 150.612 65.306L149.812 65.306C149.812 65.6308 149.871 65.9556 150.084 66.2006C150.305 66.4556 150.619 66.5408 150.937 66.5518L150.964 65.7522ZM150.612 65.3076C150.63 60.7409 150.72 57.2711 150.864 52.8089L150.065 52.7831C149.921 57.2489 149.83 60.7271 149.812 65.3044L150.612 65.3076ZM150.864 52.812C150.871 52.6438 150.91 52.6156 150.919 52.6081C150.95 52.5835 151.057 52.53 151.364 52.53L151.364 51.73C151.006 51.73 150.671 51.7845 150.423 51.9804C150.154 52.1934 150.076 52.4982 150.065 52.78L150.864 52.812ZM151.354 52.5299C151.655 52.538 151.782 52.5954 151.829 52.6315C151.852 52.6488 151.882 52.6772 151.882 52.796L152.682 52.796C152.682 52.5008 152.587 52.2052 152.317 51.9974C152.071 51.8086 151.74 51.74 151.375 51.7301L151.354 52.5299ZM151.882 52.7944C151.864 57.3207 151.721 60.7862 151.415 65.3513L152.213 65.4047C152.52 60.8258 152.664 57.3433 152.682 52.7976L151.882 52.7944ZM141.289 61.296C142.239 61.2858 142.989 60.9075 143.493 60.2804C143.989 59.6635 144.222 58.8385 144.222 57.962L143.422 57.962C143.422 58.7055 143.224 59.3385 142.869 59.7791C142.523 60.2095 142.004 60.4882 141.28 60.496L141.289 61.296ZM144.222 57.962C144.222 57.0093 143.982 56.1665 143.483 55.561C142.974 54.9438 142.23 54.6154 141.325 54.6462L141.352 55.4458C142.031 55.4226 142.529 55.6612 142.866 56.07C143.213 56.4905 143.422 57.1327 143.422 57.962L144.222 57.962ZM141.326 54.6462C140.354 54.6769 139.622 55.083 139.143 55.7306C138.674 56.3642 138.472 57.1946 138.472 58.052L139.272 58.052C139.272 57.3074 139.449 56.6618 139.786 56.2064C140.112 55.765 140.612 55.4691 141.351 55.4458L141.326 54.6462ZM138.472 58.052C138.472 59.0084 138.675 59.8301 139.155 60.416C139.647 61.0171 140.379 61.306 141.289 61.296L141.28 60.496C140.552 60.504 140.077 60.2799 139.774 59.909C139.457 59.5229 139.272 58.9136 139.272 58.052L138.472 58.052ZM147.516 59.186L147.516 56.522L146.716 56.522L146.716 59.186L147.516 59.186ZM147.102 56.1223C146.62 56.1401 146.017 56.1584 145.47 56.1949L145.523 56.9931C146.055 56.9576 146.641 56.9399 147.131 56.9217L147.102 56.1223ZM145.105 56.6756C145.189 57.0811 145.24 57.5398 145.24 58.016L146.04 58.016C146.04 57.4842 145.983 56.9709 145.888 56.5124L145.105 56.6756ZM145.24 58.016C145.24 58.4274 145.206 58.8085 145.125 59.1473L145.903 59.3326C146.003 58.9155 146.04 58.4686 146.04 58.016L145.24 58.016ZM145.527 59.6398C146.084 59.6218 146.662 59.6038 147.132 59.5857L147.101 58.7863C146.635 58.8042 146.06 58.8222 145.501 58.8402L145.527 59.6398ZM167.824 64.604L167.424 64.6168L167.424 64.6173L167.824 64.604ZM163.558 68.456L163.574 68.8557L163.574 68.8557L163.558 68.456ZM163.45 61.022L163.471 61.4215L163.471 61.4214L163.45 61.022ZM159.238 58.268L159.424 57.9139L159.166 57.7783L158.958 57.9825L159.238 58.268ZM156.124 61.112L155.867 60.8052L155.865 60.8072L156.124 61.112ZM154.972 60.914L154.66 61.1639L154.661 61.1657L154.972 60.914ZM155.062 59.978L154.782 59.6924L154.779 59.6952L155.062 59.978ZM158.122 56.918L158.414 57.1918L158.53 57.0682L158.522 56.899L158.122 56.918ZM157.996 53.642L158.396 53.6282L158.382 53.22L157.974 53.2426L157.996 53.642ZM154.864 53.786L154.853 53.3861L154.847 53.3863L154.864 53.786ZM154.144 53.012L153.744 53.0245L153.744 53.0249L154.144 53.012ZM154.792 52.166L154.811 52.5656L154.815 52.5653L154.792 52.166ZM163.432 51.788L163.417 51.3883L163.416 51.3883L163.432 51.788ZM164.152 52.472L163.752 52.4845L163.752 52.4849L164.152 52.472ZM163.45 53.336L163.471 53.7356L163.479 53.735L163.45 53.336ZM159.976 53.534L159.951 53.1348L159.569 53.1587L159.576 53.5418L159.976 53.534ZM160.012 56.756L159.612 56.756L159.612 56.9904L159.817 57.105L160.012 56.756ZM163.846 58.754L164.045 58.4066L164.037 58.4024L163.846 58.754ZM164.008 59.762L163.68 59.5336L163.675 59.5399L163.671 59.5464L164.008 59.762ZM163.09 60.14L162.924 60.5039L162.925 60.5041L163.09 60.14ZM166.006 56.558L166.406 56.5625L166.411 56.1373L165.986 56.1585L166.006 56.558ZM162.694 55.838L162.294 55.8513L162.294 55.8518L162.694 55.838ZM163.306 55.028L163.322 55.4277L163.33 55.4273L163.306 55.028ZM166.024 54.92L166.038 55.3198L166.413 55.307L166.424 54.9314L166.024 54.92ZM166.06 53.084L166.46 53.0961L166.46 53.084L166.06 53.084ZM167.968 53.138L167.568 53.1269L167.568 53.1317L167.968 53.138ZM167.77 60.23L167.373 60.1858L167.372 60.1881L167.77 60.23ZM166.852 61.058L166.866 60.6583L166.866 60.6582L166.852 61.058ZM166.006 60.176L166.406 60.166L166.406 60.1649L166.006 60.176ZM165.988 64.622L165.588 64.6327L165.588 64.6331L165.988 64.622ZM163.504 62.516L163.523 62.9155L163.524 62.9155L163.504 62.516ZM161.11 64.82L161.51 64.8146L161.51 64.814L161.11 64.82ZM163.504 66.962L163.49 66.5622L163.489 66.5623L163.504 66.962ZM167.424 64.6173C167.457 65.5886 167.115 66.4102 166.472 67.0061C165.824 67.6065 164.838 68.0051 163.542 68.0563L163.574 68.8557C165.014 68.7989 166.197 68.3515 167.016 67.5929C167.84 66.8298 168.264 65.7793 168.224 64.5907L167.424 64.6173ZM163.543 68.0563C162.228 68.1075 161.267 67.7816 160.64 67.2344C160.017 66.691 159.674 65.8867 159.674 64.874L158.874 64.874C158.874 66.0753 159.287 67.116 160.114 67.8371C160.936 68.5544 162.117 68.9125 163.574 68.8557L163.543 68.0563ZM159.674 64.874C159.674 63.997 159.982 63.1742 160.594 62.554C161.205 61.9348 162.149 61.4893 163.471 61.4215L163.43 60.6225C161.944 60.6987 160.799 61.2072 160.024 61.992C159.251 62.7758 158.874 63.807 158.874 64.874L159.674 64.874ZM163.471 61.4214C164.746 61.3535 165.713 61.6694 166.364 62.2206C167.012 62.769 167.391 63.5872 167.424 64.6168L168.224 64.5912C168.185 63.3708 167.727 62.326 166.881 61.6099C166.038 60.8966 164.854 60.5465 163.429 60.6226L163.471 61.4214ZM158.958 57.9825C158.01 58.9127 156.74 60.0753 155.867 60.8052L156.381 61.4188C157.272 60.6727 158.558 59.4953 159.518 58.5535L158.958 57.9825ZM155.865 60.8072C155.782 60.8778 155.696 60.895 155.605 60.8771C155.506 60.8575 155.387 60.7903 155.283 60.6623L154.661 61.1657C154.864 61.4157 155.14 61.6005 155.45 61.6619C155.769 61.725 156.106 61.6522 156.383 61.4168L155.865 60.8072ZM155.284 60.6641C155.187 60.542 155.195 60.4885 155.197 60.4772C155.201 60.4485 155.226 60.3798 155.345 60.2608L154.779 59.6952C154.61 59.8642 154.446 60.0835 154.405 60.3608C154.362 60.6555 154.469 60.926 154.66 61.1639L155.284 60.6641ZM155.342 60.2636C156.256 59.3674 157.578 58.0815 158.414 57.1918L157.83 56.6442C157.01 57.5185 155.704 58.7886 154.782 59.6924L155.342 60.2636ZM158.522 56.899C158.468 55.7682 158.432 54.6733 158.396 53.6282L157.596 53.6558C157.632 54.6987 157.668 55.7998 157.723 56.937L158.522 56.899ZM157.974 53.2426C156.679 53.3146 155.495 53.3683 154.853 53.3862L154.875 54.1858C155.529 54.1677 156.721 54.1134 158.018 54.0414L157.974 53.2426ZM154.847 53.3863C154.706 53.3922 154.655 53.3562 154.634 53.3347C154.607 53.3069 154.551 53.2225 154.544 52.9991L153.744 53.0249C153.755 53.3595 153.843 53.6711 154.063 53.8953C154.29 54.1258 154.59 54.1978 154.881 54.1857L154.847 53.3863ZM154.544 52.9995C154.537 52.7769 154.591 52.6784 154.624 52.6392C154.654 52.6036 154.707 52.5705 154.811 52.5655L154.773 51.7665C154.499 51.7795 154.219 51.8814 154.015 52.1203C153.815 52.3556 153.733 52.6711 153.744 53.0245L154.544 52.9995ZM154.815 52.5653C156.7 52.4576 161.61 52.2598 163.448 52.1877L163.416 51.3883C161.582 51.4602 156.664 51.6584 154.769 51.7667L154.815 52.5653ZM163.447 52.1877C163.554 52.1838 163.622 52.189 163.667 52.1981C163.707 52.2064 163.712 52.2149 163.706 52.2097C163.691 52.1965 163.744 52.2237 163.752 52.4845L164.552 52.4595C164.542 52.1443 164.479 51.8205 164.229 51.6048C163.987 51.3954 163.671 51.3789 163.417 51.3883L163.447 52.1877ZM163.752 52.4849C163.76 52.7207 163.714 52.8138 163.686 52.8481C163.666 52.873 163.61 52.9236 163.422 52.937L163.479 53.735C163.794 53.7124 164.098 53.61 164.308 53.3514C164.509 53.1022 164.562 52.7813 164.552 52.4591L163.752 52.4849ZM163.43 52.9365C162.727 52.9726 161.393 53.0447 159.951 53.1348L160.001 53.9332C161.439 53.8433 162.77 53.7714 163.471 53.7355L163.43 52.9365ZM159.576 53.5418C159.594 54.4587 159.612 55.6617 159.612 56.756L160.412 56.756C160.412 55.6543 160.394 54.4453 160.376 53.5262L159.576 53.5418ZM159.817 57.105C160.499 57.4873 161.199 57.846 161.856 58.1793C162.517 58.5141 163.131 58.821 163.655 59.1056L164.037 58.4024C163.499 58.1109 162.871 57.7969 162.218 57.4657C161.561 57.133 160.875 56.7807 160.208 56.407L159.817 57.105ZM163.648 59.1013C163.756 59.1635 163.777 59.22 163.782 59.2503C163.789 59.2892 163.785 59.3825 163.68 59.5336L164.336 59.9904C164.519 59.7275 164.623 59.4248 164.571 59.1172C164.518 58.801 164.314 58.5605 164.045 58.4067L163.648 59.1013ZM163.671 59.5464C163.536 59.7572 163.461 59.8075 163.434 59.8187C163.428 59.8214 163.42 59.8241 163.4 59.8221C163.375 59.8196 163.329 59.8094 163.256 59.7759L162.925 60.5041C163.175 60.6178 163.457 60.6774 163.745 60.5558C164.006 60.4455 164.192 60.2168 164.345 59.9776L163.671 59.5464ZM163.256 59.7761C162.233 59.3093 160.819 58.6469 159.424 57.9139L159.052 58.6221C160.466 59.3651 161.895 60.0347 162.924 60.5039L163.256 59.7761ZM165.986 56.1585C164.909 56.2124 163.602 56.248 163.36 56.248L163.36 57.048C163.622 57.048 164.944 57.0116 166.026 56.9575L165.986 56.1585ZM163.36 56.248C163.188 56.248 163.168 56.2034 163.167 56.2013C163.141 56.167 163.102 56.0702 163.094 55.8242L162.294 55.8518C162.304 56.1278 162.346 56.436 162.523 56.6762C162.724 56.9486 163.028 57.048 163.36 57.048L163.36 56.248ZM163.094 55.8247C163.086 55.5861 163.128 55.5 163.145 55.4764C163.147 55.4736 163.169 55.4338 163.322 55.4277L163.29 54.6283C162.993 54.6402 162.7 54.7354 162.504 54.9981C162.324 55.24 162.284 55.5499 162.294 55.8513L163.094 55.8247ZM163.33 55.4273C163.63 55.4097 164.975 55.3558 166.038 55.3198L166.011 54.5202C164.95 54.5562 163.594 54.6103 163.283 54.6287L163.33 55.4273ZM166.424 54.9314C166.433 54.6132 166.438 54.2999 166.442 53.9944C166.447 53.6879 166.451 53.3895 166.46 53.0961L165.66 53.0719C165.651 53.3725 165.647 53.6771 165.642 53.9826C165.638 54.2891 165.633 54.5968 165.624 54.9086L166.424 54.9314ZM166.46 53.084C166.46 52.7964 166.519 52.7117 166.55 52.6823C166.588 52.6463 166.7 52.584 167.032 52.584L167.032 51.784C166.645 51.784 166.27 51.8477 166.002 52.0997C165.727 52.3583 165.66 52.7236 165.66 53.084L166.46 53.084ZM167.032 52.584C167.301 52.584 167.415 52.6481 167.465 52.6988C167.514 52.7484 167.576 52.8603 167.568 53.1269L168.368 53.1491C168.379 52.7677 168.296 52.4026 168.035 52.1372C167.774 51.8729 167.411 51.784 167.032 51.784L167.032 52.584ZM167.568 53.1317C167.532 55.4561 167.514 58.9149 167.373 60.1858L168.168 60.2742C168.314 58.9531 168.332 55.4279 168.368 53.1442L167.568 53.1317ZM167.372 60.1881C167.342 60.474 167.265 60.5621 167.226 60.5927C167.179 60.6292 167.084 60.666 166.866 60.6583L166.838 61.4577C167.124 61.468 167.452 61.4327 167.72 61.2218C167.996 61.0049 168.126 60.67 168.168 60.2719L167.372 60.1881ZM166.866 60.6582C166.619 60.6497 166.538 60.6099 166.506 60.5815C166.485 60.5623 166.414 60.4832 166.406 60.166L165.606 60.186C165.616 60.5888 165.708 60.9417 165.974 61.179C166.23 61.4071 166.564 61.4483 166.838 61.4578L166.866 60.6582ZM166.406 60.1649C166.388 59.5256 166.388 58.1466 166.406 56.5625L165.606 56.5535C165.588 58.1374 165.588 59.5304 165.606 60.1871L166.406 60.1649ZM166.388 64.6113C166.367 63.8337 166.063 63.1771 165.53 62.7295C165.001 62.2854 164.284 62.0765 163.484 62.1165L163.524 62.9155C164.164 62.8835 164.671 63.0526 165.015 63.342C165.356 63.6279 165.573 64.0603 165.588 64.6327L166.388 64.6113ZM163.485 62.1165C161.777 62.1978 160.689 63.3853 160.71 64.826L161.51 64.814C161.496 63.8427 162.207 62.9782 163.523 62.9155L163.485 62.1165ZM160.71 64.8254C160.72 65.5848 160.99 66.2457 161.498 66.7069C162.005 67.1667 162.708 67.3918 163.519 67.3617L163.489 66.5623C162.842 66.5862 162.357 66.4063 162.036 66.1146C161.716 65.8243 161.518 65.3872 161.51 64.8146L160.71 64.8254ZM163.518 67.3618C164.382 67.332 165.112 67.0417 165.625 66.5451C166.14 66.0464 166.409 65.3645 166.388 64.6109L165.588 64.6331C165.603 65.1755 165.413 65.6366 165.069 65.9704C164.722 66.3063 164.192 66.538 163.49 66.5622L163.518 67.3618Z" fill="#4A4E53" mask="url(#path-2-outside-1_2722_48880)"/>
    <g clip-path="url(#clip0_2722_48880)">
        <path d="M31.3735 88.5966C29.9993 88.7628 28.614 88.3749 27.5169 87.5216L13.7969 76.8049L15.1933 73.6797L31.6617 81.925" fill="#CDDCE0"/>
        <path d="M31.3735 88.5966C29.9993 88.7628 28.614 88.3749 27.5169 87.5216L13.7969 76.8049L15.1933 73.6797L31.6617 81.925" fill="url(#paint0_radial_2722_48880)"/>
        <path d="M59.4141 103.059C59.4141 103.059 59.4362 103.059 59.4473 103.059C59.5803 103.059 59.7133 103.059 59.8352 103.092L72.3694 100.333L62.0184 89.0506L66.1632 85.7148L76.9685 99.0026C78.5866 100.997 77.3453 103.99 74.7964 104.256L61.2094 105.674" fill="#CDDCE0"/>
        <path d="M59.4141 103.059C59.4141 103.059 59.4362 103.059 59.4473 103.059C59.5803 103.059 59.7133 103.059 59.8352 103.092L72.3694 100.333L62.0184 89.0506L66.1632 85.7148L76.9685 99.0026C78.5866 100.997 77.3453 103.99 74.7964 104.256L61.2094 105.674" fill="url(#paint1_radial_2722_48880)"/>
        <path d="M12.5705 78.8549C12.227 78.5114 11.9167 78.1568 11.6175 77.7799C11.3515 77.4475 11.1077 77.0818 10.9858 76.6717C10.8749 76.3171 10.8639 75.9181 10.9858 75.5746C11.1298 75.1756 11.4512 74.8985 11.8059 74.688C11.9943 74.5661 12.1937 74.4663 12.3821 74.3444C12.4597 74.3001 12.5484 74.2447 12.6149 74.1782C12.6703 74.1117 12.637 74.0452 12.6038 73.9787C12.4486 73.6573 12.2602 73.347 12.1162 73.0145C11.9832 72.6931 11.9056 72.3385 11.9721 71.9839C12.0386 71.6292 12.2492 71.3189 12.5373 71.1084C12.6814 71.0086 12.8365 70.931 13.0138 70.8867C13.1912 70.8424 13.4017 70.8091 13.5458 70.9421C13.6123 71.0086 13.6677 71.1084 13.712 71.1859C13.7785 71.2968 13.845 71.3965 13.9115 71.5073C14.0334 71.7068 14.1664 71.8952 14.2883 72.0947C14.8092 72.8483 15.3855 73.5686 16.0172 74.2336C16.0726 74.1893 16.1501 74.1782 16.2166 74.2336C16.8262 74.7766 17.2695 75.497 17.5133 76.2727C17.6241 76.6495 17.7128 77.0596 17.6906 77.4586C17.6795 77.658 17.6241 77.8575 17.5244 78.0238C17.4025 78.2122 17.2251 78.3562 17.0367 78.4892C16.3607 78.9436 15.6293 79.398 14.8424 79.6307C14.4656 79.7415 14.0223 79.8524 13.6455 79.7083C13.446 79.6307 13.2798 79.4866 13.1136 79.3426C12.9363 79.1874 12.7589 79.0212 12.5927 78.8549H12.5705Z" fill="#CDDCE0"/>
        <path d="M56.8499 119.084L61.9589 75.2422C59.6759 73.1698 57.1381 68.7922 55.9744 66.6533C52.9933 68.5262 48.8485 70.0224 43.2851 70.6208C36.1148 71.3855 33.2999 70.0889 32.2138 68.8698L26.5286 117.643C26.1074 121.301 28.745 124.647 32.4022 125.069L49.2585 127.03C55.9966 127.817 56.861 119.084 56.861 119.084H56.8499Z" fill="#CDDCE0"/>
        <path d="M64.8051 122.11L70.5125 73.1254L70.7231 71.2968C70.9337 69.4682 68.3182 65.8221 63.9185 61.5221C63.3201 60.9348 62.633 60.4472 61.9015 60.0371C61.0371 62.2203 59.1642 64.6474 55.9614 66.6533C57.1361 68.7922 59.674 73.1697 61.9459 75.2421L56.8369 119.084C56.8369 119.084 55.9725 127.817 49.2344 127.03L57.3688 127.983C61.026 128.404 64.3729 125.767 64.794 122.11H64.8051Z" fill="#BCCFD3"/>
        <path d="M61.0805 59.6269C56.3705 57.5545 49.4219 58.4632 41.8748 61.0343C32.5988 64.1817 32.2331 68.6701 32.2331 68.6701L32.2109 68.8807C33.3081 70.0997 36.1119 71.3853 43.2822 70.6317C48.8456 70.0443 52.9904 68.5371 55.9716 66.6642C59.1744 64.6583 61.0473 62.2312 61.9117 60.048C61.6457 59.9039 61.3687 59.7599 61.0805 59.6269Z" fill="#E6F0F4"/>
        <path d="M35.3848 98.8252C35.9295 98.8252 36.3711 98.3836 36.3711 97.8389C36.3711 97.2941 35.9295 96.8525 35.3848 96.8525C34.84 96.8525 34.3984 97.2941 34.3984 97.8389C34.3984 98.3836 34.84 98.8252 35.3848 98.8252Z" fill="#BCCFD3"/>
        <path d="M55.9476 88.1199C56.6393 88.1199 57.1999 87.5592 57.1999 86.8675C57.1999 86.1759 56.6393 85.6152 55.9476 85.6152C55.256 85.6152 54.6953 86.1759 54.6953 86.8675C54.6953 87.5592 55.256 88.1199 55.9476 88.1199Z" fill="#BCCFD3"/>
        <path d="M59.7156 95.1567C60.8357 95.1567 61.7437 94.2487 61.7437 93.1287C61.7437 92.0086 60.8357 91.1006 59.7156 91.1006C58.5955 91.1006 57.6875 92.0086 57.6875 93.1287C57.6875 94.2487 58.5955 95.1567 59.7156 95.1567Z" fill="#BCCFD3"/>
        <path d="M35.6514 113.41C37.1632 113.41 38.3888 112.185 38.3888 110.673C38.3888 109.161 37.1632 107.936 35.6514 107.936C34.1396 107.936 32.9141 109.161 32.9141 110.673C32.9141 112.185 34.1396 113.41 35.6514 113.41Z" fill="#BCCFD3"/>
        <path d="M36.7021 77.0703C37.6508 77.0703 38.4199 76.3012 38.4199 75.3525C38.4199 74.4038 37.6508 73.6348 36.7021 73.6348C35.7534 73.6348 34.9844 74.4038 34.9844 75.3525C34.9844 76.3012 35.7534 77.0703 36.7021 77.0703Z" fill="#BCCFD3"/>
        <path d="M54.0481 116.667C54.8254 116.667 55.4556 116.037 55.4556 115.26C55.4556 114.483 54.8254 113.853 54.0481 113.853C53.2708 113.853 52.6406 114.483 52.6406 115.26C52.6406 116.037 53.2708 116.667 54.0481 116.667Z" fill="#BCCFD3"/>
        <path d="M69.0593 103.081C69.6245 103.613 70.223 104.178 70.4889 104.91C70.7549 105.641 70.5887 106.594 69.9016 106.982C69.5137 107.204 69.0261 107.193 68.6049 107.049C68.1838 106.904 67.8181 106.638 67.4634 106.361C67.1753 106.129 66.8982 105.885 66.6988 105.575C66.5104 105.275 66.3995 104.932 66.3552 104.588C66.3109 104.3 66.3109 104.001 66.4328 103.735C66.5436 103.469 66.7985 103.247 67.0866 103.236" fill="#CDDCE0"/>
        <path d="M68.8563 103.269C69.6431 104.012 70.8178 105.164 70.1307 106.35C69.7983 106.915 69.089 106.959 68.5349 106.727C68.2135 106.594 67.9253 106.383 67.6483 106.162C67.3712 105.94 67.1163 105.718 66.9279 105.43C66.7174 105.098 66.6065 104.688 66.5955 104.289C66.5955 103.978 66.7063 103.535 67.0831 103.502C67.4377 103.469 67.4377 102.926 67.0831 102.948C66.6841 102.981 66.3516 103.214 66.1854 103.579C65.9859 104.001 66.0303 104.51 66.1411 104.954C66.3627 105.84 67.0609 106.45 67.7923 106.937C68.5238 107.425 69.488 107.636 70.2083 107.07C70.7846 106.616 70.9397 105.829 70.8178 105.142C70.6405 104.211 69.898 103.502 69.2331 102.881C68.9782 102.637 68.5903 103.025 68.8452 103.269H68.8563Z" fill="#CDDCE0"/>
        <path d="M41.4564 84.9821C43.9046 84.9821 45.8893 82.9974 45.8893 80.5492C45.8893 78.1009 43.9046 76.1162 41.4564 76.1162C39.0081 76.1162 37.0234 78.1009 37.0234 80.5492C37.0234 82.9974 39.0081 84.9821 41.4564 84.9821Z" fill="white"/>
        <path d="M41.0825 84.2168C42.9187 84.2168 44.4072 82.7283 44.4072 80.8921C44.4072 79.0559 42.9187 77.5674 41.0825 77.5674C39.2463 77.5674 37.7578 79.0559 37.7578 80.8921C37.7578 82.7283 39.2463 84.2168 41.0825 84.2168Z" fill="black"/>
        <path d="M50.0814 85.9352C52.5296 85.9352 54.5143 83.9505 54.5143 81.5023C54.5143 79.054 52.5296 77.0693 50.0814 77.0693C47.6331 77.0693 45.6484 79.054 45.6484 81.5023C45.6484 83.9505 47.6331 85.9352 50.0814 85.9352Z" fill="white"/>
        <path d="M49.7153 85.1699C51.5515 85.1699 53.0401 83.6814 53.0401 81.8452C53.0401 80.009 51.5515 78.5205 49.7153 78.5205C47.8791 78.5205 46.3906 80.009 46.3906 81.8452C46.3906 83.6814 47.8791 85.1699 49.7153 85.1699Z" fill="black"/>
        <path d="M40.0019 86.2793C43.252 86.2793 45.8867 83.6446 45.8867 80.3945C45.8867 77.1445 43.252 74.5098 40.0019 74.5098C36.7519 74.5098 34.1172 77.1445 34.1172 80.3945C34.1172 83.6446 36.7519 86.2793 40.0019 86.2793Z" stroke="black" stroke-width="0.554119" stroke-miterlimit="10"/>
        <path d="M51.7129 87.5644C54.9629 87.5644 57.5976 84.9297 57.5976 81.6797C57.5976 78.4296 54.9629 75.7949 51.7129 75.7949C48.4628 75.7949 45.8281 78.4296 45.8281 81.6797C45.8281 84.9297 48.4628 87.5644 51.7129 87.5644Z" stroke="black" stroke-width="0.554119" stroke-miterlimit="10"/>
        <path d="M41.9453 88.54C41.9453 88.54 44.062 91.6431 47.4754 89.3047" stroke="black" stroke-width="1.10824" stroke-linecap="round" stroke-linejoin="round"/>
    </g>
    <defs>
        <filter id="filter0_d_2722_48880" x="39.2796" y="10.4609" width="175.596" height="91.7809" filterUnits="userSpaceOnUse" color-interpolation-filters="sRGB">
            <feFlood flood-opacity="0" result="BackgroundImageFix"/>
            <feColorMatrix in="SourceAlpha" type="matrix" values="0 0 0 0 0 0 0 0 0 0 0 0 0 0 0 0 0 0 127 0" result="hardAlpha"/>
            <feOffset dx="2.09929" dy="4.19858"/>
            <feGaussianBlur stdDeviation="2.09929"/>
            <feComposite in2="hardAlpha" operator="out"/>
            <feColorMatrix type="matrix" values="0 0 0 0 0 0 0 0 0 0 0 0 0 0 0 0 0 0 0.1 0"/>
            <feBlend mode="normal" in2="BackgroundImageFix" result="effect1_dropShadow_2722_48880"/>
            <feBlend mode="normal" in="SourceGraphic" in2="effect1_dropShadow_2722_48880" result="shape"/>
        </filter>
        <radialGradient id="paint0_radial_2722_48880" cx="0" cy="0" r="1" gradientUnits="userSpaceOnUse" gradientTransform="translate(31.2066 84.5032) rotate(141.2) scale(12.7891)">
            <stop stop-color="#749EA9" stop-opacity="0.9"/>
            <stop offset="1" stop-color="#CDDCE0" stop-opacity="0"/>
        </radialGradient>
        <radialGradient id="paint1_radial_2722_48880" cx="0" cy="0" r="1" gradientUnits="userSpaceOnUse" gradientTransform="translate(67.4709 89.6491) scale(12.4898 12.4898)">
            <stop stop-color="#749EA9" stop-opacity="0.9"/>
            <stop offset="1" stop-color="#CDDCE0" stop-opacity="0"/>
        </radialGradient>
        <clipPath id="clip0_2722_48880">
            <rect width="90" height="81.8766" fill="white" transform="translate(0 58.4854)"/>
        </clipPath>
    </defs>
</svg>
