<svg width="50" height="51" viewBox="0 0 50 51" fill="none" xmlns="http://www.w3.org/2000/svg">
    <circle cx="25" cy="25.1504" r="25" fill="#64B0CD"/>
    <g clip-path="url(#clip0_713_241756)">
        <path d="M16.7579 24.314C16.4391 24.314 16.166 24.4301 15.9406 24.6589C15.7133 24.8895 15.6006 25.1693 15.6006 25.4967C15.6006 25.824 15.7133 26.1039 15.9406 26.3344C16.1678 26.565 16.4391 26.6811 16.7579 26.6811C17.0767 26.6811 17.3586 26.565 17.5893 26.3344C17.8201 26.1039 17.9346 25.8258 17.9346 25.4967C17.9346 25.1676 17.8201 24.8895 17.5893 24.6589C17.3586 24.4284 17.082 24.314 16.7579 24.314Z" fill="white" fill-opacity="0.9"/>
        <path d="M26.6451 24.3032C26.3263 24.3032 26.0532 24.4176 25.8278 24.6482C25.6005 24.8787 25.4878 25.1586 25.4878 25.4859C25.4878 25.8133 25.6023 26.0931 25.8278 26.3237C26.0532 26.5542 26.3263 26.6686 26.6451 26.6686C26.9639 26.6686 27.2458 26.5525 27.4765 26.3237C27.7073 26.0931 27.8218 25.8133 27.8218 25.4859C27.8218 25.1586 27.7073 24.8787 27.4765 24.6482C27.2458 24.4176 26.9692 24.3032 26.6451 24.3032Z" fill="white" fill-opacity="0.9"/>
        <path d="M33.2387 24.314C32.9198 24.314 32.6468 24.4301 32.4196 24.6589C32.1941 24.8895 32.0796 25.1693 32.0796 25.4967C32.0796 25.824 32.1941 26.1039 32.4196 26.3344C32.6468 26.565 32.9198 26.6811 33.2387 26.6811C33.5575 26.6811 33.8393 26.565 34.0701 26.3344C34.3008 26.1039 34.4153 25.8258 34.4153 25.4967C34.4153 25.1676 34.2991 24.8895 34.0701 24.6589C33.8393 24.4284 33.5628 24.314 33.2387 24.314Z" fill="white" fill-opacity="0.9"/>
        <path d="M36.1697 15.6265H13.8287C12.1165 15.6265 10.7144 17.0274 10.7144 18.7381V31.3625C10.7144 33.0732 12.1165 34.4741 13.8287 34.4741H22.6009C22.6009 34.4741 24.2955 39.0959 24.912 39.0959C25.5285 39.0959 27.3622 34.4741 27.3622 34.4741H36.1697C37.8836 34.4741 39.284 33.0732 39.284 31.3625V18.7381C39.284 17.0274 37.8819 15.6265 36.1697 15.6265ZM19.018 27.2811C18.5759 27.7792 17.8977 27.9886 17.1579 27.9886C16.4903 27.9886 16.0024 27.788 15.6413 27.5134H15.6201V27.8689H13.9432V20.5597H15.6201V23.3546H15.6413C16.0957 22.9674 16.6981 22.8354 17.408 22.8125C18.0157 22.7914 18.6481 23.1715 19.0268 23.6098C19.4038 24.0462 19.6804 24.7309 19.6804 25.4877C19.6804 26.3113 19.4619 26.783 19.018 27.2811ZM22.6185 27.9235H20.9081V23.4003C20.9081 22.3566 20.082 22.2194 20.082 22.2194V20.4101C20.082 20.4101 22.4794 20.5562 22.6185 23.4584V27.9235ZM29.3298 26.5366C29.1854 26.864 28.9775 27.1561 28.701 27.4131C28.4297 27.6665 28.1179 27.8619 27.7639 27.9974C27.4116 28.1329 27.0381 28.2016 26.6453 28.2016C26.2525 28.2016 25.8931 28.1329 25.5444 27.9974C25.1938 27.8619 24.882 27.6665 24.6073 27.4131C24.3237 27.1456 24.1105 26.8499 23.9643 26.526C23.8199 26.2022 23.7459 25.859 23.7459 25.4947C23.7459 25.1304 23.8181 24.7872 23.9643 24.4633C24.1105 24.1395 24.3237 23.8438 24.6073 23.5763C24.8838 23.3211 25.1956 23.1275 25.5444 22.992C25.8931 22.8565 26.2595 22.7896 26.6453 22.7896C27.0311 22.7896 27.4098 22.8565 27.7639 22.992C28.1161 23.1275 28.4279 23.3229 28.701 23.5763C28.9775 23.8333 29.1854 24.1254 29.3298 24.4528C29.4725 24.7801 29.5447 25.1269 29.5447 25.4947C29.5447 25.8625 29.4725 26.2075 29.3298 26.5348V26.5366ZM36.057 27.2617C36.057 28.5447 35.8139 29.3279 35.2396 29.8718C34.5579 30.5177 33.5873 30.5634 32.77 30.4473V29.1203C33.4517 29.1889 34.3906 28.7401 34.3888 27.8566V27.5169H34.3677C33.9854 28.0449 33.4271 28.2368 32.6837 28.2368C31.995 28.2368 31.3978 27.9833 30.9944 27.5099C30.5893 27.0364 30.3885 26.4028 30.3885 25.6073C30.3885 24.7168 30.6139 24.0075 31.0649 23.4848C31.5141 22.9603 32.157 22.7157 32.8916 22.7157C33.5504 22.7157 33.9643 22.8741 34.3695 23.2437H34.3906V22.8424H36.057V27.2635V27.2617Z" fill="white" fill-opacity="0.9"/>
    </g>
    <defs>
        <clipPath id="clip0_713_241756">
            <rect width="28.5714" height="23.4694" fill="white" transform="translate(10.7144 15.6265)"/>
        </clipPath>
    </defs>
</svg>