<svg width="225" height="28" viewBox="0 0 225 28" fill="none" xmlns="http://www.w3.org/2000/svg">
    <g clip-path="url(#clip0_713_241722)">
        <path d="M62.7195 0.140625H55.3667V14.1095H62.7195V0.140625Z" fill="#BBCF36"/>
        <path d="M66.0492 0.140625H62.7192V14.1017V27.9851H77.5114V14.1017H66.0492V0.140625Z" fill="#74AF68"/>
        <g style="mix-blend-mode:multiply">
            <path d="M84.3921 0.140625H77.5117V14.1095H84.3921V0.140625Z" fill="#86BD45"/>
        </g>
        <path d="M131.311 0.101562C123.163 0.101562 116.566 6.33156 116.566 14.0238C116.566 21.716 123.171 27.9538 131.311 27.9538C139.451 27.9538 146.064 21.716 146.064 14.0238C146.064 6.33156 139.459 0.101562 131.311 0.101562ZM131.311 19.3905C128.178 19.3905 125.635 16.9949 125.635 14.0316C125.635 11.0682 128.178 8.67267 131.311 8.67267C134.444 8.67267 136.987 11.0682 136.987 14.0316C136.987 16.9949 134.444 19.3905 131.311 19.3905Z" fill="#D74E6F"/>
        <path d="M192.251 0H177.459V27.8522H192.251V0Z" fill="#358E9D"/>
        <path d="M164.234 13.8833V0H149.441V27.8522H154.22V13.8833H164.234Z" fill="#7D637C"/>
        <g style="mix-blend-mode:multiply" opacity="0.8">
            <path d="M174.2 13.8828H164.233V27.8517H174.2V13.8828Z" fill="#EE7D7E"/>
        </g>
        <path d="M209.594 14.0316L220.017 4.18493C217.348 1.66493 213.664 0.109375 209.594 0.109375C201.446 0.109375 194.841 6.33938 194.841 14.0316C194.841 21.7238 201.446 27.9616 209.594 27.9616C213.664 27.9616 217.348 26.406 220.017 23.886L209.594 14.0394V14.0316Z" fill="#478D39"/>
        <path d="M99.4047 0.09375H86.6279V7.33486H99.4047V0.09375Z" fill="#D74E6F"/>
        <path d="M99.4047 21.3047H86.6279V27.9469H99.4047V21.3047Z" fill="#D74E6F"/>
        <path d="M100.948 0.140625V7.33507H106.073V21.304H100.948V27.9851H113.732V0.140625H100.948Z" fill="#F29B61"/>
        <path d="M220.017 23.8769C222.685 21.3569 224.339 17.8725 224.339 14.0303C224.339 10.188 222.685 6.70359 220.017 4.18359L209.594 14.0303L220.017 23.8769Z" fill="#D7BD4F"/>
        <path d="M164.233 13.8828H154.22V27.8517H164.233V13.8828Z" fill="#7A2B4B"/>
        <path d="M136.995 14.0308C136.995 16.9941 134.452 19.3897 131.319 19.3897C128.186 19.3897 125.643 16.9941 125.643 14.0308C125.643 11.0674 128.186 8.67188 131.319 8.67188C134.452 8.67188 136.995 11.0674 136.995 14.0308Z" fill="#F1BA79"/>
        <path d="M100.948 7.33398H99.4048V21.3029H100.948V7.33398Z" fill="#E4935D"/>
        <path d="M99.4047 7.33398H86.6279V21.3029H99.4047V7.33398Z" fill="#C13456"/>
        <path d="M106.065 7.33398H100.948V21.3029H106.065V7.33398Z" fill="#CE3E2C"/>
        <path d="M77.5114 0.140625H66.0493V14.1095H77.5114V0.140625Z" fill="#478D39"/>
        <path d="M43.9361 0L60.2984 28H27.5737L43.9361 0Z" fill="#4BB1D8"/>
        <path d="M39.2129 28.0004H48.6597L43.9363 20.2227L39.2129 28.0004Z" fill="#C5D200"/>
        <path d="M32.2766 0H0V28H32.2766V0Z" fill="#5B6165"/>
        <path d="M16.1382 14.7778L25.1913 0H7.08496L16.1382 14.7778Z" fill="#BBD5E9"/>
        <path d="M27.6934 27.9998L32.2891 28V20L27.6934 27.9998Z" fill="#478D39"/>
    </g>
    <defs>
        <clipPath id="clip0_713_241722">
            <rect width="225" height="28" fill="white"/>
        </clipPath>
    </defs>
</svg>