<svg width="1280" height="75" viewBox="0 0 1280 75" fill="none" xmlns="http://www.w3.org/2000/svg">
    <path d="M112.949 49.7608L4.33025 21.6989C-32.0276 12.3058 -70.6278 23.1917 -96.7207 50.1969L-109.791 63.7241C-120.188 74.4852 -126 88.8638 -126 103.827C-126 135.881 -99.8815 161.794 -67.8293 161.54L1270.23 150.965C1303.66 150.7 1331.51 125.281 1334.82 92.0153C1338.07 59.3772 1316.66 29.3758 1284.73 21.8457L1213.46 5.03483C1198.02 1.39107 1181.95 1.247 1166.44 4.61319L1000.25 40.6812C928.603 56.2306 853.993 50.8098 785.346 25.0671C725.73 2.71142 661.469 -4.3712 598.416 4.46464L228.354 56.3226C189.827 61.7215 150.615 59.4919 112.949 49.7608Z" fill="#C1E9F8"/>
</svg>