<svg width="50" height="51" viewBox="0 0 50 51" fill="none" xmlns="http://www.w3.org/2000/svg">
    <circle cx="25" cy="25.1504" r="25" fill="#64B0CD"/>
    <path d="M25 13.2456C28.2345 13.2456 28.6381 13.2575 29.9071 13.317C31.175 13.3766 32.0381 13.5754 32.7976 13.8706C33.5833 14.173 34.2452 14.5825 34.9071 15.2432C35.5125 15.8383 35.9809 16.5582 36.2797 17.3527C36.5738 18.1111 36.7738 18.9754 36.8333 20.2432C36.8893 21.5123 36.9047 21.9158 36.9047 25.1504C36.9047 28.3849 36.8928 28.7885 36.8333 30.0575C36.7738 31.3254 36.5738 32.1885 36.2797 32.948C35.9817 33.743 35.5132 34.463 34.9071 35.0575C34.3118 35.6627 33.592 36.131 32.7976 36.4301C32.0393 36.7242 31.175 36.9242 29.9071 36.9837C28.6381 37.0397 28.2345 37.0551 25 37.0551C21.7655 37.0551 21.3619 37.0432 20.0928 36.9837C18.825 36.9242 17.9619 36.7242 17.2024 36.4301C16.4075 36.1319 15.6875 35.6634 15.0928 35.0575C14.4874 34.4625 14.0189 33.7426 13.7202 32.948C13.425 32.1897 13.2262 31.3254 13.1666 30.0575C13.1107 28.7885 13.0952 28.3849 13.0952 25.1504C13.0952 21.9158 13.1071 21.5123 13.1666 20.2432C13.2262 18.9742 13.425 18.1123 13.7202 17.3527C14.0181 16.5577 14.4866 15.8377 15.0928 15.2432C15.6877 14.6375 16.4076 14.1691 17.2024 13.8706C17.9619 13.5754 18.8238 13.3766 20.0928 13.317C21.3619 13.2611 21.7655 13.2456 25 13.2456ZM25 19.198C23.4213 19.198 21.9073 19.8251 20.791 20.9414C19.6747 22.0577 19.0476 23.5717 19.0476 25.1504C19.0476 26.729 19.6747 28.243 20.791 29.3593C21.9073 30.4756 23.4213 31.1027 25 31.1027C26.5786 31.1027 28.0927 30.4756 29.2089 29.3593C30.3252 28.243 30.9524 26.729 30.9524 25.1504C30.9524 23.5717 30.3252 22.0577 29.2089 20.9414C28.0927 19.8251 26.5786 19.198 25 19.198ZM32.7381 18.9004C32.7381 18.5057 32.5813 18.1272 32.3022 17.8481C32.0231 17.5691 31.6446 17.4123 31.25 17.4123C30.8553 17.4123 30.4768 17.5691 30.1977 17.8481C29.9187 18.1272 29.7619 18.5057 29.7619 18.9004C29.7619 19.295 29.9187 19.6735 30.1977 19.9526C30.4768 20.2317 30.8553 20.3885 31.25 20.3885C31.6446 20.3885 32.0231 20.2317 32.3022 19.9526C32.5813 19.6735 32.7381 19.295 32.7381 18.9004ZM25 21.5789C25.9472 21.5789 26.8556 21.9552 27.5254 22.625C28.1951 23.2948 28.5714 24.2032 28.5714 25.1504C28.5714 26.0976 28.1951 27.006 27.5254 27.6757C26.8556 28.3455 25.9472 28.7218 25 28.7218C24.0528 28.7218 23.1444 28.3455 22.4746 27.6757C21.8048 27.006 21.4285 26.0976 21.4285 25.1504C21.4285 24.2032 21.8048 23.2948 22.4746 22.625C23.1444 21.9552 24.0528 21.5789 25 21.5789Z" fill="white" fill-opacity="0.9"/>
</svg>