<svg width="50" height="51" viewBox="0 0 50 51" fill="none" xmlns="http://www.w3.org/2000/svg">
    <circle cx="25" cy="25.1504" r="25" fill="#64B0CD"/>
    <path d="M36.3607 18.6003C36.9047 20.7217 36.9047 25.1503 36.9047 25.1503C36.9047 25.1503 36.9047 29.5788 36.3607 31.7003C36.0583 32.8729 35.1738 33.7955 34.0535 34.1074C32.019 34.6741 25 34.6741 25 34.6741C25 34.6741 17.9845 34.6741 15.9464 34.1074C14.8214 33.7908 13.9381 32.8693 13.6393 31.7003C13.0952 29.5788 13.0952 25.1503 13.0952 25.1503C13.0952 25.1503 13.0952 20.7217 13.6393 18.6003C13.9416 17.4277 14.8262 16.505 15.9464 16.1931C17.9845 15.6265 25 15.6265 25 15.6265C25 15.6265 32.019 15.6265 34.0535 16.1931C35.1785 16.5098 36.0619 17.4312 36.3607 18.6003ZM22.619 29.3169L29.7619 25.1503L22.619 20.9836V29.3169Z" fill="white" fill-opacity="0.9"/>
</svg>