<svg width="1024" height="1024" viewBox="0 0 1024 1024" fill="none" xmlns="http://www.w3.org/2000/svg">
<g clip-path="url(#clip0_2_641)">
<rect width="1024" height="1024" fill="white"/>
<path d="M312.112 245.148C297.803 246.466 268.303 254.464 268.102 298.451C268.035 314.391 268.828 329.448 272.894 339.3C280.054 356.613 294.452 362.612 311.286 363.315C324.098 363.863 338.552 361.483 348.068 351.71C360.657 338.786 362.79 315.329 362.355 301.601C362.131 294.285 361.383 282.4 359.585 275.285C357.217 265.935 345.242 253.402 338.585 250.867C330.554 247.817 321.718 244.254 312.112 245.137V245.148Z" fill="#00C0F4"/>
<path d="M348.08 351.71C360.668 338.786 362.802 315.329 362.366 301.601C362.143 294.285 361.394 282.4 359.596 275.285C357.228 265.935 345.254 253.402 338.596 250.867C337.032 250.275 335.435 249.661 333.815 249.069C343.868 259.412 345.678 265.913 348.214 278.524C350.057 287.65 350.191 299.378 348.348 310.894C346.304 323.617 344.907 332.218 336.295 341.333L348.08 351.699V351.71Z" fill="#009FD6"/>
<path d="M141.435 353.597C151.164 338.429 175.079 336.396 194.068 335.737C212.386 335.1 227.399 336.396 241.764 336.597C261.255 336.876 280.3 332.698 298.071 331.045C328.722 328.186 357.217 321.383 399.115 313.14C441.014 304.885 485.85 285.483 503.823 321.204C510.067 333.614 513.787 349.219 514.959 361.025C516.981 381.254 500.975 395.396 481.014 399.852C447.102 407.414 425.03 407.303 390.648 411.86C383.645 412.787 364.857 415.747 358.267 416.652C332.509 420.193 311.308 421.656 294.307 424.304C284.165 425.878 261.68 427.956 242.266 429.632C220.809 431.497 203.797 433.362 197.296 434.211C184.908 435.842 148.695 436.613 139.457 412.765C124.277 373.558 136.106 361.897 141.423 353.609L141.435 353.597Z" fill="#00C0F4"/>
<path d="M503.812 321.204C496.942 307.555 486.152 301.958 473.094 300.707C483.84 304.751 491.011 314 493.926 322.087C503.466 348.56 504.728 373.525 477.864 385.566C464.583 391.52 448.867 394.2 417.937 399.674C390.392 404.555 361.819 404.968 340.551 407.995C317.932 411.212 294.341 410.43 270.973 412.72C232.213 416.529 190.616 430.436 169.829 424.225C145.489 416.954 136.218 403.293 135.213 400.154C136.297 404.008 137.693 408.185 139.458 412.754C145.858 429.274 165.193 433.977 180.597 434.77C180.597 434.77 180.597 434.77 180.608 434.77C181.814 434.837 182.987 434.87 184.138 434.893C189.499 434.982 194.157 434.625 197.296 434.211C203.797 433.362 220.809 431.486 242.266 429.632C261.669 427.945 284.165 425.867 294.307 424.303C311.308 421.667 332.52 420.204 358.267 416.652C364.857 415.747 383.645 412.787 390.649 411.86C425.019 407.303 447.102 407.414 481.014 399.852C500.975 395.407 516.97 381.254 514.96 361.025C513.787 349.219 510.067 333.614 503.823 321.204H503.812Z" fill="#009FD6"/>
<path d="M372.564 693.378C390.447 690.574 406.789 688.709 437.216 667.999C478.445 639.94 493.949 594.244 485.191 546.95C474.613 489.86 433.608 445.091 373.815 436.278C342.751 431.698 310.381 437.875 281.417 449.056C256.452 458.696 240.848 476.11 226.025 497.322C225.802 497.646 225.567 497.97 225.332 498.294C216.508 510.603 200.01 540.851 205.483 589.418C210.957 637.986 235.296 659.745 250.443 670.479C265.589 681.214 303.042 704.302 372.553 693.389L372.564 693.378Z" fill="#00C0F4"/>
<path d="M250.454 670.468C265.6 681.202 303.053 704.291 372.564 693.378C390.447 690.574 406.789 688.709 437.216 667.999C478.445 639.94 493.949 594.244 485.191 546.95C476.524 500.181 447.437 461.701 404.332 444.465C425.477 458.674 457.713 483.639 463.857 550.022C468.861 604.141 431.33 644.23 408.99 656.539C384.539 670.021 350.146 677.851 313.888 676.723C262.674 675.137 224.484 643.627 223.713 643.135C232.526 656.55 242.702 664.961 250.465 670.457L250.454 670.468Z" fill="#009FD6"/>
<path d="M344.762 484.711C344.784 485.392 344.717 486.096 344.539 486.811C343.567 490.575 339.948 492.619 336.262 492.753C331.805 492.932 327.292 489.413 326.935 484.856C326.32 477.138 333.894 474.613 340.015 477.774C342.707 479.159 344.65 481.762 344.762 484.711Z" fill="white"/>
<path d="M378.473 480.544C378.853 483.069 378.015 485.638 375.29 487.481C368.297 492.217 361.215 486.118 362.344 478.355C362.88 474.658 366.03 471.508 369.883 471.608C374.296 471.72 377.881 476.501 378.484 480.556L378.473 480.544Z" fill="white"/>
<path d="M354.86 527.224C351.855 527.224 348.85 526.732 345.969 525.705C340.506 523.75 335.178 518.88 332.062 512.993C330.587 510.201 331.649 506.738 334.441 505.253C337.245 503.767 340.696 504.839 342.182 507.632C343.936 510.938 347.074 513.932 349.822 514.915C356.089 517.16 363.807 514.814 368.174 509.352C369.727 507.408 370.598 504.85 370.543 502.359C370.476 499.198 372.989 496.573 376.15 496.506C379.166 496.361 381.925 498.941 382.003 502.103C382.115 507.319 380.383 512.424 377.133 516.501C371.648 523.359 363.249 527.213 354.86 527.213V527.224Z" fill="white"/>
<path d="M631.965 370.453C614.484 371.302 597.428 374.106 583.677 381.388C572.262 387.431 568.598 398.076 564.956 411.279C559.986 429.341 561.103 454.708 569.391 464.739C577.891 475.027 589.229 475.786 600.678 477.473C619.756 480.288 640.421 479.539 658.539 484.432C662.549 485.515 666.559 487.235 669.307 490.363C675.16 497.02 675.673 511.273 674.154 519.74C672.635 528.207 667.05 531.982 659.924 536.182C654.908 539.142 648.944 540.025 643.124 540.393C617.668 541.991 590.011 535.143 567.928 547.911C543.901 561.806 535.188 594.244 531.122 619.812C525.817 653.21 530.787 692.786 552.424 719.75C610.061 791.584 716.008 787.898 795.974 763.95C812.305 759.057 828.356 753.249 844.039 746.569C857.544 740.806 872.567 735.165 882.643 723.983C899.319 705.508 889.512 681.303 885.569 659.991C875.806 607.335 837.013 606.866 794.109 621.633C786.782 624.157 779.555 626.95 772.305 629.675C755.215 636.109 738.203 643.213 720.253 646.922C711.172 648.798 701.856 649.781 692.574 649.189C684.152 648.642 673.54 649.245 668.391 640.968C662.761 631.909 663.208 619.198 663.911 608.977C664.537 599.862 671.563 592.189 679.773 588.167C687.983 584.146 697.276 583.119 706.358 582.136C725.659 580.069 735.813 578.952 755.539 576.785C773.221 574.842 802.062 571.133 816.672 560.086C834.165 546.861 841.738 540.74 847.289 519.528C855.656 487.593 860.917 454.775 842.754 427.208C831.64 410.33 813.299 399.562 794.601 391.877C760.309 377.78 723.269 372.508 686.408 371.414C670.167 370.933 650.809 369.559 631.954 370.475L631.965 370.453Z" fill="#FF8700"/>
<path d="M830.758 457.356C825.24 494.038 824.626 531.457 793.953 548.637C763.28 565.816 735.064 564.141 701.331 574.797C667.598 585.442 662.292 600.22 663.565 616.104C663.632 613.646 663.766 611.245 663.923 608.966C664.548 599.851 671.574 592.177 679.784 588.156C687.994 584.135 697.288 583.107 706.369 582.124C725.682 580.058 735.824 578.941 755.55 576.774C773.232 574.83 802.073 571.122 816.684 560.075C834.176 546.85 841.749 540.728 847.301 519.517C855.667 487.582 860.928 454.764 842.766 427.197C832.165 411.101 814.997 400.578 797.226 392.972C812.752 407.928 834.343 433.496 830.747 457.367L830.758 457.356Z" fill="#E27100"/>
<path d="M795.986 763.95C812.316 759.057 828.367 753.249 844.05 746.569C857.555 740.806 872.578 735.165 882.654 723.984C899.33 705.508 889.523 681.303 885.58 659.991C875.818 607.335 837.024 606.866 794.12 621.633C849.479 614.875 847.948 641.895 856.538 670.111C865.128 698.326 868.188 728.385 721.582 757.829C624.135 777.398 561.896 722.364 539.042 696.941C542.505 705.162 546.928 712.869 552.446 719.761C610.083 791.596 716.031 787.909 795.997 763.961L795.986 763.95Z" fill="#E27100"/>
<path d="M628.447 362.388C626.012 358.881 623.331 354.357 619.41 352.436C616.149 350.85 611.971 360.735 611.055 362.612C608.877 367.057 603.873 374.943 605.671 379.825C606.676 382.561 609.983 382.84 612.485 382.729C624.839 382.17 637.193 381.858 649.558 381.779C661.644 381.701 673.942 381.388 685.995 382.405C686.464 382.45 686.933 382.483 687.402 382.539C690.932 382.896 694.193 382.584 697.768 382.282C700.37 382.059 704.179 382.304 704.526 379.344C704.872 376.362 702.493 373.458 700.884 371.179C697.399 366.242 694.629 360.858 691.959 355.452C690.016 351.497 688.072 349.621 684.766 353.631C682.241 356.68 679.427 359.942 677.371 363.438C676.377 365.136 674.02 370.006 671.395 367.973C668.067 365.382 664.705 362.489 661.756 359.35C659.779 357.25 656.785 351.252 653.322 351.989C650.787 352.536 649.424 355.15 648.296 357.216C645.604 362.142 640.868 367.515 634.78 367.515C632.111 367.515 630.033 364.645 628.659 362.701C628.592 362.6 628.514 362.5 628.447 362.399V362.388Z" fill="#00C0F4"/>
<path d="M617.947 419.958C617.847 420.64 617.645 421.31 617.333 421.98C615.691 425.499 611.748 426.839 608.106 426.292C603.694 425.644 599.907 421.355 600.399 416.808C601.226 409.112 609.123 408.018 614.563 412.262C616.953 414.128 618.383 417.032 617.947 419.958Z" fill="white"/>
<path d="M651.859 422.092C651.759 424.65 650.463 427.007 647.447 428.314C639.706 431.676 633.864 424.382 636.411 416.954C637.617 413.413 641.292 410.9 645.068 411.715C649.391 412.642 652.027 417.992 651.87 422.092H651.859Z" fill="white"/>
<path d="M636.623 454.429C616.998 454.429 603.526 448.341 602.89 448.051C600.019 446.733 598.757 443.326 600.086 440.455C601.415 437.585 604.8 436.334 607.671 437.652C607.927 437.763 622.884 444.376 643.359 442.712C646.553 442.477 649.279 444.8 649.536 447.95C649.793 451.1 647.447 453.871 644.297 454.127C641.65 454.34 639.092 454.44 636.623 454.44V454.429Z" fill="white"/>
</g>
<defs>
<clipPath id="clip0_2_641">
<rect width="1024" height="1024" rx="255" fill="white"/>
</clipPath>
</defs>
</svg>
