<svg width="450" height="338" viewBox="0 0 450 338" fill="none" xmlns="http://www.w3.org/2000/svg">
    <rect width="450" height="338" rx="20" fill="white"/>
    <path d="M42 63.25C42 59.7982 44.7982 57 48.25 57L48.25 119.5H43.0417C42.4664 119.5 42 119.034 42 118.458L42 63.25Z" fill="#EF5F45"/>
    <path d="M48.25 57L80.2622 57H88.875C90.6009 57 92 58.3991 92 60.125V116.375C92 118.101 90.6009 119.5 88.875 119.5H48.25L48.25 57Z" fill="#F97861"/>
    <rect x="57.625" y="64.292" width="23.9583" height="5.20833" rx="1.04167" fill="white"/>
    <path d="M42 117.938C42 115.349 44.0987 113.25 46.6875 113.25L92 113.25V122.625L46.6875 122.625C44.0987 122.625 42 120.526 42 117.938Z" fill="#E6553C"/>
    <path d="M45.125 117.937C45.125 116.499 46.2909 115.333 47.7292 115.333L92 115.333V117.937V120.541H47.7292C46.2909 120.541 45.125 119.375 45.125 117.937Z" fill="white"/>
    <g clip-path="url(#clip0_858_41791)">
        <path fill-rule="evenodd" clip-rule="evenodd" d="M64.2331 95.0605H58.5039V103.434H64.2331V95.0605ZM62.4703 98.5862H60.2667V100.79H62.4703V98.5862Z" fill="white"/>
        <path fill-rule="evenodd" clip-rule="evenodd" d="M79.6628 95.0605H73.9336V103.434H79.6628V95.0605ZM77.8999 98.5862H75.6964V100.79H77.8999V98.5862Z" fill="white"/>
        <rect x="68.6445" y="80.958" width="0.88141" height="7.93269" fill="white"/>
        <path d="M60.6532 91.9756H64.237V94.1791H58.5078L60.6532 91.9756Z" fill="white"/>
        <path d="M77.5147 91.9756H73.931V94.1791H79.6602L77.5147 91.9756Z" fill="white"/>
        <path fill-rule="evenodd" clip-rule="evenodd" d="M72.5928 89.2097V103.458H64.6602V89.2097L68.6787 84.9482L72.5928 89.2097ZM70.3895 91.5586C70.3895 92.5322 69.6003 93.3215 68.6267 93.3215C67.6531 93.3215 66.8639 92.5322 66.8639 91.5586C66.8639 90.5851 67.6531 89.7958 68.6267 89.7958C69.6003 89.7958 70.3895 90.5851 70.3895 91.5586ZM70.3895 96.823V103.434H66.8639V96.823H70.3895Z" fill="white"/>
        <rect x="69.082" y="81.8633" width="3.96635" height="2.64423" fill="white"/>
    </g>
    <path d="M42 144.75C42 141.298 44.7982 138.5 48.25 138.5L48.25 201H43.0417C42.4664 201 42 200.534 42 199.958L42 144.75Z" fill="#6AC020"/>
    <path d="M48.25 138.5H80.2622H88.875C90.6009 138.5 92 139.899 92 141.625V197.875C92 199.601 90.6009 201 88.875 201H48.25L48.25 138.5Z" fill="#7ACB33"/>
    <rect x="57.625" y="145.792" width="23.9583" height="5.20833" rx="1.04167" fill="white"/>
    <path d="M42 199.438C42 196.849 44.0987 194.75 46.6875 194.75H92V204.125H46.6875C44.0987 204.125 42 202.026 42 199.438Z" fill="#5FB118"/>
    <path d="M45.125 199.437C45.125 197.999 46.2909 196.833 47.7292 196.833H92V199.437V202.041H47.7292C46.2909 202.041 45.125 200.875 45.125 199.437Z" fill="white"/>
    <g clip-path="url(#clip1_858_41791)">
        <path fill-rule="evenodd" clip-rule="evenodd" d="M64.2331 176.561H58.5039V184.934H64.2331V176.561ZM62.4703 180.086H60.2667V182.29H62.4703V180.086Z" fill="white"/>
        <path fill-rule="evenodd" clip-rule="evenodd" d="M79.6628 176.561H73.9336V184.934H79.6628V176.561ZM77.8999 180.086H75.6964V182.29H77.8999V180.086Z" fill="white"/>
        <rect x="68.6445" y="162.458" width="0.88141" height="7.93269" fill="white"/>
        <path d="M60.6532 173.476H64.237V175.679H58.5078L60.6532 173.476Z" fill="white"/>
        <path d="M77.5147 173.476H73.931V175.679H79.6602L77.5147 173.476Z" fill="white"/>
        <path fill-rule="evenodd" clip-rule="evenodd" d="M72.5928 170.71V184.958H64.6602V170.71L68.6787 166.448L72.5928 170.71ZM70.3895 173.059C70.3895 174.032 69.6003 174.821 68.6267 174.821C67.6531 174.821 66.8639 174.032 66.8639 173.059C66.8639 172.085 67.6531 171.296 68.6267 171.296C69.6003 171.296 70.3895 172.085 70.3895 173.059ZM70.3895 178.323V184.934H66.8639V178.323H70.3895Z" fill="white"/>
        <rect x="69.082" y="163.363" width="3.96635" height="2.64423" fill="white"/>
    </g>
    <path d="M42 226.25C42 222.798 44.7982 220 48.25 220L48.25 282.5H43.0417C42.4664 282.5 42 282.034 42 281.458L42 226.25Z" fill="#4B9FED"/>
    <path d="M48.25 220H80.2622H88.875C90.6009 220 92 221.399 92 223.125V279.375C92 281.101 90.6009 282.5 88.875 282.5H48.25L48.25 220Z" fill="#5EADF7"/>
    <rect x="57.625" y="227.292" width="23.9583" height="5.20833" rx="1.04167" fill="white"/>
    <path d="M42 280.938C42 278.349 44.0987 276.25 46.6875 276.25H92V285.625H46.6875C44.0987 285.625 42 283.526 42 280.938Z" fill="#409AEE"/>
    <path d="M45.125 280.937C45.125 279.499 46.2909 278.333 47.7292 278.333H92V280.937V283.541H47.7292C46.2909 283.541 45.125 282.375 45.125 280.937Z" fill="white"/>
    <g clip-path="url(#clip2_858_41791)">
        <path fill-rule="evenodd" clip-rule="evenodd" d="M64.2331 258.061H58.5039V266.434H64.2331V258.061ZM62.4703 261.586H60.2667V263.79H62.4703V261.586Z" fill="white"/>
        <path fill-rule="evenodd" clip-rule="evenodd" d="M79.6628 258.061H73.9336V266.434H79.6628V258.061ZM77.8999 261.586H75.6964V263.79H77.8999V261.586Z" fill="white"/>
        <rect x="68.6445" y="243.958" width="0.88141" height="7.93269" fill="white"/>
        <path d="M60.6532 254.976H64.237V257.179H58.5078L60.6532 254.976Z" fill="white"/>
        <path d="M77.5147 254.976H73.931V257.179H79.6602L77.5147 254.976Z" fill="white"/>
        <path fill-rule="evenodd" clip-rule="evenodd" d="M72.5928 252.21V266.458H64.6602V252.21L68.6787 247.948L72.5928 252.21ZM70.3895 254.559C70.3895 255.532 69.6003 256.321 68.6267 256.321C67.6531 256.321 66.8639 255.532 66.8639 254.559C66.8639 253.585 67.6531 252.796 68.6267 252.796C69.6003 252.796 70.3895 253.585 70.3895 254.559ZM70.3895 259.823V266.434H66.8639V259.823H70.3895Z" fill="white"/>
        <rect x="69.082" y="244.863" width="3.96635" height="2.64423" fill="white"/>
    </g>
    <path d="M110.76 95.3502C110.401 94.9304 109.77 94.881 109.35 95.2399C108.93 95.5987 108.881 96.23 109.24 96.6498L110.76 95.3502ZM163 158L160.891 146.647L152.114 154.15L163 158ZM109.24 96.6498L156.392 151.809L157.912 150.509L110.76 95.3502L109.24 96.6498Z" fill="#BFC5CB"/>
    <path d="M110.775 245.632C110.426 246.06 109.796 246.124 109.368 245.775C108.94 245.426 108.876 244.796 109.225 244.368L110.775 245.632ZM163 180L161.155 191.399L152.206 184.102L163 180ZM109.225 244.368L156.538 186.343L158.088 187.607L110.775 245.632L109.225 244.368Z" fill="#BFC5CB"/>
    <path d="M110 170C109.448 170 109 169.552 109 169C109 168.448 109.448 168 110 168V170ZM163 169L153 174.774V163.226L163 169ZM110 168H154V170H110V168Z" fill="#BFC5CB"/>
    <rect x="186.5" y="256.5" width="173.618" height="222" rx="10.5" transform="rotate(-90 186.5 256.5)" fill="white"/>
    <rect x="186.5" y="256.5" width="173.618" height="222" rx="10.5" transform="rotate(-90 186.5 256.5)" stroke="#D9DDE0" stroke-width="3"/>
    <circle cx="194" cy="169.691" r="4" fill="#BFC5CB"/>
    <rect x="203" y="92.3818" width="196" height="154.618" rx="7" fill="white"/>
    <rect x="203" y="92.3818" width="196" height="154.618" rx="7" stroke="#D9DDE0" stroke-width="2"/>
    <g clip-path="url(#clip3_858_41791)">
        <path d="M224.757 105.979C224.249 106.026 223.203 106.309 223.195 107.87C223.193 108.436 223.221 108.97 223.365 109.319C223.62 109.934 224.13 110.147 224.728 110.172C225.182 110.191 225.695 110.107 226.033 109.76C226.479 109.301 226.555 108.469 226.54 107.982C226.532 107.722 226.505 107.301 226.441 107.048C226.357 106.716 225.932 106.272 225.696 106.182C225.411 106.074 225.098 105.947 224.757 105.978V105.979Z" fill="#00C0F4"/>
        <path d="M226.033 109.76C226.48 109.301 226.556 108.469 226.54 107.982C226.532 107.722 226.506 107.301 226.442 107.048C226.358 106.717 225.933 106.272 225.697 106.182C225.641 106.161 225.585 106.139 225.527 106.118C225.884 106.485 225.948 106.716 226.038 107.163C226.104 107.487 226.108 107.903 226.043 108.312C225.97 108.763 225.921 109.068 225.615 109.392L226.033 109.76V109.76Z" fill="#009FD6"/>
        <path d="M218.702 109.827C219.047 109.289 219.896 109.217 220.569 109.193C221.219 109.171 221.752 109.217 222.262 109.224C222.953 109.234 223.629 109.086 224.26 109.027C225.347 108.925 226.358 108.684 227.845 108.392C229.331 108.099 230.922 107.41 231.56 108.678C231.781 109.118 231.913 109.672 231.955 110.091C232.027 110.808 231.459 111.31 230.75 111.468C229.547 111.737 228.764 111.733 227.544 111.894C227.296 111.927 226.629 112.032 226.395 112.064C225.481 112.19 224.729 112.242 224.126 112.336C223.766 112.392 222.968 112.465 222.28 112.525C221.518 112.591 220.915 112.657 220.684 112.687C220.244 112.745 218.96 112.773 218.632 111.926C218.093 110.535 218.513 110.122 218.702 109.828L218.702 109.827Z" fill="#00C0F4"/>
        <path d="M231.559 108.677C231.315 108.193 230.932 107.995 230.469 107.95C230.85 108.094 231.104 108.422 231.208 108.709C231.546 109.648 231.591 110.534 230.638 110.961C230.167 111.172 229.609 111.267 228.512 111.462C227.534 111.635 226.521 111.649 225.766 111.757C224.963 111.871 224.126 111.843 223.297 111.924C221.922 112.06 220.446 112.553 219.709 112.333C218.845 112.075 218.516 111.59 218.48 111.479C218.519 111.615 218.568 111.764 218.631 111.926C218.858 112.512 219.544 112.679 220.091 112.707C220.091 112.707 220.091 112.707 220.091 112.707C220.134 112.709 220.176 112.71 220.216 112.711C220.407 112.714 220.572 112.702 220.683 112.687C220.914 112.657 221.517 112.59 222.279 112.525C222.967 112.465 223.765 112.391 224.125 112.335C224.728 112.242 225.481 112.19 226.395 112.064C226.628 112.032 227.295 111.927 227.544 111.894C228.763 111.732 229.547 111.736 230.75 111.468C231.458 111.31 232.025 110.808 231.954 110.09C231.913 109.671 231.781 109.118 231.559 108.677H231.559Z" fill="#009FD6"/>
        <path d="M226.904 121.882C227.539 121.783 228.119 121.717 229.198 120.982C230.661 119.986 231.211 118.365 230.9 116.687C230.525 114.661 229.07 113.073 226.949 112.76C225.846 112.598 224.698 112.817 223.67 113.213C222.785 113.556 222.231 114.173 221.705 114.926C221.697 114.937 221.689 114.949 221.68 114.96C221.367 115.397 220.782 116.47 220.976 118.194C221.17 119.917 222.034 120.689 222.571 121.07C223.109 121.451 224.438 122.27 226.904 121.883L226.904 121.882Z" fill="#00C0F4"/>
        <path d="M222.57 121.07C223.107 121.45 224.436 122.27 226.902 121.882C227.537 121.783 228.117 121.717 229.196 120.982C230.659 119.986 231.209 118.365 230.899 116.687C230.591 115.028 229.559 113.662 228.03 113.051C228.78 113.555 229.924 114.441 230.142 116.796C230.319 118.716 228.987 120.139 228.195 120.575C227.327 121.054 226.107 121.331 224.821 121.291C223.003 121.235 221.648 120.117 221.621 120.1C221.934 120.576 222.295 120.874 222.57 121.069L222.57 121.07Z" fill="#009FD6"/>
        <path d="M225.915 114.479C225.916 114.503 225.913 114.528 225.907 114.553C225.873 114.687 225.744 114.759 225.613 114.764C225.455 114.771 225.295 114.646 225.282 114.484C225.261 114.21 225.529 114.121 225.747 114.233C225.842 114.282 225.911 114.374 225.915 114.479Z" fill="white"/>
        <path d="M227.112 114.331C227.125 114.42 227.095 114.512 226.999 114.577C226.751 114.745 226.499 114.529 226.539 114.253C226.558 114.122 226.67 114.01 226.807 114.014C226.963 114.018 227.091 114.187 227.112 114.331L227.112 114.331Z" fill="white"/>
        <path d="M226.274 115.988C226.167 115.988 226.061 115.97 225.958 115.934C225.765 115.864 225.576 115.691 225.465 115.483C225.413 115.384 225.45 115.261 225.549 115.208C225.649 115.155 225.771 115.193 225.824 115.292C225.886 115.41 225.998 115.516 226.095 115.551C226.317 115.63 226.591 115.547 226.746 115.353C226.801 115.284 226.832 115.194 226.83 115.105C226.828 114.993 226.917 114.9 227.029 114.898C227.136 114.893 227.234 114.984 227.237 115.096C227.241 115.281 227.179 115.462 227.064 115.607C226.87 115.85 226.572 115.987 226.274 115.987V115.988Z" fill="white"/>
        <path d="M236.108 110.425C235.488 110.455 234.883 110.555 234.395 110.813C233.99 111.028 233.86 111.405 233.731 111.874C233.554 112.515 233.594 113.415 233.888 113.771C234.19 114.136 234.592 114.162 234.998 114.222C235.675 114.322 236.408 114.296 237.051 114.469C237.193 114.508 237.336 114.569 237.433 114.68C237.641 114.916 237.659 115.422 237.605 115.722C237.551 116.022 237.353 116.156 237.1 116.305C236.922 116.41 236.711 116.442 236.504 116.455C235.601 116.511 234.62 116.269 233.836 116.721C232.984 117.215 232.675 118.365 232.53 119.273C232.342 120.458 232.518 121.862 233.286 122.818C235.331 125.367 239.09 125.236 241.927 124.387C242.507 124.213 243.076 124.007 243.633 123.77C244.112 123.566 244.645 123.365 245.003 122.969C245.594 122.313 245.246 121.454 245.106 120.698C244.76 118.83 243.384 118.813 241.861 119.337C241.601 119.427 241.345 119.526 241.088 119.623C240.481 119.851 239.878 120.103 239.241 120.234C238.919 120.301 238.588 120.336 238.259 120.315C237.96 120.296 237.583 120.317 237.401 120.023C237.201 119.702 237.217 119.251 237.242 118.888C237.264 118.565 237.513 118.293 237.805 118.15C238.096 118.007 238.426 117.971 238.748 117.936C239.433 117.863 239.793 117.823 240.493 117.746C241.12 117.677 242.143 117.545 242.662 117.153C243.282 116.684 243.551 116.467 243.748 115.714C244.045 114.581 244.232 113.417 243.587 112.439C243.193 111.84 242.542 111.458 241.879 111.185C240.662 110.685 239.348 110.498 238.04 110.459C237.464 110.442 236.777 110.393 236.108 110.426L236.108 110.425Z" fill="#FF8700"/>
        <path d="M243.161 113.508C242.965 114.81 242.943 116.137 241.855 116.747C240.767 117.356 239.765 117.297 238.569 117.675C237.372 118.053 237.183 118.577 237.229 119.141C237.231 119.053 237.236 118.968 237.241 118.887C237.264 118.564 237.513 118.292 237.804 118.149C238.095 118.006 238.425 117.97 238.747 117.935C239.433 117.862 239.792 117.822 240.492 117.745C241.12 117.676 242.143 117.545 242.661 117.153C243.282 116.683 243.551 116.466 243.748 115.714C244.045 114.58 244.231 113.416 243.587 112.438C243.211 111.867 242.602 111.494 241.971 111.224C242.522 111.754 243.288 112.661 243.16 113.508L243.161 113.508Z" fill="#E27100"/>
        <path d="M241.925 124.387C242.505 124.213 243.074 124.007 243.63 123.77C244.11 123.566 244.643 123.366 245 122.969C245.592 122.313 245.244 121.455 245.104 120.698C244.758 118.83 243.381 118.813 241.859 119.337C243.823 119.098 243.769 120.056 244.074 121.057C244.378 122.059 244.487 123.125 239.285 124.17C235.828 124.864 233.619 122.911 232.809 122.009C232.931 122.301 233.088 122.575 233.284 122.819C235.329 125.368 239.088 125.237 241.926 124.387L241.925 124.387Z" fill="#E27100"/>
        <path d="M235.986 110.139C235.899 110.014 235.804 109.854 235.665 109.786C235.549 109.73 235.401 110.08 235.369 110.147C235.291 110.305 235.114 110.584 235.178 110.758C235.213 110.855 235.331 110.865 235.419 110.861C235.858 110.841 236.296 110.83 236.735 110.827C237.164 110.824 237.6 110.813 238.028 110.849C238.044 110.851 238.061 110.852 238.078 110.854C238.203 110.867 238.318 110.855 238.445 110.845C238.538 110.837 238.673 110.846 238.685 110.741C238.697 110.635 238.613 110.532 238.556 110.451C238.432 110.276 238.334 110.085 238.239 109.893C238.17 109.753 238.101 109.686 237.984 109.828C237.894 109.936 237.795 110.052 237.722 110.176C237.686 110.236 237.603 110.409 237.51 110.337C237.391 110.245 237.272 110.142 237.168 110.031C237.097 109.957 236.991 109.744 236.868 109.77C236.778 109.789 236.73 109.882 236.69 109.955C236.594 110.13 236.426 110.321 236.21 110.321C236.116 110.321 236.042 110.219 235.993 110.15C235.991 110.146 235.988 110.143 235.986 110.139V110.139Z" fill="#00C0F4"/>
        <path d="M235.612 112.182C235.609 112.206 235.602 112.229 235.591 112.253C235.532 112.378 235.392 112.426 235.263 112.406C235.107 112.383 234.972 112.231 234.99 112.07C235.019 111.797 235.299 111.758 235.492 111.908C235.577 111.975 235.628 112.078 235.612 112.182Z" fill="white"/>
        <path d="M236.816 112.257C236.812 112.348 236.766 112.432 236.659 112.478C236.384 112.597 236.177 112.339 236.268 112.075C236.31 111.95 236.441 111.86 236.575 111.889C236.728 111.922 236.822 112.112 236.816 112.257H236.816Z" fill="white"/>
        <path d="M236.276 113.405C235.58 113.405 235.102 113.189 235.079 113.179C234.977 113.132 234.933 113.011 234.98 112.909C235.027 112.807 235.147 112.763 235.249 112.81C235.258 112.814 235.789 113.048 236.515 112.989C236.628 112.981 236.725 113.063 236.734 113.175C236.743 113.287 236.66 113.385 236.548 113.394C236.454 113.402 236.364 113.405 236.276 113.405V113.405Z" fill="white"/>
    </g>
    <rect x="216" y="137.53" width="170" height="4.08163" fill="#D9DDE0"/>
    <rect width="4.52483" height="14" transform="translate(238.559 149.612)" fill="white"/>
    <path opacity="0.7" d="M242.072 160.646L240.905 160.635V153.732L239.479 154.54L238.985 153.563L240.916 152.486H242.072V160.646Z" fill="#7B8FAA"/>
    <rect opacity="0.5" x="249.207" y="151.552" width="40.2925" height="3.79224" fill="#D7DDE7"/>
    <rect opacity="0.5" x="249.207" y="159.223" width="29.3898" height="4.26627" fill="#D7DDE7"/>
    <rect opacity="0.5" x="249.207" y="167.367" width="35.0782" height="3.79224" fill="#D7DDE7"/>
    <rect width="4.52483" height="14" transform="translate(238.559 187.929)" fill="white"/>
    <path opacity="0.7" d="M239.232 197.941C239.337 197.844 239.718 197.492 240.377 196.886C240.983 196.34 241.466 195.891 241.825 195.539C242.192 195.18 242.498 194.813 242.745 194.439C242.992 194.057 243.116 193.698 243.116 193.361C243.116 192.897 242.981 192.52 242.712 192.228C242.45 191.928 242.109 191.779 241.69 191.779C241.368 191.779 241.058 191.883 240.759 192.093C240.459 192.303 240.239 192.576 240.096 192.912L239.075 192.452C239.299 191.943 239.655 191.528 240.141 191.206C240.635 190.877 241.151 190.712 241.69 190.712C242.192 190.712 242.637 190.825 243.026 191.049C243.423 191.274 243.729 191.588 243.946 191.992C244.171 192.389 244.283 192.845 244.283 193.361C244.283 193.87 244.13 194.375 243.823 194.877C243.524 195.378 243.157 195.842 242.723 196.269C242.296 196.695 241.75 197.193 241.084 197.761L240.882 197.941H244.407V198.962H239.344L239.232 197.941Z" fill="#7B8FAA"/>
    <rect opacity="0.5" x="249.207" y="189.868" width="40.2925" height="3.79224" fill="#D7DDE7"/>
    <rect opacity="0.5" x="249.207" y="197.539" width="29.3898" height="4.26627" fill="#D7DDE7"/>
    <rect opacity="0.5" x="249.207" y="205.684" width="35.0782" height="3.79224" fill="#D7DDE7"/>
    <rect width="4.52483" height="14" transform="translate(312.5 149.612)" fill="white"/>
    <path opacity="0.7" d="M317.798 157.503H318.842V158.525H317.798V160.646H316.642V158.525H313.117L313.005 157.503L316.687 152.475H317.798V157.503ZM316.642 157.503V154.416L314.397 157.503H316.642Z" fill="#7B8FAA"/>
    <rect opacity="0.5" x="323.148" y="151.552" width="40.2925" height="3.79224" fill="#D7DDE7"/>
    <rect opacity="0.5" x="323.148" y="159.223" width="29.3898" height="4.26627" fill="#D7DDE7"/>
    <rect opacity="0.5" x="323.148" y="167.367" width="35.0782" height="3.79224" fill="#D7DDE7"/>
    <rect width="4.52483" height="14" transform="translate(312.5 187.929)" fill="white"/>
    <path opacity="0.7" d="M313.342 195.146L313.611 190.791H317.966V191.812H314.734L314.599 193.844C314.996 193.664 315.385 193.575 315.766 193.575C316.32 193.575 316.814 193.691 317.248 193.923C317.689 194.155 318.03 194.476 318.269 194.888C318.516 195.299 318.64 195.771 318.64 196.302C318.64 196.841 318.516 197.32 318.269 197.739C318.03 198.158 317.689 198.483 317.248 198.715C316.814 198.947 316.32 199.063 315.766 199.063C315.332 199.063 314.924 198.974 314.543 198.794C314.161 198.614 313.836 198.364 313.566 198.042C313.297 197.72 313.114 197.354 313.016 196.942L314.15 196.673C314.24 197.054 314.434 197.369 314.734 197.615C315.033 197.855 315.377 197.975 315.766 197.975C316.268 197.975 316.676 197.821 316.99 197.514C317.312 197.2 317.472 196.796 317.472 196.302C317.472 195.823 317.312 195.434 316.99 195.135C316.676 194.828 316.268 194.675 315.766 194.675C315.557 194.675 315.336 194.734 315.104 194.854C314.872 194.966 314.67 195.112 314.498 195.292L313.342 195.146Z" fill="#7B8FAA"/>
    <rect opacity="0.5" x="323.148" y="189.868" width="40.2925" height="3.79224" fill="#D7DDE7"/>
    <rect opacity="0.5" x="323.148" y="197.539" width="29.3898" height="4.26627" fill="#D7DDE7"/>
    <rect opacity="0.5" x="323.148" y="205.684" width="35.0782" height="3.79224" fill="#D7DDE7"/>
    <rect x="216" y="226.5" width="145" height="3" fill="#D9DDE0"/>
    <rect x="374" y="222" width="12" height="12" fill="#D9DDE0"/>
    <defs>
        <clipPath id="clip0_858_41791">
            <rect width="22.9167" height="22.9167" fill="white" transform="translate(57.625 80.958)"/>
        </clipPath>
        <clipPath id="clip1_858_41791">
            <rect width="22.9167" height="22.9167" fill="white" transform="translate(57.625 162.458)"/>
        </clipPath>
        <clipPath id="clip2_858_41791">
            <rect width="22.9167" height="22.9167" fill="white" transform="translate(57.625 243.958)"/>
        </clipPath>
        <clipPath id="clip3_858_41791">
            <rect width="32" height="20.1481" fill="white" transform="translate(216 105.382)"/>
        </clipPath>
    </defs>
</svg>
