<svg width="44" height="45" viewBox="0 0 44 45" fill="none" xmlns="http://www.w3.org/2000/svg">
    <rect y="0.0634766" width="44" height="44" rx="18" fill="#BFC5CB"/>
    <path d="M24.5781 28.7109L29.8828 32.9219L27.4766 35.0137L22.2539 30.8301L24.5781 28.7109ZM29.9785 21.0547V22.0801C29.9785 23.584 29.778 24.9375 29.377 26.1406C28.9759 27.3346 28.4017 28.3509 27.6543 29.1895C26.916 30.028 26.0365 30.6706 25.0156 31.1172C23.9948 31.5638 22.8646 31.7871 21.625 31.7871C20.3945 31.7871 19.2643 31.5638 18.2344 31.1172C17.2135 30.6706 16.3294 30.028 15.582 29.1895C14.8346 28.3509 14.2559 27.3346 13.8457 26.1406C13.4355 24.9375 13.2305 23.584 13.2305 22.0801V21.0547C13.2305 19.5417 13.431 18.1882 13.832 16.9941C14.2422 15.8001 14.8164 14.7839 15.5547 13.9453C16.3021 13.0977 17.1862 12.4505 18.207 12.0039C19.237 11.5573 20.3672 11.334 21.5977 11.334C22.8372 11.334 23.9674 11.5573 24.9883 12.0039C26.0182 12.4505 26.9023 13.0977 27.6406 13.9453C28.388 14.7839 28.9622 15.8001 29.3633 16.9941C29.7734 18.1882 29.9785 19.5417 29.9785 21.0547ZM26.1777 22.0801V21.0273C26.1777 19.9427 26.0775 18.9902 25.877 18.1699C25.6764 17.3405 25.3757 16.6432 24.9746 16.0781C24.5827 15.513 24.1042 15.0892 23.5391 14.8066C22.974 14.515 22.3268 14.3691 21.5977 14.3691C20.8776 14.3691 20.235 14.515 19.6699 14.8066C19.1048 15.0892 18.6263 15.513 18.2344 16.0781C17.8424 16.6432 17.5417 17.3405 17.332 18.1699C17.1315 18.9902 17.0312 19.9427 17.0312 21.0273V22.0801C17.0312 23.1556 17.1315 24.1081 17.332 24.9375C17.5417 25.7669 17.8424 26.4688 18.2344 27.043C18.6354 27.6081 19.1185 28.0365 19.6836 28.3281C20.2578 28.6198 20.9049 28.7656 21.625 28.7656C22.3542 28.7656 23.0013 28.6198 23.5664 28.3281C24.1315 28.0365 24.6055 27.6081 24.9883 27.043C25.3802 26.4688 25.6764 25.7669 25.877 24.9375C26.0775 24.1081 26.1777 23.1556 26.1777 22.0801Z" fill="white"/>
</svg>
