<svg width="50" height="51" viewBox="0 0 50 51" fill="none" xmlns="http://www.w3.org/2000/svg">
    <rect y="0.0634766" width="50" height="50" rx="22" fill="#BFC5CB"/>
    <path fill-rule="evenodd" clip-rule="evenodd" d="M20.4458 14.6836L21.6903 15.5548C21.8062 15.636 21.8188 15.8028 21.715 15.8991C21.5624 16.0409 21.4037 16.1862 21.2416 16.3346C19.7346 17.7144 17.9351 19.3621 17.9351 20.9738C17.9351 22.5354 19.0696 22.7536 20.3664 23.0031C20.6158 23.051 20.8714 23.1002 21.1259 23.1603C21.7045 23.2968 22.1731 23.4729 22.5506 23.6714C24.9392 24.6292 26.6101 26.8331 26.5832 29.4229C26.5474 32.8811 23.5311 35.6569 19.8462 35.6228C16.372 35.5907 13.5439 33.0724 13.2618 29.8864C13.2461 29.8607 13.2358 29.8323 13.2317 29.8022C12.8719 27.1984 13.1639 23.508 14.7297 20.5512C16.2061 17.7632 18.6243 15.8193 20.1877 14.6852C20.2646 14.6295 20.368 14.6291 20.4458 14.6836Z" fill="white"/>
    <path fill-rule="evenodd" clip-rule="evenodd" d="M30.9575 14.6836L32.202 15.5548C32.3179 15.636 32.3305 15.8028 32.2268 15.8991C32.0741 16.0409 31.9154 16.1862 31.7534 16.3346C30.2463 17.7144 28.4468 19.3621 28.4468 20.9738C28.4468 22.5354 29.5813 22.7536 30.8781 23.0031C31.1276 23.051 31.3831 23.1002 31.6377 23.1603C32.2162 23.2968 32.6848 23.4729 33.0623 23.6714C35.4509 24.6292 37.1218 26.8331 37.0949 29.4229C37.0591 32.8811 34.0428 35.6569 30.3579 35.6228C26.8837 35.5907 24.0556 33.0724 23.7735 29.8864C23.7578 29.8607 23.7475 29.8323 23.7434 29.8022C23.3836 27.1984 23.6756 23.508 25.2414 20.5512C26.7179 17.7632 29.1361 15.8193 30.6994 14.6852C30.7763 14.6295 30.8797 14.6291 30.9575 14.6836Z" fill="white"/>
</svg>