<svg width="436" height="114" viewBox="0 0 436 114" fill="none" xmlns="http://www.w3.org/2000/svg">
    <path fill-rule="evenodd" clip-rule="evenodd" d="M200.537 102.486C202.679 101.083 205.444 100.978 207.698 102.191C214.594 105.901 223.176 108.532 232.636 109.482C247.975 111.022 262.005 107.78 270.801 101.579C272.63 100.289 274.954 99.8036 277.081 100.499C289.604 104.592 304.937 107 321.5 107C350.416 107 375.585 99.6596 388.592 88.8297C391.448 86.4515 395.965 86.4407 399.546 87.4335C400.88 87.8031 402.359 88 404 88C417.255 88 436 75.1504 436 62.1879C436 49.2255 424.849 40 411.594 40H397.602C397.381 40 397.17 40.0626 396.992 40.1936C396.5 40.5564 395.799 40.5147 395.391 40.0595C387.439 31.1817 373.702 24.1775 357.443 21.8029C344.996 19.9849 333.217 21.1941 323.854 24.6627C320.958 25.7355 317.633 24.8195 315.617 22.48C309.738 15.6583 301.219 10.5066 291.083 8.4095C276.933 5.48177 263.01 9.20665 253.514 17.2617C250.717 19.6339 246.418 19.8081 243.574 17.4928C230.522 6.86651 209.814 -0.000244141 186.5 -0.000244141C159.253 -0.000244141 135.566 9.37863 123.498 23.1764C121.438 25.5315 118.036 26.3914 115.121 25.2555C106.416 21.864 95.4314 20.5512 83.7522 22.0575C70.0202 23.8285 58.0891 29.1406 50.1932 36.17C48.726 37.4761 46.7779 38.1212 44.8155 38.0328C44.3326 38.011 43.8386 38 43.3333 38C25.3841 38 0 51.9204 0 65.963C0 80.0057 15.1007 90 33.05 90C35.2814 90 37.4519 90.0695 39.5419 90.1365C43.5883 90.2662 47.3336 90.3862 50.6376 89.9732C52.996 89.6784 55.4453 90.3469 57.2176 91.9305C62.7409 96.8655 70.2117 100.379 78.7527 101.515C87.535 102.684 95.9646 101.142 102.821 97.6392C105.513 96.2639 108.857 96.5738 111.16 98.5321C122.245 107.958 139.331 114 158.5 114C174.832 114 189.653 109.614 200.537 102.486Z" fill="white"/>
</svg>