<svg width="540" height="540" viewBox="0 0 540 540" fill="none" xmlns="http://www.w3.org/2000/svg">
    <g clip-path="url(#clip0_2368_48576)">
        <path d="M358.742 330.984L322.683 315.022C318.794 313.301 314.589 312.412 310.336 312.412H158.607C152.103 312.412 145.769 314.491 140.53 318.346L105.426 344.174C97.6131 349.922 93 359.044 93 368.743L93 429.953C93 437.64 95.9022 445.044 101.126 450.683L154.319 508.103C160.092 514.335 168.201 517.877 176.696 517.877H198.029C201.178 517.877 204.309 517.389 207.309 516.431L280.59 493.027C283.591 492.069 286.721 491.581 289.871 491.581H399.36C405.618 491.581 411.724 489.656 416.851 486.068L439.987 469.875C448.142 464.167 452.999 454.839 452.999 444.884V364.098C452.999 347.251 439.343 333.595 422.496 333.595H371.089C366.836 333.595 362.63 332.705 358.742 330.984Z" fill="#7BCCEB" fill-opacity="0.3"/>
        <path d="M100.906 338.032L105.426 344.174L100.906 338.032C91.1406 345.217 85.3742 356.619 85.3742 368.743L85.3742 429.953C85.3742 439.562 89.002 448.816 95.5319 455.865L148.724 513.286C155.94 521.075 166.078 525.503 176.696 525.503H198.029C201.966 525.503 205.879 524.893 209.629 523.695L282.91 500.291C285.161 499.572 287.509 499.207 289.871 499.207H399.36C407.182 499.207 414.815 496.801 421.224 492.315L444.36 476.122C454.554 468.987 460.625 457.327 460.625 444.884V364.098C460.625 343.04 443.554 325.969 422.496 325.969H371.089C367.899 325.969 364.745 325.302 361.828 324.011L358.762 330.938L361.828 324.011L325.77 308.049C320.909 305.897 315.652 304.786 310.336 304.786H158.607C150.477 304.786 142.559 307.385 136.01 312.203L100.906 338.032Z" stroke="#7BCCEB" stroke-opacity="0.3" stroke-width="15.2516"/>
        <path d="M452.999 433.446V403.49C452.999 386.644 439.343 372.987 422.496 372.987H123.503C106.657 372.987 93 386.644 93 403.49V418.515C93 426.202 95.9022 433.606 101.126 439.245L154.319 496.665C160.091 502.897 168.201 506.439 176.696 506.439H198.029C201.178 506.439 204.309 505.951 207.309 504.993L280.59 481.589C283.591 480.631 286.721 480.143 289.871 480.143H399.36C405.618 480.143 411.724 478.218 416.851 474.63L439.987 458.437C448.142 452.729 452.999 443.401 452.999 433.446Z" fill="#AF763A"/>
        <path fill-rule="evenodd" clip-rule="evenodd" d="M452.286 396.901C452.748 398.999 452.994 401.179 453 403.416V433.522C452.975 443.448 448.122 452.744 439.988 458.438L416.851 474.631C411.725 478.219 405.618 480.144 399.36 480.144H289.871C286.722 480.144 283.591 480.632 280.591 481.59L207.31 504.994C204.309 505.952 201.179 506.44 198.03 506.44H176.696C171.097 506.44 165.665 504.901 160.959 502.067V396.901H452.286Z" fill="#A3621E"/>
        <path fill-rule="evenodd" clip-rule="evenodd" d="M291.367 480.141H289.87C286.72 480.141 283.59 480.629 280.59 481.587L207.308 504.991C205.963 505.421 204.592 505.756 203.204 505.995V414.053H291.367V480.141ZM452.874 400.71C452.953 401.593 452.996 402.488 452.998 403.391V433.541C452.967 443.459 448.115 452.746 439.986 458.435L416.85 474.628C411.826 478.145 405.861 480.064 399.734 480.139V400.71H452.874Z" fill="#8F4926"/>
        <path d="M272.846 312.427L326.682 295.633C328.796 294.973 330.997 294.638 333.211 294.638H410C418.287 294.638 425.867 299.312 429.589 306.717L442.085 331.581C443.621 334.635 444.42 338.007 444.42 341.426L444.42 408.884C444.42 416.039 440.929 422.743 435.068 426.846L411.931 443.039C408.247 445.618 403.858 447.002 399.36 447.002H289.871C285.835 447.002 281.824 447.627 277.98 448.854L204.699 472.258C202.543 472.947 200.293 473.298 198.029 473.298H176.696C170.59 473.298 164.761 470.752 160.612 466.273L107.42 408.852C103.665 404.799 101.579 399.478 101.579 393.953L101.579 361.953C101.579 354.981 104.895 348.425 110.51 344.293L145.614 318.465C149.38 315.694 153.932 314.2 158.607 314.2H261.207C265.154 314.2 269.078 313.602 272.846 312.427Z" fill="#78BA3F" stroke="#9FCF76" stroke-width="17.1581"/>
        <g filter="url(#filter0_i_2368_48576)">
            <path d="M279.242 388.526H188.795C181.861 388.526 176.954 395.302 179.117 401.89L181.454 409.007C182.023 410.738 182.116 412.589 181.726 414.369L177.444 433.877C176.049 440.232 180.887 446.247 187.393 446.247H212.184C214.583 446.247 216.904 445.401 218.74 443.857L231.498 433.129C233.333 431.585 235.655 430.739 238.054 430.739H255.387C257.933 430.739 260.387 429.785 262.266 428.065L286.12 406.225C292.974 399.949 288.534 388.526 279.242 388.526Z" fill="#34CFFF"/>
        </g>
        <path d="M188.795 391.526H279.242C285.797 391.526 288.93 399.585 284.094 404.012L260.24 425.853C258.915 427.066 257.183 427.739 255.387 427.739H238.054C234.949 427.739 231.943 428.834 229.567 430.833L216.809 441.561C215.514 442.65 213.876 443.247 212.184 443.247H187.393C182.803 443.247 179.39 439.003 180.374 434.52L184.656 415.012C185.162 412.709 185.04 410.312 184.304 408.071L181.967 400.954C180.441 396.306 183.903 391.526 188.795 391.526Z" stroke="#9FCF76" stroke-width="6" stroke-linejoin="round"/>
        <path opacity="0.8" fill-rule="evenodd" clip-rule="evenodd" d="M215.473 408.854C215.473 407.113 216.885 405.701 218.626 405.701H258.29C260.427 405.701 262.16 407.433 262.16 409.57C262.16 411.707 260.427 413.44 258.29 413.44H236.322C234.66 413.44 233.312 414.787 233.312 416.449C233.312 418.111 231.965 419.459 230.302 419.459H205.373C203.315 419.459 201.647 417.791 201.647 415.733C201.647 413.675 203.315 412.007 205.373 412.007H212.32C214.061 412.007 215.473 410.595 215.473 408.854Z" fill="#A0E6FE"/>
        <rect width="19.5235" height="7.73885" rx="3.86943" transform="matrix(-1 0 0 1 213.776 425.875)" fill="#9BE1FB"/>
        <path d="M143.378 407.691H161.186L165.638 393.222L157.847 397.674L148.943 388.77L145.604 398.787L138.926 396.561L143.378 407.691Z" fill="#65A82B"/>
        <path d="M410.134 392.835H418.543L422.275 379.432L413.445 388.262L404.615 382.744L410.134 392.835Z" fill="#65A82B"/>
        <rect x="306.998" y="330.199" width="126.872" height="18.6909" rx="9.34544" fill="#9FCF76"/>
        <rect x="126.193" y="360.665" width="280.969" height="20.3724" rx="10.1544" fill="#9FCF76"/>
        <rect x="161.155" y="312.895" width="8.15065" height="20.3767" fill="#B95B3B"/>
        <ellipse cx="165.57" cy="284.368" rx="28.8669" ry="30.565" fill="#00932D"/>
        <ellipse cx="165.57" cy="284.368" rx="28.8669" ry="30.565" fill="url(#paint0_linear_2368_48576)" fill-opacity="0.2"/>
        <g filter="url(#filter1_i_2368_48576)">
            <path d="M153.357 372.869C151.932 354.431 137.527 330.615 128.432 330.615C125.654 328.31 124.729 330.721 128.432 334.457C140.542 346.674 143.565 367.491 142.675 372.869H153.357Z" fill="#A46A0C"/>
        </g>
        <path fill-rule="evenodd" clip-rule="evenodd" d="M111.091 328.796C104.848 324.681 100.728 317.606 100.728 309.569C100.728 296.859 111.03 286.557 123.74 286.557C133.572 286.557 141.964 292.723 145.259 301.399C145.895 301.346 146.538 301.319 147.187 301.319C159.896 301.319 170.199 311.622 170.199 324.331C170.199 337.041 159.896 347.344 147.187 347.344C143.362 347.344 139.756 346.411 136.582 344.76C134.694 351.269 128.687 356.027 121.568 356.027C112.936 356.027 105.938 349.029 105.938 340.397C105.938 335.794 107.926 331.657 111.091 328.796Z" fill="#3D8B61"/>
        <path fill-rule="evenodd" clip-rule="evenodd" d="M111.091 328.796C104.848 324.681 100.728 317.606 100.728 309.569C100.728 296.859 111.03 286.557 123.74 286.557C133.572 286.557 141.964 292.723 145.259 301.399C145.895 301.346 146.538 301.319 147.187 301.319C159.896 301.319 170.199 311.622 170.199 324.331C170.199 337.041 159.896 347.344 147.187 347.344C143.362 347.344 139.756 346.411 136.582 344.76C134.694 351.269 128.687 356.027 121.568 356.027C112.936 356.027 105.938 349.029 105.938 340.397C105.938 335.794 107.926 331.657 111.091 328.796Z" fill="url(#paint1_linear_2368_48576)" fill-opacity="0.2"/>
        <path d="M388.815 219H362.482L327.37 337.838H423.927L388.815 219Z" fill="#9896A3"/>
        <path d="M388.815 219H362.482L327.37 337.838H423.927L388.815 219Z" fill="#9896A3"/>
        <path d="M388.815 219H369.504L372.137 273.052L360.726 278.419L351.948 337.838H423.927L388.815 219Z" fill="#787A8F"/>
        <path d="M402.183 337.838H412.835L387.178 273.436L391.306 296.436L402.183 337.838Z" fill="#686A80"/>
        <path d="M379.562 337.839H389.022L384.456 308.704L379.562 283.787V324.805V337.839Z" fill="#686A80"/>
        <path d="M388.816 219H362.482L355.021 244.301L368.627 232.801L380.916 242.384L396.277 244.301L388.816 219Z" fill="white"/>
        <path d="M197.17 237H215.596L268.747 373H144.019L197.17 237Z" fill="#007700"/>
        <path d="M197.029 237H205.604L202.485 303.245L196.639 320.794L211.84 331.761L219.636 373H144.019L197.029 237Z" fill="#34A200"/>
        <path d="M196.639 237H215.615L223.534 257.181L213.4 262.445L204.435 267.271L186.115 265.077L196.639 237Z" fill="white"/>
        <path d="M322.923 237H341.349L394.5 373H269.772L322.923 237Z" fill="#00610F"/>
        <path d="M322.782 237H339.932L337.594 298.858L347.728 305L355.523 373H291.6L322.782 237Z" fill="#007700"/>
        <path d="M322.782 237H331.357L320.443 303.245L303.682 326.497L322.002 331.761L308.75 373H269.772L322.782 237Z" fill="#34A200"/>
        <path d="M322.392 237H341.368L349.287 257.181L339.152 255.426L327.459 263.761L311.868 265.077L322.392 237Z" fill="white"/>
        <path d="M238.242 301.001C238.242 296.031 242.271 292.001 247.242 292.001H289.509C294.48 292.001 298.51 296.031 298.51 301.001V362.455H238.242V301.001Z" fill="#008BFF"/>
        <path fill-rule="evenodd" clip-rule="evenodd" d="M289.488 270.385C293.681 270.385 299.897 270.385 304.091 270.385H304.788C309.759 270.385 313.788 274.415 313.788 279.385V324.598C313.788 329.568 309.759 333.598 304.788 333.598H304.091C299.12 333.598 295.09 329.568 295.09 324.598V306.727C295.09 304.286 291.929 302.635 289.488 302.635H288.792C286.351 302.635 283.191 304.286 283.191 306.726V318.387C283.191 323.358 279.162 327.388 274.191 327.388H273.494C268.523 327.388 264.493 323.358 264.493 318.387V313.479C264.493 311.038 261.332 309.387 258.891 309.387H258.194C255.754 309.387 252.595 311.037 252.595 313.478V313.887C252.595 318.858 248.565 322.888 243.594 322.888H242.897C237.926 322.888 233.896 318.858 233.896 313.887V279.385C233.896 274.415 237.926 270.385 242.897 270.385H243.594C247.787 270.385 254.001 270.385 258.194 270.385H258.891C263.085 270.385 269.301 270.385 273.494 270.385H274.191C278.384 270.385 284.599 270.385 288.792 270.385H289.488Z" fill="#34CFFF"/>
        <path fill-rule="evenodd" clip-rule="evenodd" d="M233.896 276.389C233.896 271.418 237.926 267.388 242.897 267.388H243.594C247.787 267.388 254.003 267.389 258.196 267.389H258.893C263.086 267.389 269.301 267.389 273.494 267.389H274.191C278.384 267.389 284.599 267.389 288.792 267.389H289.488C293.681 267.389 299.897 267.389 304.091 267.389H304.788C309.759 267.389 313.788 271.418 313.788 276.389V297.39C313.788 302.361 309.759 306.391 304.788 306.391H304.091C299.12 306.391 295.09 302.361 295.09 297.39V293.981C295.09 291.539 291.929 289.889 289.488 289.889H288.792C286.351 289.889 283.191 291.539 283.191 293.98V295.89C283.191 300.861 279.162 304.891 274.191 304.891H273.494C268.523 304.891 264.493 300.861 264.493 295.89V289.48C264.493 287.039 261.334 285.389 258.893 285.389H258.196C255.755 285.389 252.595 287.039 252.595 289.48V297.39C252.595 302.361 248.565 306.39 243.594 306.39H242.897C237.926 306.39 233.896 302.361 233.896 297.39V276.389Z" fill="#B1EBFC"/>
        <ellipse cx="298.449" cy="347.985" rx="3.75002" ry="3.7055" fill="white"/>
        <ellipse cx="266.592" cy="334.453" rx="5.51869" ry="5.45317" fill="white"/>
        <ellipse cx="285.361" cy="332.512" rx="2.54655" ry="2.51631" fill="white"/>
        <ellipse cx="312.525" cy="353.901" rx="2.54655" ry="2.9357" fill="white"/>
        <ellipse cx="256.076" cy="352.223" rx="2.97097" ry="2.9357" fill="white"/>
        <path fill-rule="evenodd" clip-rule="evenodd" d="M290.991 362.227C291.999 360.667 292.582 358.814 292.582 356.826C292.582 351.273 288.026 346.771 282.406 346.771C277.92 346.771 274.111 349.64 272.758 353.623C272.223 353.526 271.667 353.475 271.098 353.475C266.727 353.475 263.184 356.476 263.184 360.179C263.184 360.893 263.315 361.581 263.56 362.227H254.082C254.119 361.922 254.137 361.611 254.137 361.296C254.137 356.977 250.594 353.475 246.223 353.475C241.852 353.475 238.308 356.977 238.308 361.296C238.308 361.611 238.327 361.922 238.364 362.227H229.046C224.05 362.227 220 366.277 220 371.273V373.14H313.373V371.273C313.373 366.277 309.323 362.227 304.328 362.227H290.991Z" fill="white"/>
        <ellipse cx="260.897" cy="264.045" rx="7.50004" ry="7.50004" fill="white"/>
        <ellipse cx="275.813" cy="287.702" rx="4.41495" ry="4.41495" fill="white"/>
        <ellipse cx="283.386" cy="266.373" rx="5.51869" ry="5.51869" fill="white"/>
        <rect x="416.025" y="315.437" width="8.8299" height="22.1313" fill="#B95B3B"/>
        <path d="M444.723 296.525C444.723 314.859 432.632 317.65 420.441 317.65C408.249 317.65 396.159 314.859 396.159 296.525C396.159 279.595 406.597 262.194 417.676 253.291C419.252 252.025 421.497 252.193 422.938 253.611C432.678 263.193 444.723 279.667 444.723 296.525Z" fill="#00932D"/>
        <path d="M444.723 296.525C444.723 314.859 432.632 317.65 420.441 317.65C408.249 317.65 396.159 314.859 396.159 296.525C396.159 279.595 406.597 262.194 417.676 253.291C419.252 252.025 421.497 252.193 422.938 253.611C432.678 263.193 444.723 279.667 444.723 296.525Z" fill="url(#paint2_linear_2368_48576)" fill-opacity="0.2"/>
        <rect x="325.952" y="398.368" width="72" height="23.3538" rx="11.6769" fill="#5DA51F"/>
        <rect width="12.9441" height="36.9449" rx="6.47205" transform="matrix(0.500003 0.866024 -0.866027 0.499997 363.075 389.929)" fill="#6C4F3F"/>
        <rect width="12.9441" height="36.9449" rx="6.47205" transform="matrix(0.500003 0.866024 -0.866027 0.499997 363.075 389.929)" fill="url(#paint3_linear_2368_48576)" fill-opacity="0.2"/>
        <rect width="12.9441" height="36.9449" rx="6.47205" transform="matrix(-0.500003 0.866024 0.866027 0.499997 360.203 389.929)" fill="#6C4F3F"/>
        <rect width="12.9441" height="36.9449" rx="6.47205" transform="matrix(-0.500003 0.866024 0.866027 0.499997 360.203 389.929)" fill="url(#paint4_linear_2368_48576)" fill-opacity="0.2"/>
        <path d="M384.472 379.382C384.472 392.904 373.606 403.866 360.202 403.866C346.798 403.866 335.932 392.904 335.932 379.382C335.932 372.768 338.532 366.765 342.758 362.36C347.17 357.759 360.96 347.248 360.96 336.536C364.455 336.928 367.786 344.952 367.028 351.073C366.27 357.194 361.719 359.489 364.753 363.315C368.453 367.981 375.371 363.315 375.371 360.254C380.483 364.743 384.472 372.009 384.472 379.382Z" fill="#FC7039"/>
        <path d="M346.89 391.191C347.794 399.236 355.049 405.024 363.094 404.12C371.139 403.215 376.927 395.96 376.023 387.915C375.58 383.98 373.618 380.584 370.787 378.248C367.831 375.809 358.851 370.486 358.134 364.113C356.063 364.582 354.6 369.581 355.465 373.172C356.33 376.762 359.215 377.821 357.65 380.301C355.741 383.327 351.277 381.018 351.072 379.197C348.305 382.213 346.396 386.805 346.89 391.191Z" fill="#FFDE25"/>
        <path d="M367 395.961C367 399.47 364.682 401.256 361.822 401.256C358.963 401.256 356.645 399.47 356.645 395.961C356.645 392.452 359.233 388.959 361.822 388.312C365.058 389.607 367 392.452 367 395.961Z" fill="white"/>
        <path fill-rule="evenodd" clip-rule="evenodd" d="M509.845 433.745C509.115 433.745 508.622 432.994 508.881 432.311C510.172 428.898 510.879 425.197 510.879 421.331C510.879 404.191 496.985 390.297 479.845 390.297C466.205 390.297 454.62 399.096 450.457 411.329C449.332 414.635 444.604 416.662 441.23 415.758C439.689 415.345 438.068 415.124 436.397 415.124C427.524 415.124 420.1 421.331 418.23 429.639C417.729 431.869 415.923 433.745 413.638 433.745H412.604C406.319 433.745 401.225 438.84 401.225 445.124C401.225 451.409 406.319 456.504 412.604 456.504H509.845C516.13 456.504 521.225 451.409 521.225 445.124C521.225 438.84 516.13 433.745 509.845 433.745Z" fill="white"/>
        <path fill-rule="evenodd" clip-rule="evenodd" d="M509.845 433.745C509.115 433.745 508.622 432.994 508.881 432.311C510.172 428.898 510.879 425.197 510.879 421.331C510.879 404.191 496.985 390.297 479.845 390.297C466.205 390.297 454.62 399.096 450.457 411.329C449.332 414.635 444.604 416.662 441.23 415.758C439.689 415.345 438.068 415.124 436.397 415.124C427.524 415.124 420.1 421.331 418.23 429.639C417.729 431.869 415.923 433.745 413.638 433.745H412.604C406.319 433.745 401.225 438.84 401.225 445.124C401.225 451.409 406.319 456.504 412.604 456.504H509.845C516.13 456.504 521.225 451.409 521.225 445.124C521.225 438.84 516.13 433.745 509.845 433.745Z" fill="url(#paint5_linear_2368_48576)" fill-opacity="0.2"/>
        <path fill-rule="evenodd" clip-rule="evenodd" d="M94.373 226.628C94.686 226.642 94.9965 226.642 95.3039 226.628H134.434C134.527 226.63 134.62 226.63 134.712 226.63C141.183 226.173 144.305 222.291 143.976 217.643C143.798 215.119 142.092 212.965 139.535 211.595C138.179 210.869 137.284 209.425 137.107 207.897C137.033 207.255 136.892 206.615 136.678 205.983C134.838 200.534 128.364 197.799 122.218 199.874C120.753 200.369 118.974 199.59 118.391 198.157C116.262 192.919 111.346 189.145 105.469 188.887C97.3479 188.532 90.467 195.026 90.1003 203.394C90.0988 203.427 90.0975 203.46 90.0962 203.493C90.0492 204.741 89.3901 205.901 88.3982 206.661C85.8681 208.599 84.1722 211.649 84.019 215.143C83.7491 221.303 88.3785 226.365 94.3566 226.628C94.3568 226.628 94.3569 226.628 94.3569 226.628C94.3569 226.628 94.3571 226.628 94.3573 226.628H94.373Z" fill="#B6E8FB"/>
        <mask id="mask0_2368_48576" style="mask-type:alpha" maskUnits="userSpaceOnUse" x="49" y="177" width="53" height="53">
            <ellipse cx="26.1486" cy="26.1487" rx="26.1486" ry="26.1487" transform="matrix(-1 0 0 1 101.403 177)" fill="#FF8F23"/>
            <ellipse cx="26.1486" cy="26.1487" rx="26.1486" ry="26.1487" transform="matrix(-1 0 0 1 101.403 177)" fill="white"/>
        </mask>
        <g mask="url(#mask0_2368_48576)">
            <ellipse cx="26.1486" cy="26.1487" rx="26.1486" ry="26.1487" transform="matrix(-1 0 0 1 101.403 177)" fill="#FFBC3A"/>
            <ellipse cx="29.6351" cy="21.7906" rx="29.6351" ry="21.7906" transform="matrix(-0.997531 -0.0702223 -0.0702217 0.997531 106.347 189.595)" fill="#FF8F23"/>
            <ellipse cx="29.6351" cy="21.7906" rx="29.6351" ry="21.7906" transform="matrix(-0.997531 -0.0702223 -0.0702217 0.997531 106.347 189.595)" fill="#FFA723"/>
            <ellipse cx="29.5461" cy="21.195" rx="29.5461" ry="21.195" transform="matrix(-0.919523 -0.393037 -0.393035 0.919524 105.179 209.034)" fill="#FF8F23"/>
        </g>
        <path d="M75.255 234.527C92.5848 234.527 106.633 220.479 106.633 203.149C106.633 185.819 92.5848 171.77 75.255 171.77C57.9252 171.77 43.8767 185.819 43.8767 203.149C43.8767 220.479 57.9252 234.527 75.255 234.527Z" stroke="#FFAD5E" stroke-opacity="0.2" stroke-width="10.4595"/>
        <path fill-rule="evenodd" clip-rule="evenodd" d="M20.1971 230.977C20.1346 230.977 20.0722 230.971 20.0105 230.961C19.3878 230.857 18.7497 230.789 18.0992 230.761C10.6035 230.432 4.29574 235.444 4.01036 241.955C3.72498 248.466 9.36865 253.357 16.8643 253.685C17.3981 253.709 17.9268 253.708 18.4487 253.685H94.4741C95.1057 253.697 95.7347 253.697 96.3566 253.685C104.47 253.112 108.514 249.977 108.213 245.717C107.912 241.457 101.091 238.469 92.978 239.042C92.4373 239.08 92.0385 238.512 92.2408 238.009C93.4437 235.018 93.6463 231.732 92.5892 228.601C90.006 220.95 80.8791 217.122 72.2037 220.052C71.9472 220.138 71.6941 220.23 71.4443 220.326C69.1442 221.213 66.1197 220.082 64.9099 217.934C61.3491 211.612 53.7341 207.057 44.7352 206.663C31.9499 206.102 21.2126 214.153 20.7527 224.645C20.68 226.304 20.8686 227.925 21.2883 229.48C21.4866 230.215 20.9583 230.977 20.1971 230.977Z" fill="white"/>
        <path fill-rule="evenodd" clip-rule="evenodd" d="M20.1971 230.977C20.1346 230.977 20.0722 230.971 20.0105 230.961C19.3878 230.857 18.7497 230.789 18.0992 230.761C10.6035 230.432 4.29574 235.444 4.01036 241.955C3.72498 248.466 9.36865 253.357 16.8643 253.685C17.3981 253.709 17.9268 253.708 18.4487 253.685H94.4741C95.1057 253.697 95.7347 253.697 96.3566 253.685C104.47 253.112 108.514 249.977 108.213 245.717C107.912 241.457 101.091 238.469 92.978 239.042C92.4373 239.08 92.0385 238.512 92.2408 238.009C93.4437 235.018 93.6463 231.732 92.5892 228.601C90.006 220.95 80.8791 217.122 72.2037 220.052C71.9472 220.138 71.6941 220.23 71.4443 220.326C69.1442 221.213 66.1197 220.082 64.9099 217.934C61.3491 211.612 53.7341 207.057 44.7352 206.663C31.9499 206.102 21.2126 214.153 20.7527 224.645C20.68 226.304 20.8686 227.925 21.2883 229.48C21.4866 230.215 20.9583 230.977 20.1971 230.977Z" fill="url(#paint6_linear_2368_48576)" fill-opacity="0.2"/>
        <path fill-rule="evenodd" clip-rule="evenodd" d="M42.1672 427.534C42.1672 427.534 42.1671 427.534 42.1671 427.534C42.167 427.534 42.1669 427.534 42.1668 427.534C31.0394 427.046 22.5029 417.963 23.0166 406.242C23.5304 394.522 32.9674 385.415 44.0948 385.903C44.7539 385.932 45.4042 385.994 46.0442 386.087C47.84 386.349 49.6887 385.578 50.6834 384.06C55.485 376.734 63.756 372.067 72.9447 372.47C86.5408 373.066 97.1643 384.541 97.2637 398.4C97.2673 398.915 97.6829 399.338 98.1974 399.36C106.707 399.733 113.326 406.396 112.982 414.243C112.638 422.087 105.34 427.903 96.8338 427.534H44.0203C43.4103 427.561 42.794 427.561 42.1726 427.534H42.1673C42.1672 427.534 42.1672 427.534 42.1672 427.534Z" fill="white"/>
        <path fill-rule="evenodd" clip-rule="evenodd" d="M42.1672 427.534C42.1672 427.534 42.1671 427.534 42.1671 427.534C42.167 427.534 42.1669 427.534 42.1668 427.534C31.0394 427.046 22.5029 417.963 23.0166 406.242C23.5304 394.522 32.9674 385.415 44.0948 385.903C44.7539 385.932 45.4042 385.994 46.0442 386.087C47.84 386.349 49.6887 385.578 50.6834 384.06C55.485 376.734 63.756 372.067 72.9447 372.47C86.5408 373.066 97.1643 384.541 97.2637 398.4C97.2673 398.915 97.6829 399.338 98.1974 399.36C106.707 399.733 113.326 406.396 112.982 414.243C112.638 422.087 105.34 427.903 96.8338 427.534H44.0203C43.4103 427.561 42.794 427.561 42.1726 427.534H42.1673C42.1672 427.534 42.1672 427.534 42.1672 427.534Z" fill="url(#paint7_linear_2368_48576)" fill-opacity="0.2"/>
        <g filter="url(#filter2_i_2368_48576)">
            <g clip-path="url(#clip1_2368_48576)">
                <rect x="53" y="61.2037" width="70" height="69.9997" rx="25.8461" transform="rotate(-19.9519 53 61.2037)" fill="#FDA116"/>
                <rect x="53" y="61.2037" width="70" height="64.0767" rx="25.8461" transform="rotate(-19.9519 53 61.2037)" fill="url(#paint8_linear_2368_48576)" fill-opacity="0.04"/>
                <path fill-rule="evenodd" clip-rule="evenodd" d="M76.1646 72.3049C76.0014 71.8554 76.2459 71.3605 76.7021 71.217L107.981 61.3774C108.41 61.2425 108.869 61.4693 109.023 61.8921L111.022 67.4008C111.178 67.8302 110.962 68.3055 110.536 68.4706L102.825 71.4611L109.23 84.6283C109.412 85.0017 109.728 85.2951 110.112 85.4527C113.098 86.6782 115.132 87.6302 116.491 88.3263C117.644 88.9165 117.479 90.3495 116.262 90.7913L112.089 92.3062L107.723 93.8911C106.93 94.1791 106.046 93.8338 105.658 93.0843L102.835 87.6321L95.935 74.1334L93.1316 75.2206L99.2136 96.4081C99.3505 96.8847 99.0468 97.3755 98.5592 97.4658L91.3235 98.8056C90.8731 98.889 90.439 98.5962 90.3475 98.1474L86.2206 77.9008L79.9867 80.3184C79.5475 80.4887 79.0541 80.2647 78.8934 79.8219L76.1646 72.3049Z" fill="white"/>
            </g>
        </g>
        <g filter="url(#filter3_i_2368_48576)">
            <g clip-path="url(#clip2_2368_48576)">
                <rect x="185.114" y="97" width="70" height="69.9997" rx="25.8461" transform="rotate(3.46849 185.114 97)" fill="#FF8700"/>
                <rect x="185.114" y="97" width="70" height="64.0767" rx="25.8461" transform="rotate(3.46849 185.114 97)" fill="url(#paint9_linear_2368_48576)" fill-opacity="0.04"/>
                <path fill-rule="evenodd" clip-rule="evenodd" d="M207.353 113.884C207.66 113.566 208.153 113.586 208.435 113.93L217.915 125.487L228.721 115.159C229.042 114.852 229.534 114.891 229.801 115.244L235.863 123.274C236.129 123.627 236.063 124.151 235.716 124.424L224.373 133.36L233.345 144.298C233.609 144.619 233.59 145.105 233.302 145.403L228.917 149.945C228.63 150.243 228.176 150.247 227.885 149.954L217.09 139.096L205.062 148.571C204.738 148.826 204.288 148.767 204.039 148.437L200.235 143.398C199.985 143.068 200.025 142.584 200.325 142.297L210.554 132.522L200.372 122.282C200.061 121.969 200.058 121.44 200.366 121.122L207.353 113.884Z" fill="white"/>
            </g>
        </g>
        <g filter="url(#filter4_i_2368_48576)">
            <g clip-path="url(#clip3_2368_48576)">
                <rect x="249" y="12.3957" width="70" height="69.9997" rx="25.8461" transform="rotate(-17.4538 249 12.3957)" fill="#FF8700"/>
                <rect x="249" y="12.3957" width="70" height="64.0767" rx="25.8461" transform="rotate(-17.4538 249 12.3957)" fill="url(#paint10_linear_2368_48576)" fill-opacity="0.04"/>
                <path fill-rule="evenodd" clip-rule="evenodd" d="M286.057 26.7438C283.589 25.4565 282.632 22.4123 283.919 19.9443L284.451 18.9246C285.739 16.4566 288.783 15.4995 291.251 16.7867L292.271 17.3186C294.739 18.6059 295.696 21.6501 294.408 24.1181L293.877 25.1378C292.589 27.6058 289.545 28.5629 287.077 27.2757L286.057 26.7438ZM277.761 43.3698C277.306 43.5557 276.79 43.313 276.642 42.8442L274.089 34.7231C273.942 34.2543 274.226 33.7596 274.706 33.6517L291.337 29.9067C291.382 29.8965 291.427 29.8825 291.47 29.8649L307.252 23.4188C307.707 23.233 308.223 23.4757 308.371 23.9445L310.924 32.0655C311.072 32.5343 310.787 33.029 310.307 33.137L293.676 36.8819C293.631 36.8922 293.586 36.9062 293.543 36.9238L277.761 43.3698ZM291.105 42.7988C289.818 45.2668 290.775 48.311 293.243 49.5983L294.263 50.1302C296.731 51.4174 299.775 50.4603 301.062 47.9923L301.594 46.9726C302.881 44.5046 301.924 41.4604 299.456 40.1731L298.437 39.6413C295.969 38.354 292.924 39.3111 291.637 41.7791L291.105 42.7988Z" fill="white"/>
            </g>
        </g>
        <g filter="url(#filter5_i_2368_48576)">
            <g clip-path="url(#clip4_2368_48576)">
                <rect x="318.404" y="103" width="70" height="69.9997" rx="25.8461" transform="rotate(9.65449 318.404 103)" fill="#FDA116"/>
                <rect x="318.404" y="103" width="70" height="64.0767" rx="25.8461" transform="rotate(9.65449 318.404 103)" fill="url(#paint11_linear_2368_48576)" fill-opacity="0.04"/>
                <path d="M339.092 139.174L330.539 139.358C330.076 139.368 329.708 139.751 329.717 140.214L329.839 146.416C329.849 146.925 330.305 147.308 330.807 147.23L335.087 146.569C335.455 146.512 335.817 146.705 335.975 147.042L339.95 155.502C340.084 155.786 340.366 155.972 340.681 155.984L345.259 156.148C345.603 156.161 345.92 155.962 346.059 155.647L354.868 135.569C355.023 135.216 355.398 135.014 355.778 135.079L365.744 136.774C366.201 136.852 366.635 136.544 366.713 136.087L367.636 130.661C367.709 130.232 367.442 129.818 367.021 129.708L352.085 125.78C351.694 125.677 351.284 125.868 351.112 126.235L343.199 143.066C342.904 143.693 342.021 143.714 341.696 143.102L339.852 139.621C339.703 139.34 339.409 139.167 339.092 139.174Z" fill="white"/>
            </g>
        </g>
        <g filter="url(#filter6_i_2368_48576)">
            <g clip-path="url(#clip5_2368_48576)">
                <rect x="424.103" y="40" width="70" height="69.9997" rx="25.8461" transform="rotate(17.1952 424.103 40)" fill="#FF8700"/>
                <rect x="424.103" y="40" width="70" height="64.0767" rx="25.8461" transform="rotate(17.1952 424.103 40)" fill="url(#paint12_linear_2368_48576)" fill-opacity="0.04"/>
                <path fill-rule="evenodd" clip-rule="evenodd" d="M447.661 63.2533C447.192 63.108 446.698 63.395 446.593 63.8749L443.98 75.7274L433.366 71.4482C432.911 71.2644 432.395 71.5095 432.25 71.9789L429.47 80.9629C429.324 81.4323 429.611 81.9257 430.091 82.0315L442.011 84.6591L439.193 97.444C439.099 97.8706 439.347 98.2981 439.765 98.4273L445.44 100.184C445.857 100.313 446.304 100.1 446.467 99.6952L451.363 87.5531L462.683 92.1174C463.139 92.3011 463.655 92.0561 463.8 91.5866L466.58 82.6027C466.725 82.1332 466.438 81.6398 465.958 81.5341L454.783 79.0706L459.322 67.814C459.505 67.3582 459.26 66.8427 458.791 66.6974L447.661 63.2533Z" fill="white"/>
            </g>
        </g>
    </g>
    <defs>
        <filter id="filter0_i_2368_48576" x="177.203" y="388.526" width="112.246" height="57.7217" filterUnits="userSpaceOnUse" color-interpolation-filters="sRGB">
            <feFlood flood-opacity="0" result="BackgroundImageFix"/>
            <feBlend mode="normal" in="SourceGraphic" in2="BackgroundImageFix" result="shape"/>
            <feColorMatrix in="SourceAlpha" type="matrix" values="0 0 0 0 0 0 0 0 0 0 0 0 0 0 0 0 0 0 127 0" result="hardAlpha"/>
            <feOffset dx="10" dy="14"/>
            <feComposite in2="hardAlpha" operator="arithmetic" k2="-1" k3="1"/>
            <feColorMatrix type="matrix" values="0 0 0 0 0.105956 0 0 0 0 0.743252 0 0 0 0 0.940609 0 0 0 1 0"/>
            <feBlend mode="normal" in2="shape" result="effect1_innerShadow_2368_48576"/>
        </filter>
        <filter id="filter1_i_2368_48576" x="125.989" y="329.713" width="27.3672" height="43.1561" filterUnits="userSpaceOnUse" color-interpolation-filters="sRGB">
            <feFlood flood-opacity="0" result="BackgroundImageFix"/>
            <feBlend mode="normal" in="SourceGraphic" in2="BackgroundImageFix" result="shape"/>
            <feColorMatrix in="SourceAlpha" type="matrix" values="0 0 0 0 0 0 0 0 0 0 0 0 0 0 0 0 0 0 127 0" result="hardAlpha"/>
            <feOffset dx="4.41495"/>
            <feComposite in2="hardAlpha" operator="arithmetic" k2="-1" k3="1"/>
            <feColorMatrix type="matrix" values="0 0 0 0 0 0 0 0 0 0 0 0 0 0 0 0 0 0 0.2 0"/>
            <feBlend mode="normal" in2="shape" result="effect1_innerShadow_2368_48576"/>
        </filter>
        <filter id="filter2_i_2368_48576" x="53" y="37.3175" width="89.6846" height="89.6845" filterUnits="userSpaceOnUse" color-interpolation-filters="sRGB">
            <feFlood flood-opacity="0" result="BackgroundImageFix"/>
            <feBlend mode="normal" in="SourceGraphic" in2="BackgroundImageFix" result="shape"/>
            <feColorMatrix in="SourceAlpha" type="matrix" values="0 0 0 0 0 0 0 0 0 0 0 0 0 0 0 0 0 0 127 0" result="hardAlpha"/>
            <feOffset dy="-5.87412"/>
            <feComposite in2="hardAlpha" operator="arithmetic" k2="-1" k3="1"/>
            <feColorMatrix type="matrix" values="0 0 0 0 0.920752 0 0 0 0 0.58957 0 0 0 0 0.0888532 0 0 0 1 0"/>
            <feBlend mode="normal" in2="shape" result="effect1_innerShadow_2368_48576"/>
        </filter>
        <filter id="filter3_i_2368_48576" x="180.879" y="97" width="74.1064" height="74.1065" filterUnits="userSpaceOnUse" color-interpolation-filters="sRGB">
            <feFlood flood-opacity="0" result="BackgroundImageFix"/>
            <feBlend mode="normal" in="SourceGraphic" in2="BackgroundImageFix" result="shape"/>
            <feColorMatrix in="SourceAlpha" type="matrix" values="0 0 0 0 0 0 0 0 0 0 0 0 0 0 0 0 0 0 127 0" result="hardAlpha"/>
            <feOffset dy="-5.87412"/>
            <feComposite in2="hardAlpha" operator="arithmetic" k2="-1" k3="1"/>
            <feColorMatrix type="matrix" values="0 0 0 0 0 0 0 0 0 0 0 0 0 0 0 0 0 0 0.12 0"/>
            <feBlend mode="normal" in2="shape" result="effect1_innerShadow_2368_48576"/>
        </filter>
        <filter id="filter4_i_2368_48576" x="249" y="-8.59987" width="87.7725" height="87.7725" filterUnits="userSpaceOnUse" color-interpolation-filters="sRGB">
            <feFlood flood-opacity="0" result="BackgroundImageFix"/>
            <feBlend mode="normal" in="SourceGraphic" in2="BackgroundImageFix" result="shape"/>
            <feColorMatrix in="SourceAlpha" type="matrix" values="0 0 0 0 0 0 0 0 0 0 0 0 0 0 0 0 0 0 127 0" result="hardAlpha"/>
            <feOffset dy="-5.87412"/>
            <feComposite in2="hardAlpha" operator="arithmetic" k2="-1" k3="1"/>
            <feColorMatrix type="matrix" values="0 0 0 0 0 0 0 0 0 0 0 0 0 0 0 0 0 0 0.12 0"/>
            <feBlend mode="normal" in2="shape" result="effect1_innerShadow_2368_48576"/>
        </filter>
        <filter id="filter5_i_2368_48576" x="306.665" y="103" width="80.748" height="80.7478" filterUnits="userSpaceOnUse" color-interpolation-filters="sRGB">
            <feFlood flood-opacity="0" result="BackgroundImageFix"/>
            <feBlend mode="normal" in="SourceGraphic" in2="BackgroundImageFix" result="shape"/>
            <feColorMatrix in="SourceAlpha" type="matrix" values="0 0 0 0 0 0 0 0 0 0 0 0 0 0 0 0 0 0 127 0" result="hardAlpha"/>
            <feOffset dy="-5.87412"/>
            <feComposite in2="hardAlpha" operator="arithmetic" k2="-1" k3="1"/>
            <feColorMatrix type="matrix" values="0 0 0 0 0.920752 0 0 0 0 0.58957 0 0 0 0 0.0888532 0 0 0 1 0"/>
            <feBlend mode="normal" in2="shape" result="effect1_innerShadow_2368_48576"/>
        </filter>
        <filter id="filter6_i_2368_48576" x="403.409" y="40" width="87.5649" height="87.5649" filterUnits="userSpaceOnUse" color-interpolation-filters="sRGB">
            <feFlood flood-opacity="0" result="BackgroundImageFix"/>
            <feBlend mode="normal" in="SourceGraphic" in2="BackgroundImageFix" result="shape"/>
            <feColorMatrix in="SourceAlpha" type="matrix" values="0 0 0 0 0 0 0 0 0 0 0 0 0 0 0 0 0 0 127 0" result="hardAlpha"/>
            <feOffset dy="-5.87412"/>
            <feComposite in2="hardAlpha" operator="arithmetic" k2="-1" k3="1"/>
            <feColorMatrix type="matrix" values="0 0 0 0 0 0 0 0 0 0 0 0 0 0 0 0 0 0 0.12 0"/>
            <feBlend mode="normal" in2="shape" result="effect1_innerShadow_2368_48576"/>
        </filter>
        <linearGradient id="paint0_linear_2368_48576" x1="194.878" y1="288.734" x2="137.143" y2="288.756" gradientUnits="userSpaceOnUse">
            <stop offset="0.496332" stop-opacity="0.5"/>
            <stop offset="0.497136" stop-opacity="0"/>
        </linearGradient>
        <linearGradient id="paint1_linear_2368_48576" x1="170.729" y1="326.254" x2="101.257" y2="326.283" gradientUnits="userSpaceOnUse">
            <stop offset="0.496332" stop-opacity="0.5"/>
            <stop offset="0.497136" stop-opacity="0"/>
        </linearGradient>
        <linearGradient id="paint2_linear_2368_48576" x1="445.094" y1="289.196" x2="396.529" y2="289.21" gradientUnits="userSpaceOnUse">
            <stop offset="0.496332" stop-opacity="0.5"/>
            <stop offset="0.497136" stop-opacity="0"/>
        </linearGradient>
        <linearGradient id="paint3_linear_2368_48576" x1="12.9441" y1="18.4724" x2="0" y2="18.4724" gradientUnits="userSpaceOnUse">
            <stop offset="0.496332" stop-opacity="0.5"/>
            <stop offset="0.499514" stop-opacity="0"/>
        </linearGradient>
        <linearGradient id="paint4_linear_2368_48576" x1="12.9441" y1="18.4724" x2="0" y2="18.4724" gradientUnits="userSpaceOnUse">
            <stop offset="0.496332" stop-opacity="0.5"/>
            <stop offset="0.499514" stop-opacity="0"/>
        </linearGradient>
        <linearGradient id="paint5_linear_2368_48576" x1="412.148" y1="431.88" x2="521.386" y2="431.88" gradientUnits="userSpaceOnUse">
            <stop offset="0.510417" stop-color="#8DAEBB" stop-opacity="0.55"/>
            <stop offset="0.510517" stop-color="white" stop-opacity="0"/>
        </linearGradient>
        <linearGradient id="paint6_linear_2368_48576" x1="98.7407" y1="236.197" x2="3.85986" y2="236.197" gradientUnits="userSpaceOnUse">
            <stop offset="0.510417" stop-color="#8DAEBB" stop-opacity="0.55"/>
            <stop offset="0.510517" stop-color="white" stop-opacity="0"/>
        </linearGradient>
        <linearGradient id="paint7_linear_2368_48576" x1="99.0899" y1="407.058" x2="22.8736" y2="407.058" gradientUnits="userSpaceOnUse">
            <stop offset="0.279002" stop-color="#8DAEBB" stop-opacity="0.55"/>
            <stop offset="0.287944" stop-color="white" stop-opacity="0"/>
        </linearGradient>
        <linearGradient id="paint8_linear_2368_48576" x1="123" y1="93.242" x2="53" y2="93.242" gradientUnits="userSpaceOnUse">
            <stop offset="0.499414"/>
            <stop offset="0.499514" stop-opacity="0"/>
        </linearGradient>
        <linearGradient id="paint9_linear_2368_48576" x1="255.114" y1="129.038" x2="185.114" y2="129.038" gradientUnits="userSpaceOnUse">
            <stop offset="0.499414"/>
            <stop offset="0.499514" stop-opacity="0"/>
        </linearGradient>
        <linearGradient id="paint10_linear_2368_48576" x1="319" y1="44.434" x2="249" y2="44.434" gradientUnits="userSpaceOnUse">
            <stop offset="0.499414"/>
            <stop offset="0.499514" stop-opacity="0"/>
        </linearGradient>
        <linearGradient id="paint11_linear_2368_48576" x1="388.404" y1="135.038" x2="318.404" y2="135.038" gradientUnits="userSpaceOnUse">
            <stop offset="0.499414"/>
            <stop offset="0.499514" stop-opacity="0"/>
        </linearGradient>
        <linearGradient id="paint12_linear_2368_48576" x1="494.103" y1="72.0384" x2="424.103" y2="72.0384" gradientUnits="userSpaceOnUse">
            <stop offset="0.499414"/>
            <stop offset="0.499514" stop-opacity="0"/>
        </linearGradient>
        <clipPath id="clip0_2368_48576">
            <rect width="540" height="540" fill="white"/>
        </clipPath>
        <clipPath id="clip1_2368_48576">
            <rect x="53" y="61.2037" width="70" height="69.9997" rx="25.8461" transform="rotate(-19.9519 53 61.2037)" fill="white"/>
        </clipPath>
        <clipPath id="clip2_2368_48576">
            <rect x="185.114" y="97" width="70" height="69.9997" rx="25.8461" transform="rotate(3.46849 185.114 97)" fill="white"/>
        </clipPath>
        <clipPath id="clip3_2368_48576">
            <rect x="249" y="12.3957" width="70" height="69.9997" rx="25.8461" transform="rotate(-17.4538 249 12.3957)" fill="white"/>
        </clipPath>
        <clipPath id="clip4_2368_48576">
            <rect x="318.404" y="103" width="70" height="69.9997" rx="25.8461" transform="rotate(9.65449 318.404 103)" fill="white"/>
        </clipPath>
        <clipPath id="clip5_2368_48576">
            <rect x="424.103" y="40" width="70" height="69.9997" rx="25.8461" transform="rotate(17.1952 424.103 40)" fill="white"/>
        </clipPath>
    </defs>
</svg>
