<svg width="58" height="44" viewBox="0 0 58 44" fill="none" xmlns="http://www.w3.org/2000/svg">
    <rect y="6.67786" width="49.1936" height="37.0968" rx="2.90323" fill="#BFC5CB"/>
    <rect x="8.86719" y="11.5165" width="35.4839" height="27.4194" rx="2.09677" fill="white"/>
    <circle cx="4.84123" cy="25.2262" r="2.41935" fill="white"/>
    <path d="M54.6953 7.18213L49.6624 3.14567L35.4665 20.846C35.2745 21.0854 35.1548 21.3746 35.1214 21.6797L34.6571 25.9239C34.5929 26.5105 35.1598 26.9651 35.7184 26.7751L39.7606 25.4003C40.0511 25.3015 40.3074 25.1219 40.4995 24.8825L54.6953 7.18213Z" fill="#FECE5F"/>
    <path d="M54.6953 7.18213L49.6624 3.14567L35.4665 20.846C35.2745 21.0854 35.1548 21.3746 35.1214 21.6797L34.6571 25.9239C34.5929 26.5105 35.1598 26.9651 35.7184 26.7751L39.7606 25.4003C40.0511 25.3015 40.3074 25.1219 40.4995 24.8825L54.6953 7.18213Z" fill="url(#paint0_linear_199_52566)" fill-opacity="0.6"/>
    <path d="M35.5313 20.761L40.5642 24.7974L39.9914 25.5117C39.7994 25.7511 39.543 25.9307 39.2525 26.0295L35.2103 27.4043C34.6517 27.5943 34.0848 27.1397 34.149 26.5531L34.6133 22.3089C34.6467 22.0038 34.7664 21.7146 34.9584 21.4752L35.5313 20.761Z" fill="#596C76"/>
    <path d="M35.5313 20.761L40.5642 24.7974L39.9914 25.5117C39.7994 25.7511 39.543 25.9307 39.2525 26.0295L35.2103 27.4043C34.6517 27.5943 34.0848 27.1397 34.149 26.5531L34.6133 22.3089C34.6467 22.0038 34.7664 21.7146 34.9584 21.4752L35.5313 20.761Z" fill="url(#paint1_linear_199_52566)" fill-opacity="0.2"/>
    <path d="M56.2096 5.29485C56.767 4.59995 56.6554 3.58483 55.9605 3.02751L53.4441 1.00928C52.7492 0.451958 51.734 0.563491 51.1767 1.25839L50.1676 2.51662L55.2005 6.55308L56.2096 5.29485Z" fill="#FB5C85"/>
    <path d="M56.2096 5.29485C56.767 4.59995 56.6554 3.58483 55.9605 3.02751L53.4441 1.00928C52.7492 0.451958 51.734 0.563491 51.1767 1.25839L50.1676 2.51662L55.2005 6.55308L56.2096 5.29485Z" fill="url(#paint2_linear_199_52566)" fill-opacity="0.6"/>
    <rect x="50.1719" y="2.5166" width="6.45161" height="3.22581" transform="rotate(38.73 50.1719 2.5166)" fill="#596C76"/>
    <rect x="50.1719" y="2.5166" width="6.45161" height="3.22581" transform="rotate(38.73 50.1719 2.5166)" fill="url(#paint3_linear_199_52566)" fill-opacity="0.3"/>
    <rect x="41.9688" y="16.6127" width="1.6129" height="4.03226" rx="0.806452" transform="rotate(38.73 41.9688 16.6127)" fill="white"/>
    <path d="M14.0029 28.5V23.6946C14.0029 21.1019 16.1048 19 18.6975 19V19C21.2902 19 23.3921 21.1019 23.3921 23.6946V28.0097C23.3921 30.4908 25.3728 32.5182 27.8533 32.576V32.576C29.4902 32.6142 31.0223 31.7732 31.8691 30.3717L33 28.5" stroke="#596C76" stroke-width="2.41935" stroke-linecap="round"/>
    <defs>
        <linearGradient id="paint0_linear_199_52566" x1="40.8326" y1="14.1552" x2="45.8656" y2="18.1916" gradientUnits="userSpaceOnUse">
            <stop offset="0.499514" stop-color="white" stop-opacity="0"/>
            <stop offset="0.499614" stop-color="#F89D32"/>
        </linearGradient>
        <linearGradient id="paint1_linear_199_52566" x1="39.0505" y1="26.6848" x2="34.0176" y2="22.6483" gradientUnits="userSpaceOnUse">
            <stop offset="0.496332" stop-opacity="0.5"/>
            <stop offset="0.499514" stop-opacity="0"/>
        </linearGradient>
        <linearGradient id="paint2_linear_199_52566" x1="51.1767" y1="1.25839" x2="56.2096" y2="5.29485" gradientUnits="userSpaceOnUse">
            <stop offset="0.499514" stop-color="white" stop-opacity="0"/>
            <stop offset="0.499614" stop-color="#DF3561"/>
        </linearGradient>
        <linearGradient id="paint3_linear_199_52566" x1="56.6235" y1="4.1295" x2="50.1719" y2="4.1295" gradientUnits="userSpaceOnUse">
            <stop offset="0.496332" stop-opacity="0.5"/>
            <stop offset="0.499514" stop-opacity="0"/>
        </linearGradient>
    </defs>
</svg>