<svg width="102" height="102" viewBox="0 0 102 102" fill="none" xmlns="http://www.w3.org/2000/svg">
    <path d="M1 11C1 5.47715 5.47715 1 11 1H91C96.5228 1 101 5.47715 101 11V51H1V11Z" fill="white"/>
    <path d="M0.5 11C0.5 5.20101 5.20101 0.5 11 0.5H91C96.799 0.5 101.5 5.20101 101.5 11H100.5C100.5 5.75329 96.2467 1.5 91 1.5H11C5.75329 1.5 1.5 5.75329 1.5 11H0.5ZM101 51H1H101ZM0.5 51V11C0.5 5.20101 5.20101 0.5 11 0.5V1.5C5.75329 1.5 1.5 5.75329 1.5 11V51H0.5ZM91 0.5C96.799 0.5 101.5 5.20101 101.5 11V51H100.5V11C100.5 5.75329 96.2467 1.5 91 1.5V0.5Z" fill="#E8E8E8"/>
    <g clip-path="url(#clip0_338_10916)">
        <path d="M61.4803 19.6798C59.0289 19.6798 57.0281 21.6338 57.0281 24.0475C57.0281 25.2411 57.5328 26.3375 58.3349 27.1332C58.3349 27.1332 58.3529 27.1509 58.3619 27.1509C59.0559 27.814 59.9572 28.2649 60.9756 28.3798C60.9936 28.3798 61.0117 28.3798 61.0297 28.3798C61.1739 28.3975 61.3271 28.3975 61.4803 28.3975C61.6335 28.3975 61.7778 28.3975 61.931 28.3798C61.949 28.3798 61.958 28.3798 61.976 28.3798C62.9674 28.2649 63.8597 27.8405 64.5446 27.2039C64.5717 27.1774 64.6077 27.1509 64.6348 27.1244C65.4369 26.3375 65.9326 25.25 65.9326 24.0475C65.9326 21.6426 63.9408 19.6798 61.4893 19.6798H61.4803ZM45.5549 38.8658H36.2808C35.9113 38.8658 35.6049 39.1664 35.6049 39.5289V40.7579H46.2399V39.5289C46.2399 39.1664 45.9334 38.8658 45.5639 38.8658H45.5549ZM40.4177 32.0137C39.7237 32.4204 38.9125 32.6591 38.0473 32.6591C37.1821 32.6591 36.3709 32.4204 35.677 32.0137L35.6319 31.996C33.4689 32.9244 32.0358 35.0551 32.0358 37.3805V40.7579H34.2079V39.5289C34.2079 39.1664 34.3161 38.8216 34.4963 38.5298V35.7801C34.4963 35.4088 34.7937 35.1082 35.1813 35.1082C35.5688 35.1082 35.8662 35.4088 35.8662 35.7801V37.5661C35.9924 37.5484 36.1186 37.5219 36.2538 37.5219H40.2013V35.7801C40.2013 35.4088 40.5078 35.1082 40.8863 35.1082C41.2648 35.1082 41.5713 35.4088 41.5713 35.7801V37.5219H44.0227V37.3805C44.0227 35.0551 42.5987 32.9244 40.4267 31.996C40.4086 31.996 40.3996 32.0137 40.3906 32.0137H40.4177ZM37.5516 31.271C37.8851 31.3152 38.2186 31.3152 38.543 31.271H38.561C38.6872 31.2533 38.8314 31.2179 38.9576 31.1737C39.0117 31.1561 39.0657 31.1384 39.1198 31.1207C39.228 31.0853 39.3361 31.05 39.4443 30.9969C39.5164 30.9615 39.5975 30.9262 39.6696 30.8731C39.7597 30.8289 39.8408 30.7759 39.922 30.7228C40.7421 30.1481 41.2829 29.2109 41.2829 28.1411C41.2829 26.3905 39.8318 24.9759 38.0563 24.9759C36.2808 24.9759 34.8208 26.3994 34.8208 28.1411C34.8208 29.2109 35.3615 30.1481 36.1817 30.7228C36.2628 30.7759 36.3439 30.8201 36.425 30.8731C36.4971 30.9173 36.5782 30.9615 36.6594 30.9969C36.7585 31.05 36.8666 31.0942 36.9748 31.1207C37.0289 31.1384 37.092 31.1649 37.146 31.1737C37.2722 31.2179 37.4074 31.2445 37.5426 31.271H37.5516ZM71.2861 45.1344V42.2786C71.2861 42.1814 71.205 42.093 71.0969 42.093H30.8912C30.7921 42.093 30.702 42.1725 30.702 42.2786V45.1344C30.702 45.2317 30.7831 45.3201 30.8912 45.3201H71.0969C71.196 45.3201 71.2861 45.2405 71.2861 45.1344ZM61.4803 18.3359C64.6889 18.3359 67.2935 20.9 67.2935 24.0475C67.2935 25.2765 66.888 26.4259 66.203 27.3542C69.3574 29.0429 71.3582 32.2878 71.3582 35.8597V40.7844C72.0883 40.9082 72.6561 41.5271 72.6561 42.2875V45.1433C72.6561 45.9832 71.9531 46.6728 71.0969 46.6728H30.8912C30.035 46.6728 29.332 45.9832 29.332 45.1433V42.2875C29.332 41.5183 29.9179 40.8817 30.6749 40.7844V37.3893C30.6749 34.7369 32.18 32.3054 34.5143 31.05C33.8384 30.2719 33.4418 29.2551 33.4418 28.15C33.4418 25.6567 35.5057 23.632 38.0473 23.632C40.5889 23.632 42.6528 25.6567 42.6528 28.15C42.6528 29.2551 42.2472 30.2719 41.5803 31.05C43.9146 32.3054 45.4197 34.7369 45.4197 37.3893V37.5308H45.5459C46.6815 37.5308 47.6008 38.4326 47.6008 39.5466V40.7756H50.7642C50.4848 40.3423 50.3136 39.8207 50.3136 39.2637C50.3136 38.2734 50.8183 37.407 51.5934 36.8942V35.8774C51.5934 32.3143 53.5852 29.0606 56.7487 27.3719C56.0727 26.4347 55.6581 25.2942 55.6581 24.0652C55.6581 20.9176 58.2718 18.3536 61.4803 18.3536V18.3359ZM69.9883 35.8597C69.9883 32.6768 68.1407 29.7856 65.2567 28.3798C65.2386 28.3975 65.2116 28.4064 65.1846 28.424C65.1575 28.4417 65.1395 28.4594 65.1215 28.4771C64.9953 28.5744 64.8781 28.6628 64.7429 28.7423C64.7159 28.76 64.6979 28.7777 64.6708 28.7954C64.5447 28.875 64.4095 28.9545 64.2833 29.0341C64.2472 29.0518 64.2202 29.0606 64.1932 29.0783C64.067 29.149 63.9228 29.2109 63.7876 29.2728C63.7515 29.2905 63.7155 29.2994 63.6794 29.317C63.5533 29.3701 63.4181 29.4143 63.2829 29.4673C63.2378 29.485 63.1927 29.4939 63.1477 29.5115C63.0215 29.5558 62.8863 29.5823 62.7601 29.6088C62.7061 29.6088 62.661 29.6265 62.5979 29.6442C62.4717 29.6707 62.3275 29.6884 62.1923 29.7061C62.1473 29.7061 62.0932 29.7237 62.0391 29.7237C61.8499 29.7414 61.6606 29.7503 61.4803 29.7503C61.3001 29.7503 61.1018 29.7326 60.9125 29.7237C60.8675 29.7237 60.8134 29.7061 60.7593 29.7061C60.6241 29.6884 60.4889 29.6707 60.3537 29.6442C60.2997 29.6265 60.2546 29.6176 60.1915 29.6088C60.0653 29.5734 59.9301 29.5469 59.804 29.5115C59.7589 29.4939 59.7138 29.485 59.6688 29.4673C59.5426 29.4231 59.3984 29.3701 59.2722 29.317C59.2362 29.2994 59.2001 29.2905 59.1641 29.2728C59.0289 29.2198 58.8937 29.1579 58.7675 29.0872C58.7405 29.0695 58.7044 29.0518 58.6684 29.0341C58.5422 28.9634 58.416 28.8838 58.2808 28.8042C58.2538 28.7865 58.2267 28.7689 58.1997 28.7512C58.0735 28.6716 57.9564 28.5832 57.8392 28.4859C57.8122 28.4683 57.7941 28.4417 57.7671 28.424C57.7491 28.4064 57.722 28.3887 57.704 28.3798C54.8199 29.7768 52.9723 32.6768 52.9723 35.8597V36.4079C53.0625 36.4079 53.1436 36.3814 53.2337 36.3814H56.2349V34.507C56.2349 34.1356 56.5414 33.835 56.9199 33.835C57.2984 33.835 57.6049 34.1356 57.6049 34.507V36.3814H65.3648V34.507C65.3648 34.1356 65.6712 33.835 66.0498 33.835C66.4283 33.835 66.7347 34.1356 66.7347 34.507V37.0533C66.7347 37.4247 66.4283 37.7253 66.0498 37.7253H53.2337C52.3865 37.7253 51.6925 38.4061 51.6925 39.246C51.6925 40.0859 52.3865 40.7579 53.2337 40.7579H69.9973V35.8597H69.9883Z" fill="#252525" stroke="#252525" stroke-width="0.5" stroke-miterlimit="10"/>
    </g>
    <path d="M1 51H101V91C101 96.5228 96.5229 101 91 101H11C5.47716 101 1 96.5228 1 91V51Z" fill="white"/>
    <path d="M1 51H101H1ZM101.5 91C101.5 96.799 96.799 101.5 91 101.5H11C5.20101 101.5 0.5 96.799 0.5 91H1.5C1.5 96.2467 5.75329 100.5 11 100.5H91C96.2467 100.5 100.5 96.2467 100.5 91H101.5ZM11 101.5C5.20101 101.5 0.5 96.799 0.5 91V51H1.5V91C1.5 96.2467 5.75329 100.5 11 100.5V101.5ZM101.5 51V91C101.5 96.799 96.799 101.5 91 101.5V100.5C96.2467 100.5 100.5 96.2467 100.5 91V51H101.5Z" fill="#E8E8E8"/>
    <path d="M22.3275 60.25H25.4355V61.454H22.3275V60.25ZM18.8695 58.15H20.0455V59.634C20.0455 62.168 18.7855 64.31 16.5315 65.178L15.7615 64.03C17.7495 63.316 18.8695 61.524 18.8695 59.634V58.15ZM19.1635 58.15H20.3395V59.662C20.3395 61.384 21.4175 63.05 23.3355 63.736L22.5515 64.87C20.3955 64.058 19.1635 62.014 19.1635 59.662V58.15ZM24.9175 57.38H26.3875V66.886H24.9175V57.38ZM18.0575 68.72H26.6815V69.91H18.0575V68.72ZM18.0575 65.878H19.5275V69.336H18.0575V65.878ZM31.1744 58.15H32.3224V59.76C32.3224 61.79 31.3284 63.862 29.3544 64.716L28.5844 63.582C30.3064 62.826 31.1744 61.202 31.1744 59.76V58.15ZM31.4264 58.15H32.5884V59.76C32.5884 61.16 33.4284 62.574 35.0804 63.218L34.2964 64.338C32.3924 63.582 31.4264 61.734 31.4264 59.76V58.15ZM38.1044 57.38H39.4904V65.234H38.1044V57.38ZM36.2844 60.656H38.5244V61.846H36.2844V60.656ZM35.3744 57.618H36.7464V64.828H35.3744V57.618ZM35.2344 65.472C37.8804 65.472 39.5604 66.34 39.5604 67.81C39.5604 69.28 37.8804 70.148 35.2344 70.148C32.5604 70.148 30.9084 69.28 30.9084 67.81C30.9084 66.34 32.5604 65.472 35.2344 65.472ZM35.2344 66.592C33.4284 66.592 32.3504 67.026 32.3504 67.81C32.3504 68.594 33.4284 69.028 35.2344 69.028C37.0264 69.028 38.0904 68.594 38.0904 67.81C38.0904 67.026 37.0264 66.592 35.2344 66.592ZM50.6193 57.366H52.0893V64.576H50.6193V57.366ZM42.3033 58.108H43.7593V63.344H42.3033V58.108ZM42.3033 62.546H43.3673C45.5513 62.546 47.4133 62.42 49.3733 62L49.5693 63.19C47.5253 63.638 45.6213 63.764 43.3673 63.764H42.3033V62.546ZM43.7173 65.164H52.0893V70.008H43.7173V65.164ZM50.6473 66.312H45.1453V68.832H50.6473V66.312ZM54.8742 71.814L54.5242 70.904C55.4902 70.498 56.0502 69.784 56.0502 68.944L55.9382 67.656L56.6102 68.706C56.4142 68.916 56.1622 69 55.8962 69C55.3222 69 54.8042 68.622 54.8042 67.964C54.8042 67.32 55.3222 66.928 55.9382 66.928C56.7222 66.928 57.1842 67.572 57.1842 68.65C57.1842 70.134 56.3302 71.268 54.8742 71.814ZM61.7547 58.612H69.2867V59.788H61.7547V58.612ZM65.5207 60.334C67.3547 60.334 68.6147 61.258 68.6147 62.672C68.6147 64.072 67.3547 64.982 65.5207 64.982C63.6867 64.982 62.4127 64.072 62.4127 62.672C62.4127 61.258 63.6867 60.334 65.5207 60.334ZM65.5207 61.454C64.5127 61.454 63.8267 61.902 63.8267 62.672C63.8267 63.414 64.5127 63.876 65.5207 63.876C66.5287 63.876 67.2147 63.414 67.2147 62.672C67.2147 61.902 66.5287 61.454 65.5207 61.454ZM70.2527 57.366H71.7227V65.374H70.2527V57.366ZM71.3167 60.796H73.5287V62H71.3167V60.796ZM63.3087 66.004H71.7227V70.162H70.2527V67.18H63.3087V66.004ZM64.7927 57.296H66.2487V59.284H64.7927V57.296ZM77.1256 58.15H78.2736V59.76C78.2736 61.79 77.2796 63.862 75.3056 64.716L74.5356 63.582C76.2576 62.826 77.1256 61.202 77.1256 59.76V58.15ZM77.3776 58.15H78.5396V59.76C78.5396 61.16 79.3796 62.574 81.0316 63.218L80.2476 64.338C78.3436 63.582 77.3776 61.734 77.3776 59.76V58.15ZM84.0556 57.38H85.4416V65.234H84.0556V57.38ZM82.2356 60.656H84.4756V61.846H82.2356V60.656ZM81.3256 57.618H82.6976V64.828H81.3256V57.618ZM81.1856 65.472C83.8316 65.472 85.5116 66.34 85.5116 67.81C85.5116 69.28 83.8316 70.148 81.1856 70.148C78.5116 70.148 76.8596 69.28 76.8596 67.81C76.8596 66.34 78.5116 65.472 81.1856 65.472ZM81.1856 66.592C79.3796 66.592 78.3016 67.026 78.3016 67.81C78.3016 68.594 79.3796 69.028 81.1856 69.028C82.9776 69.028 84.0416 68.594 84.0416 67.81C84.0416 67.026 82.9776 66.592 81.1856 66.592ZM47.8231 75.352H49.2931V88.176H47.8231V75.352ZM42.4751 76.304C44.3931 76.304 45.7791 78.054 45.7791 80.812C45.7791 83.57 44.3931 85.334 42.4751 85.334C40.5711 85.334 39.1851 83.57 39.1851 80.812C39.1851 78.054 40.5711 76.304 42.4751 76.304ZM42.4751 77.634C41.3551 77.634 40.5851 78.824 40.5851 80.812C40.5851 82.814 41.3551 84.018 42.4751 84.018C43.5951 84.018 44.3651 82.814 44.3651 80.812C44.3651 78.824 43.5951 77.634 42.4751 77.634ZM54.374 79.678H55.83V82.058H54.374V79.678ZM58.98 79.678H60.436V82.058H58.98V79.678ZM51.63 81.582H63.194V82.744H51.63V81.582ZM57.398 83.57C60.142 83.57 61.808 84.396 61.808 85.852C61.808 87.322 60.142 88.148 57.398 88.148C54.64 88.148 52.988 87.322 52.988 85.852C52.988 84.396 54.64 83.57 57.398 83.57ZM57.398 84.69C55.522 84.69 54.472 85.096 54.472 85.852C54.472 86.622 55.522 87.028 57.398 87.028C59.274 87.028 60.324 86.622 60.324 85.852C60.324 85.096 59.274 84.69 57.398 84.69ZM57.412 75.576C60.212 75.576 61.976 76.486 61.976 77.998C61.976 79.51 60.212 80.392 57.412 80.392C54.612 80.392 52.862 79.51 52.862 77.998C52.862 76.486 54.612 75.576 57.412 75.576ZM57.412 76.71C55.508 76.71 54.374 77.158 54.374 77.998C54.374 78.824 55.508 79.272 57.412 79.272C59.33 79.272 60.464 78.824 60.464 77.998C60.464 77.158 59.33 76.71 57.412 76.71Z" fill="#252525"/>
    <defs>
        <clipPath id="clip0_338_10916">
            <rect width="44" height="29" fill="white" transform="translate(29 18)"/>
        </clipPath>
    </defs>
</svg>
