<svg width="102" height="102" viewBox="0 0 102 102" fill="none" xmlns="http://www.w3.org/2000/svg">
    <path d="M1 11C1 5.47715 5.47715 1 11 1H91C96.5228 1 101 5.47715 101 11V51H1V11Z" fill="white"/>
    <path d="M0.5 11C0.5 5.20101 5.20101 0.5 11 0.5H91C96.799 0.5 101.5 5.20101 101.5 11H100.5C100.5 5.75329 96.2467 1.5 91 1.5H11C5.75329 1.5 1.5 5.75329 1.5 11H0.5ZM101 51H1H101ZM0.5 51V11C0.5 5.20101 5.20101 0.5 11 0.5V1.5C5.75329 1.5 1.5 5.75329 1.5 11V51H0.5ZM91 0.5C96.799 0.5 101.5 5.20101 101.5 11V51H100.5V11C100.5 5.75329 96.2467 1.5 91 1.5V0.5Z" fill="#E8E8E8"/>
    <g clip-path="url(#clip0_338_10917)">
        <path d="M65.1502 44.9999H36.8538C35.2833 44.9999 34.002 43.7185 34.002 42.1481V24.8542C34.002 23.2838 35.2833 22.0024 36.8538 22.0024H65.1502C66.7206 22.0024 68.002 23.2838 68.002 24.8542V42.1481C68.002 43.7185 66.7206 44.9999 65.1502 44.9999ZM36.8538 24.1991C36.4973 24.1991 36.1986 24.4978 36.1986 24.8542V42.1481C36.1986 42.5046 36.4973 42.8032 36.8538 42.8032H65.1502C65.5066 42.8032 65.8053 42.5046 65.8053 42.1481V24.8542C65.8053 24.4978 65.5066 24.1991 65.1502 24.1991H36.8538Z" fill="#252525"/>
        <path d="M60.5804 38.0599C58.6964 38.0599 57.2324 36.7519 57.2324 34.5319C57.2324 32.3599 58.7684 31.0039 60.3644 31.0039C62.2124 31.0039 63.1724 32.3599 63.1724 34.2079C63.1724 34.5439 63.1364 34.8679 63.0884 35.0239H58.9484C59.0924 36.1279 59.8124 36.7039 60.8084 36.7039C61.3604 36.7039 61.8404 36.5359 62.3204 36.2359L62.9204 37.3159C62.2604 37.7719 61.4084 38.0599 60.5804 38.0599ZM58.9244 33.8479H61.6604C61.6604 32.9479 61.2524 32.3719 60.3884 32.3719C59.6804 32.3719 59.0564 32.8759 58.9244 33.8479Z" fill="#252525"/>
        <path d="M53.6078 38.0599C51.7238 38.0599 50.2598 36.7519 50.2598 34.5319C50.2598 32.3599 51.7958 31.0039 53.3918 31.0039C55.2398 31.0039 56.1998 32.3599 56.1998 34.2079C56.1998 34.5439 56.1638 34.8679 56.1158 35.0239H51.9758C52.1198 36.1279 52.8398 36.7039 53.8358 36.7039C54.3878 36.7039 54.8678 36.5359 55.3478 36.2359L55.9478 37.3159C55.2878 37.7719 54.4358 38.0599 53.6078 38.0599ZM51.9518 33.8479H54.6878C54.6878 32.9479 54.2798 32.3719 53.4158 32.3719C52.7078 32.3719 52.0838 32.8759 51.9518 33.8479Z" fill="#252525"/>
        <path d="M45.5938 37.8919V31.1719H47.0338L47.1658 32.3599H47.2017C47.6937 31.4839 48.4137 31.0039 49.1097 31.0039C49.4818 31.0039 49.6978 31.0639 49.9018 31.1479L49.6018 32.6719C49.3618 32.5999 49.1698 32.5639 48.8938 32.5639C48.3658 32.5639 47.7297 32.9119 47.3577 33.8839V37.8919H45.5938Z" fill="#252525"/>
        <path d="M39 37.892V29H44.472V30.488H40.776V32.804H43.932V34.292H40.776V37.892H39Z" fill="#252525"/>
    </g>
    <path d="M1 51H101V91C101 96.5228 96.5229 101 91 101H11C5.47716 101 1 96.5228 1 91V51Z" fill="white"/>
    <path d="M1 51H101H1ZM101.5 91C101.5 96.799 96.799 101.5 91 101.5H11C5.20101 101.5 0.5 96.799 0.5 91H1.5C1.5 96.2467 5.75329 100.5 11 100.5H91C96.2467 100.5 100.5 96.2467 100.5 91H101.5ZM11 101.5C5.20101 101.5 0.5 96.799 0.5 91V51H1.5V91C1.5 96.2467 5.75329 100.5 11 100.5V101.5ZM101.5 51V91C101.5 96.799 96.799 101.5 91 101.5V100.5C96.2467 100.5 100.5 96.2467 100.5 91V51H101.5Z" fill="#E8E8E8"/>
    <path d="M38.7511 72.674H50.3431V73.864H38.7511V72.674ZM43.7771 73.416H45.2331V78.162H43.7771V73.416ZM40.1651 66.038H48.9011V71.106H40.1651V66.038ZM47.4591 67.2H41.6071V69.944H47.4591V67.2ZM54.738 72.842H56.18V75.936H54.738V72.842ZM58.812 72.828H60.24V75.922H58.812V72.828ZM51.644 75.46H63.236V76.664H51.644V75.46ZM53.002 66.262H61.85V70.294H54.486V72.688H53.03V69.132H60.394V67.438H53.002V66.262ZM53.03 72.058H62.144V73.248H53.03V72.058Z" fill="#252525"/>
    <defs>
        <clipPath id="clip0_338_10917">
            <rect width="34" height="22.9974" fill="white" transform="translate(34 22.0024)"/>
        </clipPath>
    </defs>
</svg>
