<svg width="102" height="102" viewBox="0 0 102 102" fill="none" xmlns="http://www.w3.org/2000/svg">
    <path d="M1 11C1 5.47715 5.47715 1 11 1H91C96.5228 1 101 5.47715 101 11V51H1V11Z" fill="white"/>
    <path d="M0.5 11C0.5 5.20101 5.20101 0.5 11 0.5H91C96.799 0.5 101.5 5.20101 101.5 11H100.5C100.5 5.75329 96.2467 1.5 91 1.5H11C5.75329 1.5 1.5 5.75329 1.5 11H0.5ZM101 51H1H101ZM0.5 51V11C0.5 5.20101 5.20101 0.5 11 0.5V1.5C5.75329 1.5 1.5 5.75329 1.5 11V51H0.5ZM91 0.5C96.799 0.5 101.5 5.20101 101.5 11V51H100.5V11C100.5 5.75329 96.2467 1.5 91 1.5V0.5Z" fill="#E8E8E8"/>
    <g clip-path="url(#clip0_338_16470)">
        <path d="M55.9527 32.5636H45.8225C45.6116 32.5636 45.4169 32.45 45.3115 32.2635C45.2061 32.0769 45.2061 31.8498 45.3115 31.6714L50.3726 23.1065C50.5834 22.7496 51.1755 22.7496 51.3945 23.1065L56.4556 31.6714C56.561 31.8579 56.5691 32.0769 56.4556 32.2635C56.3501 32.45 56.1555 32.5636 55.9446 32.5636H55.9527ZM46.8606 31.3794H54.9145L50.8916 24.5664L46.8606 31.3794Z" fill="#252525" stroke="#252525" stroke-width="0.5" stroke-miterlimit="10"/>
        <path d="M55.7167 46.6923H46.0569C45.7325 46.6923 45.4648 46.4247 45.4648 46.1003V31.9715C45.4648 31.647 45.7325 31.3794 46.0569 31.3794H55.7167C56.0412 31.3794 56.3088 31.647 56.3088 31.9715V46.1003C56.3088 46.4247 56.0412 46.6923 55.7167 46.6923ZM46.649 45.5082H55.1247V32.5636H46.649V45.5082Z" fill="#252525" stroke="#252525" stroke-width="0.5" stroke-miterlimit="10"/>
        <path d="M68.1815 46.6923H55.7073C55.3829 46.6923 55.1152 46.4247 55.1152 46.1003V31.9715C55.1152 31.647 55.3829 31.3794 55.7073 31.3794H68.1815C68.506 31.3794 68.7736 31.647 68.7736 31.9715V46.1003C68.7736 46.4247 68.506 46.6923 68.1815 46.6923ZM56.2994 45.5082H67.5894V32.5636H56.2994V45.5082Z" fill="#252525" stroke="#252525" stroke-width="0.5" stroke-miterlimit="10"/>
        <path d="M46.1132 46.6919H33.639C33.3145 46.6919 33.0469 46.4242 33.0469 46.0998V31.971C33.0469 31.6466 33.3145 31.3789 33.639 31.3789H46.1132C46.4376 31.3789 46.7052 31.6466 46.7052 31.971V46.0998C46.7052 46.4242 46.4376 46.6919 46.1132 46.6919ZM34.231 45.5077H45.5211V32.5631H34.231V45.5077Z" fill="#252525" stroke="#252525" stroke-width="0.5" stroke-miterlimit="10"/>
        <path d="M46.0567 32.563H32.2199C32.0009 32.563 31.7981 32.4413 31.7008 32.2467C31.5953 32.052 31.6116 31.8168 31.7332 31.6384L34.8802 27.0315C34.9937 26.8693 35.1721 26.772 35.3668 26.772H47.9383C48.2628 26.772 48.5304 27.0396 48.5304 27.3641C48.5304 27.6885 48.2628 27.9561 47.9383 27.9561H35.6831L33.3472 31.3788H46.0567C46.3811 31.3788 46.6487 31.6465 46.6487 31.9709C46.6487 32.2953 46.3811 32.563 46.0567 32.563Z" fill="#252525" stroke="#252525" stroke-width="0.5" stroke-miterlimit="10"/>
        <path d="M69.7711 32.563H55.9424C55.618 32.563 55.3503 32.2953 55.3503 31.9709C55.3503 31.6465 55.618 31.3788 55.9424 31.3788H68.6518L66.3159 27.9561H53.639C53.3145 27.9561 53.0469 27.6885 53.0469 27.3641C53.0469 27.0396 53.3145 26.772 53.639 26.772H66.6241C66.8188 26.772 67.0053 26.8693 67.1108 27.0315L70.2577 31.6384C70.3794 31.8168 70.3956 32.052 70.2902 32.2467C70.1847 32.4413 69.9901 32.563 69.7711 32.563Z" fill="#252525" stroke="#252525" stroke-width="0.5" stroke-miterlimit="10"/>
        <path d="M37.7516 34.0234H36.1133V35.6618H37.7516V34.0234Z" fill="#252525"/>
        <path d="M40.6794 34.0234H39.041V35.6618H40.6794V34.0234Z" fill="#252525"/>
        <path d="M37.7516 36.7402H36.1133V38.3786H37.7516V36.7402Z" fill="#252525"/>
        <path d="M40.6794 36.7402H39.041V38.3786H40.6794V36.7402Z" fill="#252525"/>
        <path d="M43.6403 34.0234H42.002V35.6618H43.6403V34.0234Z" fill="#252525"/>
        <path d="M43.6403 36.7402H42.002V38.3786H43.6403V36.7402Z" fill="#252525"/>
        <path d="M59.82 34.0229H58.1816V35.6613H59.82V34.0229Z" fill="#252525"/>
        <path d="M62.7399 34.0234H61.1016V35.6618H62.7399V34.0234Z" fill="#252525"/>
        <path d="M59.82 36.7402H58.1816V38.3786H59.82V36.7402Z" fill="#252525"/>
        <path d="M62.7399 36.7402H61.1016V38.3786H62.7399V36.7402Z" fill="#252525"/>
        <path d="M65.7087 34.0234H64.0703V35.6618H65.7087V34.0234Z" fill="#252525"/>
        <path d="M65.7087 36.7402H64.0703V38.3786H65.7087V36.7402Z" fill="#252525"/>
        <path d="M37.7516 39.5952H36.1133V41.2336H37.7516V39.5952Z" fill="#252525"/>
        <path d="M40.6794 39.5952H39.041V41.2336H40.6794V39.5952Z" fill="#252525"/>
        <path d="M37.7516 42.3125H36.1133V43.9509H37.7516V42.3125Z" fill="#252525"/>
        <path d="M40.6794 42.3125H39.041V43.9509H40.6794V42.3125Z" fill="#252525"/>
        <path d="M43.6403 39.5952H42.002V41.2336H43.6403V39.5952Z" fill="#252525"/>
        <path d="M43.6403 42.3125H42.002V43.9509H43.6403V42.3125Z" fill="#252525"/>
        <path d="M59.82 39.5952H58.1816V41.2336H59.82V39.5952Z" fill="#252525"/>
        <path d="M62.7399 39.5952H61.1016V41.2336H62.7399V39.5952Z" fill="#252525"/>
        <path d="M59.82 42.3125H58.1816V43.9509H59.82V42.3125Z" fill="#252525"/>
        <path d="M62.7399 42.3125H61.1016V43.9509H62.7399V42.3125Z" fill="#252525"/>
        <path d="M65.7087 39.5952H64.0703V41.2336H65.7087V39.5952Z" fill="#252525"/>
        <path d="M65.7087 42.3125H64.0703V43.9509H65.7087V42.3125Z" fill="#252525"/>
        <path d="M52.7233 46.6924H49.1546C48.8302 46.6924 48.5625 46.4248 48.5625 46.1003V39.1819C48.5625 39.1819 48.5625 39.117 48.5625 39.0846C48.5868 37.795 49.6412 36.7568 50.9308 36.7568C52.2204 36.7568 53.2748 37.795 53.2991 39.0765C53.2991 39.1089 53.2991 39.1414 53.2991 39.1738V46.0922C53.2991 46.4166 53.0315 46.6843 52.7071 46.6843L52.7233 46.6924ZM49.7385 45.5083H52.1231V39.2874C52.115 39.2387 52.1069 39.19 52.115 39.1414C52.115 39.1252 52.115 39.0927 52.115 39.0765C52.115 38.4682 51.5797 37.9329 50.9227 37.9329C50.2657 37.9329 49.7548 38.452 49.7385 39.0927C49.7385 39.1089 49.7385 39.1252 49.7385 39.1333C49.7385 39.1819 49.7385 39.2387 49.7304 39.2874V45.5001L49.7385 45.5083Z" fill="#252525" stroke="#252525" stroke-width="0.5" stroke-miterlimit="10"/>
        <path d="M50.8831 23.9985C50.5587 23.9985 50.291 23.7309 50.291 23.4065V17.1126C50.291 16.7882 50.5587 16.5205 50.8831 16.5205C51.2075 16.5205 51.4752 16.7882 51.4752 17.1126V23.3984C51.4752 23.7228 51.2075 23.9904 50.8831 23.9904V23.9985Z" fill="#252525" stroke="#252525" stroke-width="0.5" stroke-miterlimit="10"/>
        <path d="M50.8831 21.3302C50.7533 21.3302 50.6236 21.2897 50.5181 21.2005C50.3802 21.0869 50.291 20.9166 50.291 20.7381V17.1127C50.291 16.9342 50.3721 16.7639 50.5181 16.6504C50.656 16.5368 50.8425 16.4963 51.021 16.5368L58.6693 18.3455C58.937 18.4104 59.1235 18.6456 59.1235 18.9214C59.1235 19.1971 58.937 19.4323 58.6693 19.4972L51.021 21.3059C50.9723 21.314 50.9318 21.3221 50.8831 21.3221V21.3302ZM51.4752 17.867V19.992L55.9685 18.9295L51.4752 17.867Z" fill="#252525" stroke="#252525" stroke-width="0.5" stroke-miterlimit="10"/>
    </g>
    <path d="M1 51H101V91C101 96.5228 96.5229 101 91 101H11C5.47716 101 1 96.5228 1 91V51Z" fill="white"/>
    <path d="M1 51H101H1ZM101.5 91C101.5 96.799 96.799 101.5 91 101.5H11C5.20101 101.5 0.5 96.799 0.5 91H1.5C1.5 96.2467 5.75329 100.5 11 100.5H91C96.2467 100.5 100.5 96.2467 100.5 91H101.5ZM11 101.5C5.20101 101.5 0.5 96.799 0.5 91V51H1.5V91C1.5 96.2467 5.75329 100.5 11 100.5V101.5ZM101.5 51V91C101.5 96.799 96.799 101.5 91 101.5V100.5C96.2467 100.5 100.5 96.2467 100.5 91V51H101.5Z" fill="#E8E8E8"/>
    <path d="M31.1074 58.0469V59.25H23.7793V58.0469H26.6914V56.8027H28.209V58.0469H31.1074ZM27.4434 59.7285C29.2344 59.7285 30.4512 60.6309 30.4648 61.9844C30.4512 63.3379 29.2344 64.2402 27.4434 64.2402C25.6523 64.2402 24.4082 63.3379 24.4082 61.9844C24.4082 60.6309 25.6523 59.7285 27.4434 59.7285ZM27.4434 60.877C26.5 60.877 25.8848 61.2871 25.8848 61.9844C25.8848 62.6816 26.5 63.0781 27.4434 63.0645C28.3867 63.0781 29.0156 62.6816 29.0156 61.9844C29.0156 61.2871 28.3867 60.877 27.4434 60.877ZM33.5137 56.8574V60.1387H35.2363V61.3828H33.5137V64.5957H31.9961V56.8574H33.5137ZM33.5137 65.1699V69.2168H31.9961V66.3867H25.2832V65.1699H33.5137ZM46.2285 56.8711V66.2227H44.6973V65.1426H42.2773V64.0762H44.6973V56.8711H46.2285ZM46.5156 67.7402V68.9707H37.4512V65.3203H38.9688V67.7402H46.5156ZM35.8105 62.4219C38.0938 62.4082 41.1562 62.3809 43.7812 62.0527L43.8633 63.1465C42.8447 63.3174 41.792 63.4336 40.7461 63.502V65.8809H39.2285V63.584C38.0732 63.6318 36.9727 63.6387 36.002 63.6387L35.8105 62.4219ZM39.8438 57.3223C41.6484 57.3223 42.9062 58.2109 42.9199 59.5098C42.9062 60.8359 41.6484 61.6836 39.8438 61.6836C38.0117 61.6836 36.7539 60.8359 36.7539 59.5098C36.7539 58.2109 38.0117 57.3223 39.8438 57.3223ZM39.8438 58.4434C38.8594 58.4434 38.1895 58.8398 38.1895 59.5098C38.1895 60.1797 38.8594 60.5762 39.8438 60.5762C40.7871 60.5762 41.457 60.1797 41.4707 59.5098C41.457 58.8398 40.7871 58.4434 39.8438 58.4434ZM50.3711 67.0293L49.2227 70.8574H47.9238L48.6348 67.0293H50.3711ZM62.1973 58.0469V59.25H54.8691V58.0469H57.7812V56.8027H59.2988V58.0469H62.1973ZM58.5332 59.7285C60.3242 59.7285 61.541 60.6309 61.5547 61.9844C61.541 63.3379 60.3242 64.2402 58.5332 64.2402C56.7422 64.2402 55.498 63.3379 55.498 61.9844C55.498 60.6309 56.7422 59.7285 58.5332 59.7285ZM58.5332 60.877C57.5898 60.877 56.9746 61.2871 56.9746 61.9844C56.9746 62.6816 57.5898 63.0781 58.5332 63.0645C59.4766 63.0781 60.1055 62.6816 60.1055 61.9844C60.1055 61.2871 59.4766 60.877 58.5332 60.877ZM64.6035 56.8574V60.1387H66.3262V61.3828H64.6035V64.5957H63.0859V56.8574H64.6035ZM64.6035 65.1699V69.2168H63.0859V66.3867H56.373V65.1699H64.6035ZM77.0859 57.9922V59.25C77.0859 60.7812 77.0859 62.4492 76.6348 64.8691L75.1445 64.7188C75.5684 62.4355 75.5684 60.7402 75.5684 59.25V59.209H68.0898V57.9922H77.0859ZM78.2207 66.373V67.6172H66.9551V66.373H69.4844V62.4355H71.002V66.373H72.5742V62.4355H74.0645V66.373H78.2207ZM49.6602 74.8711V83.8945H48.1426V79.3691H45.9551V78.1387H48.1426V74.8711H49.6602ZM49.9746 85.7402V86.9707H41.5527V83.1016H43.0703V85.7402H49.9746ZM43.8496 77.332C43.8496 78.8223 44.8477 80.3535 46.7617 80.9824L45.9961 82.1992C44.6152 81.7275 43.6377 80.791 43.0977 79.6152C42.5508 80.9209 41.5186 81.9531 40.0625 82.459L39.2832 81.2285C41.252 80.5859 42.3047 78.959 42.3047 77.3184V76.9902H39.7344V75.7598H46.4062V76.9902H43.8496V77.332ZM62.6758 80.8047V82.0215H51.4102V80.8047H54.0352V79.2324C53.1055 78.8428 52.5723 78.2207 52.5723 77.4141C52.5723 75.9375 54.3086 75.0625 57.0293 75.0625C59.75 75.0625 61.4727 75.9375 61.4863 77.4141C61.4795 78.2275 60.9463 78.8496 60.0098 79.2324V80.8047H62.6758ZM57.0293 82.7734C59.6953 82.7598 61.2949 83.5527 61.3086 84.9746C61.2949 86.4102 59.6953 87.1895 57.0293 87.1895C54.3359 87.1895 52.7227 86.4102 52.7227 84.9746C52.7227 83.5527 54.3359 82.7598 57.0293 82.7734ZM57.0293 83.9219C55.2246 83.9219 54.2539 84.2773 54.2676 84.9746C54.2539 85.6719 55.2246 86.041 57.0293 86.041C58.793 86.041 59.7773 85.6719 59.791 84.9746C59.7773 84.2773 58.793 83.9219 57.0293 83.9219ZM57.0293 76.2383C55.1973 76.2383 54.1445 76.6484 54.1582 77.4141C54.1445 78.166 55.1973 78.5625 57.0293 78.5625C58.8477 78.5625 59.9141 78.166 59.9141 77.4141C59.9141 76.6484 58.8477 76.2383 57.0293 76.2383ZM55.5664 80.8047H58.4922V79.6289C58.0479 79.6904 57.5557 79.7246 57.0293 79.7246C56.5029 79.7246 56.0107 79.6904 55.5664 79.6289V80.8047Z" fill="#252525"/>
    <defs>
        <clipPath id="clip0_338_16470">
            <rect width="39.3449" height="30.78" fill="white" transform="translate(31.3281 16.2202)"/>
        </clipPath>
    </defs>
</svg>